<?xml version="1.0" encoding="UTF-8"?>
<svg version="1.1" xmlns="http://www.w3.org/2000/svg" width="1280" height="1280">
<path d="M0 0 C1.41599487 0.00282486 1.41599487 0.00282486 2.8605957 0.00570679 C35.17943692 0.07969436 67.40629708 0.52888344 99.64654541 2.89553833 C118.47015788 4.27137716 137.1706702 4.92357046 156.02783203 3.61230469 C156.71418228 3.56552582 157.40053253 3.51874695 158.10768127 3.47055054 C159.78019237 3.35641019 161.45260672 3.24085369 163.125 3.125 C163.14847059 22.97180252 163.16604819 42.81860219 163.17681217 62.66541576 C163.18194527 71.88282424 163.18893031 81.10022405 163.20043945 90.31762695 C163.21047832 98.36142922 163.21687508 106.4052252 163.21908849 114.44903356 C163.22038014 118.69913056 163.2233661 122.94920959 163.23073006 127.19930077 C163.25712156 143.0369013 163.2618991 158.83180033 162.3598175 174.6497345 C161.99536405 181.12976833 161.94241343 187.61171368 161.89520454 194.10050201 C161.87812772 196.36904803 161.85490455 198.63746839 161.83030701 200.90594482 C161.76127033 207.3384318 161.6999737 213.77096392 161.64819336 220.20361328 C161.39048922 251.41118548 161.39048922 251.41118548 160.21484375 266.484375 C160.13851212 267.4768927 160.06218048 268.4694104 159.98353577 269.49200439 C159.53182346 274.59361049 158.89351162 279.30330698 157.125 284.125 C154.2098371 286.44218077 152.85917994 287.125 149.125 287.125 C151 282.25 151 282.25 152.125 281.125 C152.34101636 279.55025576 152.49625839 277.96708144 152.625 276.3828125 C152.74875 274.90554688 152.74875 274.90554688 152.875 273.3984375 C152.99875 271.83996094 152.99875 271.83996094 153.125 270.25 C153.29145334 268.23175323 153.45811946 266.21352399 153.625 264.1953125 C153.6971875 263.29570801 153.769375 262.39610352 153.84375 261.46923828 C154.00425769 259.56070156 154.17371719 257.65275268 154.37025452 255.74758911 C155.08817209 248.58541511 155.30500048 241.48420564 155.37109375 234.2890625 C155.40415529 231.74999815 155.43736398 229.21093572 155.47070312 226.671875 C155.51700614 222.77378466 155.56119036 218.87569285 155.60180664 214.97753906 C155.74131345 202.14291246 155.92642096 189.32385152 156.58398438 176.50415039 C156.6484364 175.24324286 156.6484364 175.24324286 156.71419048 173.95686245 C156.75820901 173.09603086 156.80222754 172.23519926 156.84757996 171.34828186 C158.42952411 140.31027196 158.56007414 109.27287233 158.71443588 78.20256758 C158.75342214 70.42663861 158.80263321 62.65078265 158.85240483 54.87491643 C158.95406949 38.95833111 159.04383371 23.04170393 159.125 7.125 C158.465 7.455 157.805 7.785 157.125 8.125 C137.15986658 10.90898275 116.62969013 9.06413254 96.625 7.6875 C75.11039886 6.21844322 53.6628312 5.3971627 32.10058594 5.1607666 C29.00440457 5.12355044 25.90850933 5.07578916 22.8125 5.02636719 C-8.08736162 4.55484417 -38.69564394 5.51394045 -69.51626587 7.4865675 C-73.1435207 7.7184781 -76.77090439 7.94826492 -80.3984375 8.17578125 C-81.10558395 8.22013872 -81.81273041 8.26449619 -82.54130554 8.31019783 C-96.18913175 9.15707255 -109.82774088 9.56003518 -123.5 9.75 C-158.5211583 10.26458908 -192.87595841 12.92063014 -227.56762695 17.73144531 C-245.00630024 20.14618826 -262.40961317 21.53622544 -279.98828125 22.44140625 C-298.97782957 23.51075816 -317.73679195 26.08178128 -336.57202148 28.64916992 C-337.70182938 28.8031424 -338.83163727 28.95711487 -339.99568176 29.11575317 C-342.12292559 29.40683673 -344.249891 29.69996559 -346.37651062 29.99557495 C-355.91246223 31.30835141 -365.28633131 32.27973684 -374.91796875 32.328125 C-375.86404999 32.33495804 -376.81013123 32.34179108 -377.78488159 32.34883118 C-380.87745743 32.36595582 -383.96987933 32.37217715 -387.0625 32.375 C-388.12991425 32.37700409 -389.19732849 32.37900818 -390.29708862 32.381073 C-409.29920692 32.38971345 -428.16382522 31.49235082 -447.10961914 30.08989906 C-466.8492706 28.63517653 -486.53448207 27.97237351 -506.32748413 28.08012581 C-509.73598302 28.09833254 -513.14444394 28.10930347 -516.55297852 28.11851501 C-521.41207651 28.13182447 -526.27116188 28.14700928 -531.13024902 28.16381836 C-600.00928081 28.39132868 -600.00928081 28.39132868 -631.625 27.125 C-632.80374695 27.07807007 -633.9824939 27.03114014 -635.19696045 26.98278809 C-639.58587587 26.8064165 -643.97470871 26.62823251 -648.3633728 26.44570923 C-673.36700021 25.43178738 -698.39299356 26.20517318 -723.40097046 26.69390869 C-787.33555281 27.94146168 -787.33555281 27.94146168 -806.80078125 24.2421875 C-807.55399658 24.10151855 -808.30721191 23.96084961 -809.08325195 23.81591797 C-809.67452881 23.58791504 -810.26580566 23.35991211 -810.875 23.125 C-811.205 22.135 -811.535 21.145 -811.875 20.125 C-810.04149232 20.26862477 -808.20820217 20.41502705 -806.375 20.5625 C-804.84359375 20.68431641 -804.84359375 20.68431641 -803.28125 20.80859375 C-800.99691971 21.02078498 -798.71775197 21.29775436 -796.44873047 21.63647461 C-790.74107073 22.35227422 -785.03312936 22.26766892 -779.2890625 22.2578125 C-778.05935226 22.25913177 -776.82964203 22.26045105 -775.56266785 22.2618103 C-772.2327663 22.26340002 -768.90295319 22.2600454 -765.5730629 22.25357056 C-763.49177156 22.24998583 -761.41048716 22.24837778 -759.32919312 22.24731445 C-738.50824239 22.23412824 -717.69847749 22.00372377 -696.88330078 21.48095703 C-674.55075574 20.92657566 -652.30212694 21.06217483 -629.98001099 21.92181396 C-606.33513635 22.81363538 -582.70435937 23.21817856 -559.04296875 23.33984375 C-557.76777248 23.34656853 -556.49257622 23.3532933 -555.17873764 23.36022186 C-548.60195223 23.39457643 -542.02515922 23.42731161 -535.44836426 23.45977783 C-532.77807564 23.47308168 -530.10778767 23.486509 -527.4375 23.5 C-526.77603785 23.50332179 -526.11457569 23.50664358 -525.43306923 23.51006603 C-489.218874 23.69367667 -453.18075821 24.219159 -417.0675354 27.02514648 C-395.5377877 28.68516269 -374.47708242 28.7487551 -353.0625 25.875 C-351.23676911 25.64443201 -349.41083599 25.41546041 -347.5847168 25.18798828 C-339.76648365 24.20479272 -331.96033239 23.1519323 -324.1640625 22.0078125 C-308.59396103 19.74307047 -293.20738567 18.56080741 -277.50933838 17.71774292 C-256.2579029 16.53676836 -235.25156774 13.85874533 -214.17602539 10.99316406 C-187.60565909 7.39525421 -161.3151578 5.84958566 -134.54089355 5.29074097 C-107.56570687 4.7242629 -80.67976975 3.78395745 -53.765625 1.80859375 C-35.85347615 0.49673542 -17.95749132 -0.05554655 0 0 Z " fill="#FFFFFF" transform="translate(970.875,845.875)"/>
<path d="M0 0 C3.14705037 0.00015996 6.29350221 -0.01335943 9.44042969 -0.04101562 C30.01445198 -0.21852193 50.32674229 0.67392432 70.83544922 2.32763672 C90.88113487 3.93778477 110.84384817 4.82682694 130.95263672 5.09326172 C132.91987387 5.11949741 132.91987387 5.11949741 134.92685318 5.14626312 C143.60272281 5.25615904 152.27870938 5.33906475 160.95492554 5.41518402 C172.32941096 5.51623645 183.70361978 5.63584182 195.07763672 5.78076172 C196.36302464 5.79697571 197.64841255 5.8131897 198.97275162 5.82989502 C222.32068281 6.14614268 245.5224416 7.39605936 268.78466797 9.37060547 C270.29179415 9.4960446 271.79894025 9.6212446 273.30610657 9.74620056 C285.49720861 10.76279211 297.65189201 11.92821524 309.78076172 13.53076172 C310.56254288 13.63390686 311.34432404 13.737052 312.14979553 13.84332275 C312.94445724 13.94820007 313.73911896 14.05307739 314.55786133 14.16113281 C332.49935833 16.52605575 350.42330745 18.28258024 368.47216797 19.62060547 C369.58216156 19.70341766 370.69215515 19.78622986 371.83578491 19.87155151 C391.90246634 21.35362158 411.96970966 22.59371867 432.09716797 22.62060547 C432.85115875 22.62260956 433.60514954 22.62461365 434.38198853 22.62667847 C448.16216426 22.63548668 461.69926886 21.63035147 475.39013672 20.12451172 C491.26890352 18.43201892 507.06019674 18.22033858 523.01123047 18.23779297 C525.21544404 18.23711724 527.41965753 18.236145 529.62387085 18.2348938 C534.21426105 18.23343007 538.80463163 18.23552879 543.39501953 18.24023438 C549.23909882 18.2459376 555.08313223 18.24264039 560.92720985 18.23666191 C565.46917051 18.23302608 570.01112051 18.23420858 574.55308151 18.2367897 C576.70656719 18.23745028 578.86005387 18.23666145 581.01353836 18.23431015 C591.5010694 18.22536595 601.89364821 18.33065437 612.35336304 19.13708496 C618.33671314 19.54428717 624.32062952 19.57236727 630.31591797 19.60888672 C630.97563032 19.61371 631.63534267 19.61853329 632.31504631 19.62350273 C637.30491353 19.65939579 642.29468447 19.67541069 647.28466797 19.68310547 C648.02066853 19.68455063 648.75666908 19.68599579 649.51497269 19.68748474 C671.96533791 19.72304883 693.96522633 18.8317181 716.24755859 15.94384766 C724.47213863 14.88839416 732.71953123 14.04777508 740.97216797 13.24560547 C742.26368774 13.11906082 742.26368774 13.11906082 743.58129883 12.98995972 C766.80824073 10.76502183 790.15282425 10.24899871 813.46881104 9.68675232 C818.33035305 9.56218423 823.18556236 9.41441862 828.04066467 9.1320343 C842.45978401 8.29913566 856.85639672 8.18769252 871.29722333 8.13314557 C874.79672054 8.1184346 878.29617555 8.09702383 881.79563904 8.07591248 C893.65237065 8.00551426 905.50913603 7.94480106 917.3659668 7.89379883 C923.95298938 7.86539441 930.53993811 7.82998641 937.12688297 7.78714508 C941.2668164 7.76062102 945.40666705 7.7425681 949.54666817 7.73110783 C952.73225243 7.71974745 955.91774621 7.69565712 959.10327148 7.67358398 C960.79215988 7.67270027 960.79215988 7.67270027 962.51516724 7.67179871 C968.66877628 7.61555239 974.42942488 7.07909134 980.4578228 5.82117653 C983.60496811 5.21176228 986.65056415 5.1281127 989.85107422 5.14013672 C991.69282227 5.14303711 991.69282227 5.14303711 993.57177734 5.14599609 C995.4405957 5.16436523 995.4405957 5.16436523 997.34716797 5.18310547 C998.59691406 5.18375 999.84666016 5.18439453 1001.13427734 5.18505859 C1008.07584982 5.21788789 1014.89570955 5.5006004 1021.78466797 6.37060547 C1021.78466797 7.36060547 1021.78466797 8.35060547 1021.78466797 9.37060547 C1017.77497736 10.33385624 1014.08943552 10.46012085 1009.97216797 10.39794922 C1008.63493116 10.38528317 1007.29769142 10.37292372 1005.96044922 10.36083984 C1003.88531976 10.33628066 1001.81035068 10.30852464 999.73535156 10.2746582 C997.71011569 10.24376642 995.68506952 10.22646453 993.65966797 10.21044922 C992.46083984 10.19361084 991.26201172 10.17677246 990.02685547 10.15942383 C986.69957976 10.22533251 983.60148012 10.75951357 980.33325195 11.37280273 C970.82251831 12.90396714 961.25260135 12.59120316 951.6445179 12.52093506 C948.04988862 12.49501095 944.45541039 12.48227173 940.86070251 12.47265625 C931.91328173 12.4461378 922.96600117 12.39835159 914.01867676 12.34985352 C905.26491285 12.30320574 896.51119132 12.26594992 887.75732422 12.24560547 C886.53823742 12.24273026 885.31915062 12.23985504 884.0631218 12.2368927 C865.14680138 12.20940752 846.35300577 12.80896138 827.47940922 14.02690887 C819.28480561 14.54776344 811.08889563 14.71260527 802.88046265 14.834198 C782.65268892 15.1481394 762.64335552 16.49759702 742.52416992 18.62255859 C734.36796887 19.46385789 726.19192523 20.00562432 718.0078125 20.49755859 C712.40579363 20.86314462 706.87350632 21.33882671 701.31152344 22.09667969 C683.60498153 24.46579868 666.23278354 24.76991773 648.40979004 24.6348877 C645.38984085 24.61571914 642.36995273 24.61172669 639.34995079 24.60817337 C635.66930933 24.60296577 631.98871861 24.58853155 628.30810547 24.57373047 C627.63717236 24.57184975 626.96623924 24.56996902 626.27497482 24.56803131 C619.24346606 24.54249441 612.26292283 24.36866195 605.24829102 23.87060547 C594.78952681 23.13942774 584.32304336 23.18625397 573.84326172 23.16748047 C572.21720851 23.1632394 572.21720851 23.1632394 570.55830574 23.15891266 C564.80099378 23.14400216 559.04370627 23.13472606 553.28637695 23.13037109 C548.61800164 23.1260216 543.94981481 23.11225595 539.28149414 23.08935547 C512.59541077 22.96093965 486.24254574 23.49323031 459.65992641 25.87873268 C451.11349394 26.63162319 442.60855425 26.83820244 434.03466797 26.74560547 C433.23022247 26.74161743 432.42577698 26.73762939 431.59695435 26.73352051 C391.70029108 26.51043439 351.77955572 23.09013094 312.20493031 18.18985462 C295.10965162 16.07511473 278.02217493 14.10987805 260.84716797 12.74560547 C260.19712296 12.69319576 259.54707794 12.64078606 258.87733459 12.58678818 C220.17495036 9.48954943 181.3004243 9.42525372 142.49584961 9.00292969 C137.37856185 8.94605572 132.26129398 8.88772794 127.14404297 8.82763672 C125.91245012 8.81321156 124.68085728 8.79878639 123.41194344 8.7839241 C105.14022858 8.5587326 86.99301585 7.96269824 68.78466797 6.37060547 C24.87342936 2.63009391 -19.54108252 3.31094131 -63.4490509 6.96409607 C-67.91113379 7.33111166 -72.37504927 7.66998624 -76.84033203 7.99560547 C-77.77332123 8.063815 -78.70631042 8.13202454 -79.66757202 8.20230103 C-95.29642768 9.28825352 -110.88451908 9.47871215 -126.54345703 9.45654297 C-127.54097866 9.45525013 -128.53850029 9.45395729 -129.56624985 9.45262527 C-139.71821323 9.43525975 -149.86952128 9.38659743 -160.02101898 9.28739643 C-183.6297878 9.06454724 -206.74364351 9.73625862 -230.21533203 12.37060547 C-232.29317004 12.59247511 -234.37112237 12.81327831 -236.44921875 13.03271484 C-240.37502361 13.45022012 -244.29602651 13.89604568 -248.21533203 14.37060547 C-248.21533203 13.05060547 -248.21533203 11.73060547 -248.21533203 10.37060547 C-215.67571713 3.66287784 -182.33154088 3.99522354 -149.28155518 4.28118896 C-119.17273333 4.54021611 -89.35464516 4.28571681 -59.32199097 2.08535767 C-39.51549052 0.64340155 -19.85180273 -0.00526063 0 0 Z " fill="#FFFFFF" transform="translate(248.21533203125,73.62939453125)"/>
<path d="M0 0 C0 0.99 0 1.98 0 3 C-23.1467116 4.6881218 -46.25222367 5.48414606 -69.45245361 5.94484329 C-77.05405836 6.09814215 -84.65534062 6.26742092 -92.25668716 6.43293953 C-95.16882374 6.4961123 -98.08097725 6.55845566 -100.99313354 6.62071228 C-113.32604644 6.88616896 -125.6573055 7.19163275 -137.98828125 7.53515625 C-139.58973675 7.57958658 -141.19119243 7.62401003 -142.79264832 7.66842651 C-145.16983109 7.73443824 -147.54701304 7.8004796 -149.92419338 7.86657906 C-177.29459765 8.62675716 -204.65742867 9.17375891 -232.0368309 9.47288513 C-285.01529935 10.05607862 -337.7976537 11.31391602 -390.64938354 15.24925232 C-403.86794358 16.22745665 -417.09729896 17.01478189 -430.32873535 17.79562378 C-433.09292348 17.95897095 -435.85701793 18.1238267 -438.62109375 18.2890625 C-439.98350693 18.3692009 -439.98350693 18.3692009 -441.3734436 18.45095825 C-446.43372966 18.75599587 -451.48652986 19.11055768 -456.53955078 19.51928711 C-474.04884728 20.91853701 -491.44433973 21.33008356 -509 21.3125 C-509.71020212 21.31184453 -510.42040423 21.31118906 -511.15212762 21.31051373 C-528.7776236 21.28757864 -546.38374256 21.1376425 -563.99267578 20.33300781 C-565.4421958 20.26750395 -566.89171785 20.20204509 -568.34124184 20.1366291 C-569.0757887 20.10344495 -569.81033556 20.0702608 -570.56714141 20.03607106 C-571.31349763 20.00240965 -572.05985384 19.96874823 -572.8288269 19.93406677 C-573.96453571 19.88284483 -573.96453571 19.88284483 -575.12318814 19.8305881 C-616.73767365 17.97308734 -658.34481522 17.66414138 -699.9921875 17.55859375 C-701.53580762 17.55454088 -703.07942773 17.55048403 -704.62304783 17.5464232 C-725.95392487 17.49123288 -747.28481567 17.4650136 -768.61574988 17.44472842 C-777.54705829 17.43611028 -786.47836336 17.42521926 -795.40966797 17.41333008 C-796.61679694 17.41172805 -796.61679694 17.41172805 -797.84831236 17.41009366 C-811.37741886 17.39185964 -824.90650224 17.36582838 -838.43558609 17.33519894 C-845.94176338 17.31858818 -853.44790092 17.30624597 -860.95409775 17.30496025 C-891.68285055 17.29892221 -922.33659887 17.22362777 -953 15 C-954.26630312 14.90822102 -955.53260624 14.81644203 -956.83728218 14.72188187 C-964.20868883 14.17774401 -971.57368768 13.5757011 -978.9375 12.9375 C-1037.7946441 7.86758524 -1098.28998634 5.74873125 -1157.25158691 9.8145752 C-1162.35108046 10.15861831 -1167.45308175 10.46260435 -1172.5546875 10.7734375 C-1179.85455071 11.22166893 -1187.15372172 11.67913492 -1194.45222473 12.14898682 C-1212.69602671 13.32062029 -1230.90527168 14.06819356 -1249.18798828 14.17422485 C-1250.63071615 14.1829822 -1252.07343043 14.19445842 -1253.51611328 14.20883179 C-1255.51848891 14.22659271 -1257.52098376 14.22884985 -1259.5234375 14.23046875 C-1260.67763184 14.23457764 -1261.83182617 14.23868652 -1263.02099609 14.24291992 C-1265.90916283 14.00740723 -1267.56113379 13.50684158 -1270 12 C-1268.30142408 10.30142408 -1266.0976478 10.76619024 -1263.76757812 10.67456055 C-1262.06653679 10.60372757 -1262.06653679 10.60372757 -1260.33113098 10.53146362 C-1258.4501899 10.45981491 -1258.4501899 10.45981491 -1256.53125 10.38671875 C-1254.52222116 10.30326587 -1252.51319283 10.21979962 -1250.50418568 10.13582611 C-1248.33840988 10.04589718 -1246.17256044 9.9579675 -1244.00668335 9.87051392 C-1236.34370166 9.56033212 -1228.68138351 9.23534727 -1221.01953125 8.8984375 C-1220.23137842 8.86379457 -1219.44322559 8.82915165 -1218.63118935 8.79345894 C-1207.31154357 8.29067177 -1196.0049889 7.66597697 -1184.69921875 6.9140625 C-1184.00825104 6.8681365 -1183.31728333 6.8222105 -1182.6053772 6.77489281 C-1179.84583427 6.59105307 -1177.08633967 6.40650229 -1174.32688522 6.22133923 C-1146.50212226 4.35755473 -1118.88567274 3.36493572 -1091 4 C-1089.02788544 4.04314331 -1089.02788544 4.04314331 -1087.01593018 4.0871582 C-1047.89270272 4.94621575 -1008.81114537 6.05629306 -969.78125 8.98046875 C-968.60256851 9.06862854 -967.42388702 9.15678833 -966.20948792 9.24761963 C-960.39643053 9.68409947 -954.58423784 10.12877809 -948.77319336 10.59130859 C-923.51556571 12.57120879 -898.28881973 13.14753383 -872.96044922 13.15771484 C-870.28151766 13.16240193 -867.60258974 13.16748555 -864.92366028 13.17311096 C-859.20413244 13.18450012 -853.48460732 13.1928168 -847.76507187 13.19923019 C-838.62494854 13.20976678 -829.48485906 13.23038917 -820.34475708 13.25234985 C-817.18359958 13.25982674 -814.02244194 13.26724139 -810.86128426 13.27463722 C-809.67645422 13.27741307 -809.67645422 13.27741307 -808.46768823 13.280245 C-799.52077985 13.301076 -790.57386771 13.31993542 -781.62695312 13.33789062 C-780.81197141 13.33952881 -779.9969897 13.34116699 -779.15731157 13.34285481 C-767.7161079 13.36563694 -756.27490381 13.3834107 -744.83368725 13.39821491 C-725.01147411 13.42402882 -705.18932719 13.46306258 -685.3671875 13.5234375 C-684.59734224 13.52574186 -683.82749697 13.52804623 -683.03432307 13.53042042 C-637.01954071 13.66973347 -591.07921702 14.32895755 -545.10836601 16.50729656 C-502.03408411 18.52189424 -459.40908353 15.53622834 -416.46381569 12.46012783 C-409.75303517 11.98016802 -403.04093972 11.52093083 -396.328125 11.0703125 C-395.33125168 11.00332657 -394.33437836 10.93634064 -393.30729675 10.86732483 C-391.42608835 10.74091787 -389.54487811 10.61453807 -387.66366577 10.4881897 C-384.47617404 10.27289798 -381.28901266 10.05305461 -378.10192871 9.83181763 C-375.81261435 9.67335572 -373.5231333 9.51746323 -371.23364258 9.36157227 C-367.25086148 9.08935778 -363.26936276 8.80150813 -359.2878418 8.51147461 C-341.44724341 7.2360944 -323.62431075 6.46965795 -305.74578857 5.99383545 C-302.44164282 5.90340083 -299.13785579 5.80106542 -295.83398438 5.70117188 C-280.67430125 5.25966384 -265.51398814 4.97946643 -250.34912109 4.79174805 C-249.64364407 4.78299031 -248.93816705 4.77423256 -248.21131194 4.76520944 C-245.26027954 4.72864099 -242.30924503 4.69224567 -239.35820991 4.65589797 C-209.90528243 4.29271932 -180.46168159 3.76450995 -151.015625 3.02734375 C-149.69952567 2.99448292 -149.69952567 2.99448292 -148.35683846 2.96095824 C-135.89096397 2.64941827 -123.42530788 2.32955126 -110.95970154 2.00748444 C-98.26690883 1.67966311 -85.57407176 1.35376893 -72.88103652 1.03546149 C-68.65630783 0.92933342 -64.43162877 0.82174504 -60.20703888 0.71021843 C-40.13163626 0.18043814 -20.08362035 -0.1281566 0 0 Z " fill="#FFFFFF" transform="translate(1278,195)"/>
<path d="M0 0 C0.66 0 1.32 0 2 0 C2 0.66 2 1.32 2 2 C2.81969269 1.98889694 3.63938538 1.97779388 4.48391724 1.96635437 C43.9477446 1.45745393 82.69502075 1.80747836 121.97523499 6.09492493 C132.56878185 7.22335653 143.1709495 7.80396987 153.8125 8.25 C154.69855927 8.28769501 155.58461853 8.32539001 156.49752808 8.36422729 C166.51933883 8.78156665 176.54304865 9.07806186 186.57006836 9.33398438 C211.99088934 9.99309451 237.30493559 11.8567829 262.6171875 14.2734375 C263.78004272 14.38445801 264.94289795 14.49547852 266.14099121 14.60986328 C271.82163449 15.15531838 277.50088648 15.71208137 283.17871094 16.28613281 C305.9949434 18.56231893 328.73231773 19.09360894 351.64654636 19.31089592 C378.6440573 19.57111436 405.48096527 20.43130879 432.4122467 22.46942139 C438.85782842 22.94632817 445.30528901 23.29275413 451.76171875 23.5859375 C452.66013992 23.62682495 453.5585611 23.6677124 454.48420715 23.70983887 C466.26729478 24.21703979 477.98023072 24.09311611 489.76245117 23.63916016 C528.58145559 22.16923174 566.43178108 23.35846709 605 28 C605 28.66 605 29.32 605 30 C605.78375 30.144375 606.5675 30.28875 607.375 30.4375 C610 32 610 32 610.65745544 33.72019958 C611.92568712 39.9315614 612.59079301 46.08915118 613.03515625 52.41015625 C613.11851227 53.58101273 613.20186829 54.7518692 613.28775024 55.95820618 C613.56225514 59.99210633 613.81631288 64.02679659 614.0625 68.0625 C614.10652073 68.76969429 614.15054146 69.47688858 614.19589615 70.205513 C616.80515507 112.45880717 616.59326332 154.83248494 616.75164175 197.15012634 C616.75998522 199.36092713 616.76871697 201.5717261 616.77753067 203.78252506 C616.80452976 210.66438028 616.82642658 217.54614756 616.83633423 224.42805481 C616.87364424 240.19622148 617.22670105 255.93002663 617.76124573 271.68701172 C618.06986081 280.84889474 618.23537346 290.00975128 618.3515625 299.17578125 C618.37487968 300.90056958 618.39826843 302.62535695 618.42172241 304.35014343 C618.46910759 307.89250382 618.51414705 311.43488445 618.55761719 314.97729492 C618.61299184 319.456375 618.67690914 323.93529131 618.74279213 328.41422749 C618.79340438 331.94830824 618.83826944 335.48244611 618.88163376 339.01662254 C618.90275594 340.66722481 618.92581322 342.31780382 618.9510994 343.96834755 C619.0826176 352.70401332 619.04717974 361.42247405 618.69287109 370.15307617 C618.65869048 371.30509632 618.65869048 371.30509632 618.62381935 372.4803896 C618.36137803 377.84741766 617.09257644 382.04820914 615 387 C614.34 387 613.68 387 613 387 C613.00444122 386.40249939 613.00888245 385.80499878 613.01345825 385.18939209 C613.20756291 357.53450139 613.23292216 329.88691748 612.5546875 302.23828125 C612.53298744 301.35002214 612.51128738 300.46176304 612.48892975 299.54658699 C612.3058573 292.09612543 612.11728427 284.64580122 611.92663574 277.19552994 C611.2930393 252.3323533 610.91902359 227.48913087 611.0078125 202.6171875 C611.01202084 201.41728306 611.01622917 200.21737862 611.02056503 198.98111343 C611.04284916 192.89688361 611.06806666 186.81266853 611.09429932 180.72845459 C611.24610436 145.07766977 611.13754693 109.54038132 609.125 73.9375 C609.05915585 72.75254503 609.05915585 72.75254503 608.99198151 71.54365158 C608.70666753 66.43256063 608.39804712 61.32337987 608.0703125 56.21484375 C607.99312988 54.97472534 607.91594727 53.73460693 607.83642578 52.45690918 C607.4141389 46.42889161 606.87930693 40.76145745 605 35 C603.02965198 33.4251892 603.02965198 33.4251892 601 33 C601 32.34 601 31.68 601 31 C599.82566406 31.02964844 598.65132812 31.05929687 597.44140625 31.08984375 C591.27123408 31.08864216 585.18215522 30.3987675 579.04949951 29.77429199 C556.89995116 27.55312814 534.82095093 26.57417242 512.5625 27.4375 C479.07630738 28.7074955 445.85564737 28.13666738 412.42464828 25.92079926 C389.11488426 24.37678006 365.88850985 23.63513155 342.52882004 23.45594025 C317.98264424 23.26764099 293.6485655 22.82922045 269.21624756 20.23364258 C261.58572787 19.42921336 253.94865812 18.68612073 246.3125 17.9375 C245.43587708 17.85094147 244.55925415 17.76438293 243.65606689 17.67520142 C220.20661482 15.3783665 196.70758208 14.5204092 173.16853333 13.68539429 C148.75114253 12.81247986 124.50126911 11.39841194 100.18359375 9 C99.34806976 8.9185675 98.51254578 8.83713501 97.65170288 8.75323486 C90.73684182 8.07861832 90.73684182 8.07861832 87.44924927 7.72784424 C69.61568551 5.82589446 51.8126801 5.57538213 33.89849854 5.39910889 C29.94853078 5.35834288 25.99869076 5.30759156 22.04882812 5.2578125 C14.36597467 5.16239313 6.68305655 5.0775837 -1 5 C-0.67 3.35 -0.34 1.7 0 0 Z " fill="#FFFFFF" transform="translate(143,309)"/>
<path d="M0 0 C0.90753021 0.00055389 1.81506042 0.00110779 2.75009155 0.00167847 C4.91981678 0.01439681 7.0883904 0.04424927 9.2578125 0.08203125 C11.04589339 0.10793535 12.83397989 0.1334538 14.62207031 0.15869141 C15.62725708 0.17337463 16.63244385 0.18805786 17.66809082 0.20318604 C21.70411889 0.25784251 25.74019906 0.30238267 29.77636719 0.34521484 C38.9617198 0.44281817 48.14697838 0.54708822 57.33219147 0.65705872 C59.01193324 0.67716778 60.69167667 0.69713906 62.37142181 0.71696472 C67.99248656 0.78361622 73.61345672 0.85555138 79.234375 0.93359375 C80.00732533 0.94416431 80.78027565 0.95473488 81.57664871 0.96562576 C91.75356092 1.1094944 101.90924056 1.4072509 112.078125 1.84765625 C119.74475424 2.17578043 127.13984898 2.25764357 134.78271484 1.52099609 C141.33539636 0.98969759 147.91187788 1.06404235 154.48266602 1.06469727 C156.9241688 1.06251193 159.36521715 1.04427456 161.80664062 1.02539062 C172.38562491 0.98907513 182.65187504 1.7675182 193.125 3.25 C193.455 2.26 193.785 1.27 194.125 0.25 C199.90961538 3.57307692 199.90961538 3.57307692 201 7 C201.061875 8.11375 201.061875 8.11375 201.125 9.25 C192.62877924 9.58648399 184.45645375 8.04099022 176.09375 6.671875 C163.359473 4.71705178 151.13561433 4.9766581 138.32937622 6.05055237 C125.27761246 7.10939877 112.50591404 7.27698755 99.43524551 6.47873497 C77.64580297 5.17167303 55.89000845 4.90580437 34.06689453 4.93432617 C30.19242754 4.93896012 26.31827444 4.93199018 22.44384766 4.91381836 C3.16538985 4.82427229 -15.97672991 4.94847314 -35.19539452 6.55695534 C-56.63297646 8.3381133 -77.97755232 8.49634203 -99.47265625 8.4375 C-100.32252169 8.43539465 -101.17238712 8.4332893 -102.04800606 8.43112016 C-116.23625598 8.39476048 -130.42424741 8.31718992 -144.61228943 8.23439026 C-157.81570691 8.15754405 -171.01904953 8.09509573 -184.22265625 8.0625 C-185.08174355 8.0601321 -185.94083085 8.05776421 -186.8259511 8.05532455 C-218.65278377 7.97382243 -250.33187066 9.08719175 -282.10833549 10.78828812 C-294.59325057 11.43256188 -306.98705936 11.47863449 -319.47265625 10.765625 C-331.08666237 10.17976227 -342.68481579 10.00888032 -354.3125 10 C-355.37845398 9.99866058 -356.44440796 9.99732117 -357.54266357 9.99594116 C-371.85234283 9.99978493 -385.99305116 10.47205917 -400.24099731 11.76602173 C-417.1134287 13.28934693 -434.00437292 13.94537793 -450.92740631 14.59768295 C-480.8371346 15.7543224 -510.65337919 17.50097831 -540.50244141 19.76806641 C-574.31341221 22.33469454 -607.94559394 24.52274442 -641.875 24.25 C-641.875 24.91 -641.875 25.57 -641.875 26.25 C-641.215 26.25 -640.555 26.25 -639.875 26.25 C-639.875 26.91 -639.875 27.57 -639.875 28.25 C-640.638125 27.940625 -641.40125 27.63125 -642.1875 27.3125 C-644.06289677 26.57106407 -645.96184652 25.88771783 -647.875 25.25 C-647.38 23.765 -647.38 23.765 -646.875 22.25 C-633.72687459 20.70071707 -620.61289183 19.76507213 -607.39260864 19.10275269 C-586.38809527 18.04049199 -565.43286961 16.57712191 -544.47436905 14.85477448 C-518.20768824 12.6976671 -491.97937209 10.91889776 -465.64187622 9.93995667 C-460.6777706 9.75544293 -455.713871 9.56570718 -450.75 9.375 C-449.75234619 9.33736542 -448.75469238 9.29973083 -447.72680664 9.26095581 C-432.54529563 8.67706329 -417.432199 7.65775416 -402.29223633 6.40258789 C-378.59418327 4.44169084 -355.34118473 3.30187758 -331.57421875 4.81640625 C-313.35625894 5.96865226 -295.59583368 6.26347824 -277.37052917 5.0287323 C-251.28278487 3.31408098 -225.26110406 2.99112589 -199.125 3.0625 C-198.21188073 3.06468041 -197.29876146 3.06686081 -196.35797191 3.06910729 C-182.19684396 3.10332422 -168.03595005 3.17297059 -153.875 3.25 C-138.77087108 3.33201337 -123.66681885 3.4024152 -108.5625 3.4375 C-107.65756632 3.43983108 -106.75263265 3.44216215 -105.82027674 3.44456387 C-78.79315958 3.50907505 -51.99712708 2.85109989 -25.03965187 0.73479176 C-16.69458003 0.10619208 -8.36586065 -0.00528101 0 0 Z " fill="#FFFFFF" transform="translate(861.875,1173.75)"/>
<path d="M0 0 C0.99073454 0.00017939 0.99073454 0.00017939 2.00148392 0.0003624 C56.96252097 0.0128112 112.04093245 0.80757037 166.9375 3.5625 C168.02795624 3.61362946 169.11841248 3.66475891 170.24191284 3.71743774 C191.06454623 4.72381515 213.3849056 6.40442844 232.9375 14.1875 C233.62465119 14.41369113 234.31180239 14.63988226 235.01977634 14.87292767 C237.6214441 16.01992037 239.09952187 16.99482662 240.9375 19.1875 C242.05925291 24.38718617 241.762988 29.52837702 241.54467773 34.8059082 C241.50807442 36.38155489 241.47450688 37.95727473 241.44381618 39.53304768 C241.3334022 44.4205935 241.14002518 49.30304709 240.9375 54.1875 C240.8811376 55.66591472 240.82524054 57.14434726 240.7698555 58.62279892 C240.40611274 68.07882459 239.89926764 77.52471744 239.35499883 86.97184157 C239.1263826 90.981491 238.90974128 94.99179044 238.6917572 99.00202942 C238.27879034 106.57050796 237.85692694 114.13845797 237.4309811 121.70621616 C236.67065642 135.21858137 235.92447676 148.73172847 235.18385214 162.24518663 C234.92570592 166.94854437 234.66314099 171.65162629 234.39681244 176.35452741 C233.54236166 191.47857882 232.79002357 206.59912016 232.30517578 221.73999023 C232.24081628 223.70500252 232.24081628 223.70500252 232.17515659 225.70971203 C231.89473385 235.21376314 232.0513815 244.5841843 232.75 254.0625 C232.8455685 255.53580299 232.93976923 257.00919523 233.03271484 258.48266602 C233.45116304 264.9655597 233.94599249 271.43903668 234.51953125 277.91015625 C235.63910883 290.60527822 236.14805617 303.1982829 236.1875 315.9375 C236.19267639 316.69586151 236.19785278 317.45422302 236.20318604 318.23556519 C236.34929375 345.23722572 236.34929375 345.23722572 230.9375 354.1875 C228.8359375 354.85546875 228.8359375 354.85546875 226.9375 355.1875 C227.26234375 353.64449219 227.26234375 353.64449219 227.59375 352.0703125 C232.56656352 325.365773 230.57028969 297.26593925 228.23611259 270.3666954 C227.24818503 258.85271743 226.6006688 247.40884651 226.59765625 235.8515625 C226.5964081 235.0068552 226.59515995 234.1621479 226.59387398 233.29184341 C226.62182387 202.48271729 228.75076071 171.67532347 230.44401371 140.92356849 C230.92766727 132.13075741 231.39729245 123.33721181 231.8663348 114.54361129 C232.5608917 101.53143213 233.26027377 88.51950945 233.97318077 75.50832176 C234.08428827 73.47931794 234.19485248 71.45028438 234.3053894 69.42124939 C234.58997913 64.24774994 234.87772751 59.07484882 235.20912361 53.90411758 C235.25489306 53.18909989 235.30066251 52.47408221 235.34781891 51.73739731 C235.47661462 49.74299497 235.60774352 47.74874369 235.73902225 45.75450325 C236.0187038 40.72812123 236.04860392 35.7198756 236 30.6875 C235.99323242 29.29337891 235.99323242 29.29337891 235.98632812 27.87109375 C235.97484389 25.64315142 235.95862185 23.41536794 235.9375 21.1875 C224.1762889 14.94225713 211.46018163 12.30466382 198.3125 10.6328125 C197.31576767 10.50588516 196.31903534 10.37895782 195.292099 10.2481842 C184.05215494 8.87847009 172.80629717 8.16974697 161.5 7.625 C160.30022522 7.56468597 159.10045044 7.50437195 157.86431885 7.44223022 C126.03837379 5.88604647 94.16870028 5.50970224 62.3125 5 C61.63890898 4.98920206 60.96531796 4.97840411 60.2713151 4.96727896 C50.48046386 4.81066046 40.68950349 4.66213572 30.8984375 4.51953125 C29.71495035 4.50207226 28.5314632 4.48461327 27.31211281 4.46662521 C-0.34766771 4.04382099 -0.34766771 4.04382099 -28 4.625 C-29.17788086 4.66939209 -30.35576172 4.71378418 -31.56933594 4.75952148 C-41.73799032 5.15205638 -51.90124141 5.6372936 -62.0625 6.1875 C-61.7325 5.1975 -61.4025 4.2075 -61.0625 3.1875 C-58.77181173 2.86605464 -56.48032493 2.55556552 -54.1875 2.25 C-52.27324219 1.98896484 -52.27324219 1.98896484 -50.3203125 1.72265625 C-33.61531402 -0.14488747 -16.7838944 -0.01300069 0 0 Z " fill="#FFFFFF" transform="translate(943.0625,320.8125)"/>
<path d="M0 0 C5.7339455 0.01733682 11.46747686 0.00702749 17.20140839 -0.01071739 C21.72818026 -0.02165086 26.25485644 -0.0180696 30.78163147 -0.01033401 C32.89583896 -0.00837112 35.01005592 -0.01064871 37.12425232 -0.01777267 C51.428418 -0.05555293 65.18613909 1.10439615 79.3046875 3.39111328 C80.14782092 3.52522141 80.99095434 3.65932955 81.85963726 3.79750156 C85.63148711 4.3977127 89.40118417 5.00913397 93.16870117 5.63598633 C132.74206186 12.20148513 172.76161884 14.53019009 212.82421875 15.88330078 C214.47010735 15.93895203 214.47010735 15.93895203 216.14924622 15.99572754 C217.77971138 16.05077454 217.77971138 16.05077454 219.44311523 16.10693359 C256.1521279 17.35129525 256.1521279 17.35129525 274.3046875 21.39111328 C275.3035498 21.60735352 276.30241211 21.82359375 277.33154297 22.04638672 C282.90431912 23.26001739 288.46052183 24.52739938 294.00073242 25.88208008 C302.27581658 27.71036772 310.499193 27.67303121 318.9296875 27.70361328 C319.71580414 27.70756104 320.50192078 27.71150879 321.31185913 27.71557617 C332.32193561 27.74142241 342.44380236 26.88328402 353.17578125 24.29345703 C361.61050493 22.29249739 369.61307176 22.06314442 377.3046875 26.39111328 C377.3046875 27.05111328 377.3046875 27.71111328 377.3046875 28.39111328 C376.3353125 28.22611328 375.3659375 28.06111328 374.3671875 27.89111328 C366.6142316 26.81275288 359.69172348 27.50902762 352.1171875 29.32861328 C344.15274232 31.10621871 336.4836064 32.19309735 328.3046875 32.39111328 C327.55606445 32.41157715 326.80744141 32.43204102 326.03613281 32.453125 C307.72390966 32.89610361 290.86713063 30.49437892 272.98266602 26.59960938 C262.11926244 24.25000123 251.23273018 22.35261579 240.1171875 21.82861328 C238.95316406 21.77229736 238.95316406 21.77229736 237.765625 21.71484375 C232.54431922 21.48027757 227.32271311 21.33693978 222.09765625 21.21533203 C173.75998778 20.08575414 125.80885001 17.06923094 78.14428711 8.76513672 C77.28780075 8.61604355 76.43131439 8.46695038 75.5488739 8.31333923 C73.95988131 8.03513958 72.37137939 7.75411385 70.78352356 7.46949768 C62.20188478 5.95705451 53.79243547 5.2380845 45.07861328 5.18237305 C44.09025042 5.17273088 43.10188755 5.16308872 42.0835743 5.15315437 C38.80573245 5.12361931 35.52791534 5.10217269 32.25 5.08251953 C31.10530998 5.07490915 29.96061996 5.06729877 28.78124237 5.05945778 C19.99742606 5.0034951 11.21365202 4.97378451 2.4296875 4.95361328 C1.13850258 4.95016151 -0.15268234 4.94670975 -1.48299408 4.94315338 C-54.26901154 4.81865152 -106.62044403 7.44441112 -159.1965332 12.04589844 C-171.55885094 13.10421257 -183.63757759 13.45418066 -196.03457642 13.08496094 C-212.78437058 12.64112749 -227.64753225 14.27108089 -243.82250977 18.52392578 C-255.74471143 21.63730123 -271.0488719 25.19075779 -282.6953125 19.39111328 C-282.6953125 18.40111328 -282.6953125 17.41111328 -282.6953125 16.39111328 C-281.3753125 16.06111328 -280.0553125 15.73111328 -278.6953125 15.39111328 C-278.6953125 16.05111328 -278.6953125 16.71111328 -278.6953125 17.39111328 C-265.79311533 17.64409754 -253.85021057 15.68922203 -241.3218689 12.89633179 C-225.34228861 9.35822574 -210.5292594 7.79412292 -194.1862793 8.19116211 C-192.60207129 8.22873924 -191.01784217 8.26543654 -189.43359375 8.30126953 C-188.24853493 8.32813591 -188.24853493 8.32813591 -187.03953552 8.35554504 C-177.51401029 8.5131056 -168.06031638 7.76200428 -158.5703125 7.01611328 C-154.93898321 6.73506696 -151.30748457 6.45634732 -147.67578125 6.18017578 C-146.77036591 6.11117569 -145.86495056 6.0421756 -144.93209839 5.97108459 C-136.84709741 5.37069367 -128.75919025 4.97336803 -120.6595459 4.63305664 C-119.7070376 4.59294338 -118.7545293 4.55283012 -117.77315712 4.51150131 C-115.93597006 4.43497918 -114.09874316 4.35940343 -112.26146507 4.28509903 C-102.27824485 3.88082561 -92.31004386 3.41035092 -82.34692383 2.65039062 C-54.8754335 0.57041401 -27.54622837 -0.08421911 0 0 Z " fill="#FFFFFF" transform="translate(665.6953125,1072.60888671875)"/>
<path d="M0 0 C0.95283875 0.10226898 1.90567749 0.20453796 2.88739014 0.30990601 C3.85444885 0.41372589 4.82150757 0.51754578 5.81787109 0.62451172 C6.79858582 0.7297113 7.77930054 0.83491089 8.78973389 0.94329834 C10.79748226 1.15878293 12.80517251 1.3748097 14.81280518 1.59136963 C32.62903428 3.5026332 50.45882897 4.89582358 68.33343506 6.13095093 C90.25688448 7.64695267 112.11847464 9.60202034 133.98046875 11.828125 C133.98046875 13.148125 133.98046875 14.468125 133.98046875 15.828125 C126.00145289 15.96973011 118.16820579 15.54467856 110.22265625 14.83984375 C109.01842514 14.73711151 107.81419403 14.63437927 106.57347107 14.52853394 C103.33770204 14.25213212 100.10228604 13.97196719 96.86697769 13.69023514 C90.72974881 13.15748962 84.59140904 12.6376072 78.453125 12.1171875 C77.77676435 12.05969645 77.10040371 12.00220539 76.40354729 11.94297218 C68.24395333 11.25051034 60.08430656 10.59245696 51.9140625 10.0390625 C51.0956488 9.98362778 50.27723511 9.92819305 49.434021 9.87107849 C47.83601247 9.76340376 46.2379903 9.65593143 44.63995361 9.54867554 C24.58811424 8.19834557 4.62829055 6.09989885 -15.34643555 3.89672852 C-37.97715647 1.41282722 -60.17585068 0.29538073 -82.93677807 1.1934576 C-97.18349983 1.75242946 -111.39876816 1.94490016 -125.6550808 1.87272453 C-129.33608269 1.85474293 -133.0170379 1.84485411 -136.69807434 1.83680725 C-147.14177862 1.81287132 -157.58541939 1.7774123 -168.02905273 1.73217773 C-205.82532163 1.55470683 -205.82532163 1.55470683 -243.59765625 2.73046875 C-244.42221502 2.77124983 -245.2467738 2.81203091 -246.0963192 2.85404778 C-260.7188473 3.60232998 -275.36246728 4.6767636 -289.89453125 6.4921875 C-291.06749756 6.63740341 -291.06749756 6.63740341 -292.26416016 6.78555298 C-308.43517501 8.85354068 -324.50092062 11.72577448 -340.57415771 14.43223572 C-348.97679051 15.83887838 -357.39152114 17.10940614 -365.83203125 18.265625 C-366.92588135 18.41708984 -368.01973145 18.56855469 -369.14672852 18.72460938 C-380.29727939 20.21665296 -391.32394897 20.98205204 -402.57421875 20.9609375 C-403.71939972 20.96189423 -404.86458069 20.96285095 -406.04446411 20.96383667 C-408.44272924 20.96451196 -410.84099628 20.96270357 -413.23925781 20.95849609 C-416.90564043 20.95310868 -420.57190222 20.95847851 -424.23828125 20.96484375 C-426.57942735 20.96418343 -428.92057338 20.96290323 -431.26171875 20.9609375 C-432.89776566 20.96397385 -432.89776566 20.96397385 -434.56686401 20.96707153 C-439.49347349 20.95187509 -444.17938679 20.87878796 -449.01953125 19.828125 C-449.34953125 20.818125 -449.67953125 21.808125 -450.01953125 22.828125 C-450.67953125 21.178125 -451.33953125 19.528125 -452.01953125 17.828125 C-450.37815918 16.18675293 -448.48557816 16.67831776 -446.22216797 16.65454102 C-445.19533905 16.64105118 -444.16851013 16.62756134 -443.11056519 16.61366272 C-441.98482086 16.60322433 -440.85907654 16.59278595 -439.69921875 16.58203125 C-437.30077876 16.54900845 -434.90234134 16.51579865 -432.50390625 16.48242188 C-428.73537642 16.43563043 -424.96684954 16.39139404 -421.19824219 16.35131836 C-397.89706224 16.0914134 -375.37068385 14.50392053 -352.40216064 10.54354858 C-347.06365897 9.62556743 -341.71910938 8.7440207 -336.375 7.859375 C-334.78365234 7.59522041 -334.78365234 7.59522041 -333.16015625 7.32572937 C-312.14967416 3.85135247 -291.11243972 0.9334416 -269.89453125 -0.921875 C-268.5811377 -1.03764893 -267.26774414 -1.15342285 -265.91455078 -1.27270508 C-245.09016644 -2.95870837 -224.2178368 -3.32113392 -203.33438873 -3.24703979 C-199.59391211 -3.23392355 -195.85347219 -3.22767345 -192.11297607 -3.22290039 C-183.49722061 -3.2106873 -174.88149572 -3.18904449 -166.26576233 -3.16667175 C-156.45973271 -3.14132854 -146.65371323 -3.12040937 -136.84765625 -3.109375 C-134.9688508 -3.10721859 -134.9688508 -3.10721859 -133.05208969 -3.10501862 C-115.90508808 -3.09281451 -98.80815146 -3.3011725 -81.67724609 -4.06079102 C-54.23324934 -5.20786235 -27.25679271 -2.92775055 0 0 Z " fill="#FFFFFF" transform="translate(578.01953125,749.171875)"/>
<path d="M0 0 C-0.33 1.32 -0.66 2.64 -1 4 C-6.55004544 5.87296222 -11.3805252 6.27251511 -17.21386719 6.21118164 C-18.55950493 6.20921028 -18.55950493 6.20921028 -19.93232727 6.2071991 C-22.88728546 6.20072996 -25.84198114 6.18028849 -28.796875 6.16015625 C-30.871274 6.15387514 -32.9456764 6.14863862 -35.02008057 6.14439392 C-40.48396312 6.13110575 -45.94773341 6.10670775 -51.41156006 6.07904053 C-60.11187762 6.03593421 -68.8122193 6.00589259 -77.51261139 5.9829998 C-80.52267537 5.97294584 -83.53263728 5.95586837 -86.54266357 5.93800354 C-95.48236737 5.89835434 -104.3954174 5.97055667 -113.32519531 6.42358398 C-114.43998575 6.47912618 -114.43998575 6.47912618 -115.57729721 6.53579044 C-129.4892571 7.33803247 -143.1446779 10.33348686 -156.72924805 13.28613281 C-173.82504914 16.97833203 -191.04852687 17.23053611 -208.35101318 14.54652405 C-226.09286733 11.80754887 -243.45278983 11.67490635 -261.3659668 11.98388672 C-284.18992161 12.36930337 -306.8403505 12.65032134 -329.5 9.5 C-330.34980438 9.38270538 -331.19960876 9.26541077 -332.07516479 9.14456177 C-335.26924633 8.70106953 -338.46304079 8.25563374 -341.6559906 7.80406189 C-360.06009104 5.28075047 -378.51278257 7.09496589 -396.91265869 8.71203613 C-409.18671609 9.78480099 -421.36639898 10.28724327 -433.6875 10.25 C-434.43676758 10.24895264 -435.18603516 10.24790527 -435.95800781 10.24682617 C-442.46247608 10.22739051 -448.93481424 10.17515768 -455.41015625 9.4921875 C-463.16587017 8.69144793 -470.96236712 8.8506805 -478.75 8.875 C-479.98120071 8.87632935 -479.98120071 8.87632935 -481.23727417 8.87768555 C-490.85755927 8.88984758 -500.45312451 9.00027747 -510.0625 9.5 C-529.09077896 10.47995985 -548.01008594 10.45700263 -566.9765625 8.53515625 C-567.81405029 8.45120605 -568.65153809 8.36725586 -569.5144043 8.28076172 C-571.16869913 8.09390001 -572.81937785 7.87156883 -574.46411133 7.61376953 C-581.33849722 6.63375327 -586.81372098 7.85363039 -593.4375 9.75 C-614.67855931 15.42385862 -636.96183678 18.73596835 -659 18 C-659 18.66 -659 19.32 -659 20 C-661.475 19.01 -661.475 19.01 -664 18 C-664 17.01 -664 16.02 -664 15 C-663.15793503 14.9193631 -663.15793503 14.9193631 -662.29885864 14.83709717 C-656.35819141 14.26596707 -650.41923179 13.67897526 -644.48095703 13.08349609 C-642.27626499 12.86440623 -640.07119117 12.64911853 -637.86572266 12.43798828 C-622.32751044 10.94705478 -607.23846339 8.98456422 -592.3125 4.25 C-583.15730968 1.69992416 -573.6808315 2.70593932 -564.39990234 4.00952148 C-553.84973035 5.3499697 -543.34394015 5.23274376 -532.7265625 5.16015625 C-530.6248706 5.15386571 -528.52317531 5.14863238 -526.42147827 5.14439392 C-520.93823595 5.13121807 -515.45510938 5.1068439 -509.97192383 5.07904053 C-501.1783737 5.03558272 -492.38479229 5.00605148 -483.59116745 4.9829998 C-480.5430438 4.97287703 -477.49501696 4.95582606 -474.44692993 4.93800354 C-457.79225173 4.86566372 -457.79225173 4.86566372 -450.1288147 5.75894165 C-433.37733347 7.6558115 -416.2551094 5.51945589 -399.5625 4 C-374.21212343 1.72245989 -350.41558351 1.51653663 -325.16015625 4.9296875 C-323.12164857 5.19656227 -321.0829386 5.46182591 -319.04412842 5.72637939 C-317.04146488 5.99444964 -315.04236202 6.28870509 -313.04345703 6.58349609 C-302.38490842 8.03435799 -291.7824288 8.12933747 -281.046875 8.0546875 C-280.2746353 8.04951488 -279.50239559 8.04434227 -278.70675468 8.03901291 C-271.44126255 7.98619709 -264.1761021 7.90988559 -256.91113281 7.80810547 C-238.85829612 7.5642719 -221.2885739 7.77184966 -203.4196167 10.58346558 C-190.90518058 12.53508922 -178.98463617 12.60311947 -166.5 10.25 C-165.49316162 10.07170654 -164.48632324 9.89341309 -163.44897461 9.7097168 C-161.35288738 9.33769105 -159.25774267 8.96031585 -157.16357422 8.57763672 C-152.96531166 7.81107635 -148.76254724 7.07154699 -144.55859375 6.33691406 C-142.62167805 5.99789068 -140.68542445 5.65505276 -138.75 5.30761719 C-137.86441406 5.15067383 -136.97882812 4.99373047 -136.06640625 4.83203125 C-135.30271729 4.69514893 -134.53902832 4.5582666 -133.75219727 4.41723633 C-116.93490256 1.86771476 -99.84592463 1.85210961 -82.87613487 1.95540047 C-79.86076244 1.97317775 -76.84544552 1.983206 -73.83003235 1.99131775 C-65.27441194 2.01546149 -56.71886883 2.05161556 -48.16333008 2.09594727 C-42.88832388 2.12275351 -37.61335847 2.13977193 -32.33829689 2.15081596 C-30.34285765 2.1569996 -28.34742624 2.16697186 -26.35202599 2.18089485 C-23.57276545 2.20015726 -20.79372269 2.2070118 -18.0144043 2.21118164 C-17.20137344 2.21994324 -16.38834259 2.22870483 -15.55067444 2.23773193 C-10.15364068 2.22850983 -5.17115694 0 0 0 Z " fill="#FFFFFF" transform="translate(1040,951)"/>
<path d="M0 0 C1.60488281 0.00483398 1.60488281 0.00483398 3.2421875 0.00976562 C4.35335938 0.01814453 5.46453125 0.02652344 6.609375 0.03515625 C8.29933594 0.04192383 8.29933594 0.04192383 10.0234375 0.04882812 C12.80213717 0.06060228 15.58072909 0.07704785 18.359375 0.09765625 C18.46894531 1.00902344 18.57851563 1.92039063 18.69140625 2.859375 C18.92923828 4.80263672 18.92923828 4.80263672 19.171875 6.78515625 C19.25808105 7.49341553 19.34428711 8.2016748 19.43310547 8.93139648 C19.94703102 13.06818547 20.51646634 17.18989459 21.16015625 21.30859375 C22.7686645 31.68698521 23.79536523 41.58544747 23.359375 52.09765625 C20.58461836 49.32289961 20.20139195 46.18611449 19.359375 42.47265625 C19.18567383 41.71428467 19.01197266 40.95591309 18.83300781 40.17456055 C16.10902446 27.85402983 15.00439118 15.71930324 15.359375 3.09765625 C12.2757108 3.23696763 9.19254083 3.38524906 6.109375 3.53515625 C4.80033203 3.59413086 4.80033203 3.59413086 3.46484375 3.65429688 C2.62050781 3.69619141 1.77617188 3.73808594 0.90625 3.78125 C0.13120117 3.81790771 -0.64384766 3.85456543 -1.44238281 3.89233398 C-3.59665729 4.02643368 -3.59665729 4.02643368 -5.4387207 4.60644531 C-8.74235945 5.34343624 -12.04933622 5.25435222 -15.41796875 5.2734375 C-17.06836972 5.29680643 -18.71876016 5.32092819 -20.36914062 5.34570312 C-22.89564223 5.37938981 -25.42179806 5.40927068 -27.94848633 5.42358398 C-41.77094554 5.51660188 -55.43343204 6.6597123 -69.18359375 7.953125 C-86.20486514 9.54952064 -103.21704298 10.75683375 -120.2890625 11.66015625 C-121.98610541 11.75049417 -121.98610541 11.75049417 -123.71743202 11.84265709 C-132.98459319 12.33366771 -142.252664 12.80645774 -151.52099609 13.27478027 C-181.33245525 14.78257929 -210.98860965 16.61384374 -240.640625 20.09765625 C-241.32200468 20.1776417 -242.00338436 20.25762714 -242.70541191 20.34003639 C-245.87726574 20.71273727 -249.04897617 21.08647818 -252.22024536 21.46412659 C-281.43328612 24.80077617 -309.2265773 22.65480459 -338.32714844 19.32055664 C-340.12060951 19.11650208 -340.12060951 19.11650208 -341.95030212 18.9083252 C-344.17248134 18.65338837 -346.39405512 18.39307449 -348.61476135 18.12561035 C-364.39554754 16.30050009 -380.25052317 15.94997581 -396.12109375 15.78125 C-397.79788113 15.76059167 -399.47466434 15.73959356 -401.15144348 15.71827698 C-405.49291542 15.66396994 -409.83442685 15.6141714 -414.17596436 15.56542969 C-418.63492199 15.51453233 -423.09382469 15.45920836 -427.55273438 15.40429688 C-436.24865102 15.29783902 -444.94461464 15.19616121 -453.640625 15.09765625 C-453.640625 14.43765625 -453.640625 13.77765625 -453.640625 13.09765625 C-443.20856464 12.28281495 -432.83089854 11.92192619 -422.3671875 11.89453125 C-421.61675549 11.89170387 -420.86632347 11.8888765 -420.09315109 11.88596344 C-416.10636823 11.87109718 -412.11962025 11.8617938 -408.1328125 11.85742188 C-404.92012917 11.85307987 -401.70772086 11.83933751 -398.49511719 11.81640625 C-371.95910776 11.63106143 -345.93890567 13.08049999 -319.63549805 16.78515625 C-294.02163144 20.38526598 -269.0048076 19.74914323 -243.41299438 16.52883911 C-216.23941127 13.11099019 -189.09326014 11.21846898 -161.75720215 9.74871826 C-153.44312727 9.30082014 -145.12965111 8.84193189 -136.81640625 8.37890625 C-135.90651066 8.32827026 -134.99661507 8.27763428 -134.05914688 8.22546387 C-119.92718473 7.43501011 -105.80388827 6.54312439 -91.68359375 5.56640625 C-90.81945673 5.50739639 -89.95531971 5.44838654 -89.06499672 5.3875885 C-79.55059868 4.73460401 -70.05876255 3.96617615 -60.56787109 3.02954102 C-53.62779731 2.347194 -46.73927379 1.79441826 -39.76171875 1.71875 C-38.8908815 1.70175552 -38.02004425 1.68476105 -37.12281799 1.66725159 C-34.44132013 1.61572066 -31.7598271 1.57447453 -29.078125 1.53515625 C-26.33578108 1.49095995 -23.59354094 1.44435552 -20.85133362 1.39234924 C-19.1697256 1.36079054 -17.48802374 1.33378319 -15.80625916 1.31211853 C-10.40823331 1.21538412 -5.38821122 -0.0286607 0 0 Z " fill="#FFFFFF" transform="translate(995.640625,128.90234375)"/>
<path d="M0 0 C0.9047406 -0.00081573 1.8094812 -0.00163147 2.74163818 -0.00247192 C5.28357289 -0.00220986 7.82528936 0.00647399 10.3671875 0.01953125 C11.50631592 0.02132889 11.50631592 0.02132889 12.66845703 0.02316284 C17.89117099 0.0705855 17.89117099 0.0705855 20.125 1.1875 C20.125 2.1775 20.125 3.1675 20.125 4.1875 C19.49972412 4.19558685 18.87444824 4.20367371 18.23022461 4.21200562 C-19.87003984 4.66155233 -19.87003984 4.66155233 -57.9375 6.1875 C-83.51881355 7.58267519 -109.04742598 8.23402989 -134.66796875 8.17578125 C-136.29051207 8.17270068 -137.9130554 8.16962865 -139.53559875 8.16656494 C-146.82777114 8.15121428 -154.11968255 8.12881669 -161.41170216 8.07817078 C-184.02214186 7.92957772 -206.4856935 8.70187502 -229.05569458 10.02327347 C-233.02015529 10.2542061 -236.98497321 10.47872009 -240.9497757 10.70369625 C-257.49778412 11.64342116 -274.04436978 12.6079623 -290.59033203 13.58300781 C-314.66824903 15.00026326 -338.74560163 16.34109316 -362.84375 17.3671875 C-363.81078857 17.40944458 -364.77782715 17.45170166 -365.77416992 17.49523926 C-384.476327 18.30442858 -403.15866166 18.41295626 -421.875 18.1875 C-422.205 17.1975 -422.535 16.2075 -422.875 15.1875 C-420.9375 14.625 -420.9375 14.625 -418.875 14.1875 C-418.545 14.5175 -418.215 14.8475 -417.875 15.1875 C-415.83917777 15.18911155 -413.80329486 15.11499799 -411.77001953 15.01318359 C-411.12408089 14.98223917 -410.47814224 14.95129475 -409.8126297 14.91941261 C-407.62740775 14.81334481 -405.44264912 14.6996491 -403.2578125 14.5859375 C-401.69235191 14.50814219 -400.12687076 14.43075976 -398.56137085 14.35375977 C-394.27382861 14.1413321 -389.9866685 13.92192333 -385.69955444 13.70104218 C-382.09268513 13.51593625 -378.48563181 13.33455831 -374.878582 13.15300941 C-346.03998926 11.6998553 -317.20670696 10.14578421 -288.375 8.5625 C-286.94736202 8.48415546 -286.94736202 8.48415546 -285.49088287 8.40422821 C-279.94093943 8.09946326 -274.39109619 7.79294784 -268.84134674 7.48467064 C-266.16469437 7.33640525 -263.48795905 7.18970434 -260.81121826 7.04304504 C-253.14710927 6.61981134 -245.48794975 6.17471248 -237.83251953 5.61450195 C-212.38493009 3.78831699 -186.93015451 3.77953268 -161.42694092 3.64489746 C-150.55278554 3.58605287 -139.67872106 3.51149429 -128.8046875 3.43359375 C-127.05433008 3.42122649 -127.05433008 3.42122649 -125.26861191 3.40860939 C-98.56325524 3.21352625 -71.83679107 2.90173444 -45.17486572 1.25674438 C-30.11494609 0.34447664 -15.08654722 -0.00648119 0 0 Z " fill="#FFFFFF" transform="translate(959.875,170.8125)"/>
<path d="M0 0 C1.32 0.33 2.64 0.66 4 1 C4.01458252 1.99402832 4.02916504 2.98805664 4.04418945 4.01220703 C4.1042683 7.87089009 4.18137591 11.72910841 4.26245117 15.58740234 C4.29475616 17.22534384 4.32304383 18.86337181 4.34643555 20.50146484 C4.50487901 31.33630065 5.21354239 42.04546662 6.32788086 52.82446289 C6.46077137 54.13216487 6.59366188 55.43986685 6.73057938 56.78719616 C7.64250109 65.72620723 8.60770093 74.65918214 9.58691406 83.59106445 C14.29621904 126.64448143 17.86233482 169.7511375 21.12453127 212.93600094 C21.75176781 221.23149407 22.39121999 229.52602518 23.03161716 237.82051086 C28.28293003 305.84342306 28.28293003 305.84342306 30.11456299 337.73466492 C30.92697096 361.75505906 30.92697096 361.75505906 36 385 C36.1953125 387.5546875 36.1953125 387.5546875 36.125 389.875 C36.10695312 390.65617187 36.08890625 391.43734375 36.0703125 392.2421875 C36.04710937 392.82226562 36.02390625 393.40234375 36 394 C34.68 394 33.36 394 32 394 C25.97209817 365.66580157 24.87514568 336.65575698 22.94088745 307.82403564 C21.39524509 284.83412827 19.5713581 261.87289545 17.67269897 238.90985107 C16.27805672 222.03870403 14.91056374 205.1678185 13.71484375 188.28125 C13.6640309 187.56468168 13.61321804 186.84811337 13.5608654 186.10983086 C13.35745583 183.23999088 13.15437239 180.37012794 12.95148754 177.50025082 C10.42159588 141.72624226 7.05432518 106.08374764 3.17749023 70.42822266 C1.80560204 57.69319954 0.54951898 45.06091834 0.3125 32.25 C0.2794887 30.90818417 0.24570143 29.56638724 0.21118164 28.22460938 C-0.01042968 18.816777 -0.12754494 9.40998233 0 0 Z " fill="#FFFFFF" transform="translate(72,315)"/>
<path d="M0 0 C1.32 0.33 2.64 0.66 4 1 C4.00364563 1.94066315 4.00729126 2.88132629 4.01104736 3.85049438 C4.42730369 104.94843237 7.38510687 206.09912871 14.32937622 317.26400757 C15.78463338 339.85790596 16.14760063 362.36941698 16 385 C14.68 385 13.36 385 12 385 C11.99589111 384.00677734 11.99178223 383.01355469 11.98754883 381.99023438 C11.81277121 352.9302837 10.35678611 323.99951999 8.625 295 C6.8827139 265.75811388 5.36100918 236.52551051 4.3125 207.25 C4.28284653 206.42260693 4.25319305 205.59521385 4.22264099 204.74274826 C3.87808535 195.09031395 3.54851807 185.43740579 3.22729683 175.7841692 C3.0560638 170.64582247 2.87990051 165.50766901 2.69970703 160.36962891 C2.67543546 159.67747347 2.65116388 158.98531803 2.62615681 158.27218819 C2.57788697 156.89625523 2.52960983 155.52032254 2.48132515 154.14439011 C1.98955561 140.10964352 1.53191552 126.07399176 1.09570312 112.03741455 C1.00689027 109.21868243 0.91446713 106.40010102 0.8203125 103.58154297 C-0.32520079 69.06424165 -0.10078152 34.53149631 0 0 Z " fill="#FFFFFF" transform="translate(852,335)"/>
<path d="M0 0 C2.63216059 0.00503343 5.26432213 0.00959303 7.89648438 0.01367188 C14.24351089 0.02451216 20.59050074 0.04109924 26.9375 0.0625 C26.92417633 1.01751404 26.92417633 1.01751404 26.9105835 1.99182129 C26.34727659 44.63951412 27.70527557 86.99639323 30.09766388 129.57479668 C30.89254773 143.73198039 31.5090287 157.88901311 31.9375 172.0625 C31.96838715 173.08380005 31.99927429 174.1051001 32.03109741 175.15734863 C32.20538871 181.06648614 32.35919359 186.97584584 32.49511719 192.88598633 C32.56410068 195.81803488 32.64151371 198.74979914 32.71875 201.68164062 C32.76353348 203.58332133 32.80782417 205.48501372 32.8515625 207.38671875 C32.87546051 208.24504807 32.89935852 209.10337738 32.92398071 209.98771667 C33.03057401 215.12624563 32.6944493 219.977044 31.9375 225.0625 C30.6175 225.0625 29.2975 225.0625 27.9375 225.0625 C27.12264922 219.32094865 26.77746422 213.73982754 26.7265625 207.9453125 C26.70035918 206.07600219 26.67363774 204.20669909 26.64648438 202.33740234 C26.63319092 201.34069519 26.61989746 200.34398804 26.60620117 199.31707764 C26.27603739 175.6730164 25.42287927 152.0613743 24.4375 128.4375 C24.38792522 127.24681789 24.38792522 127.24681789 24.33734894 126.0320816 C24.14357135 121.38313246 23.94818811 116.73425321 23.75140953 112.08543015 C23.68802049 110.58696567 23.62479924 109.08849408 23.5617466 107.59001541 C23.26884187 100.63091643 22.97330061 93.67233983 22.62329102 86.71582031 C21.77913939 69.49469384 21.82557128 52.30043908 21.875 35.0625 C21.895625 24.8325 21.91625 14.6025 21.9375 4.0625 C-19.6425 4.5575 -19.6425 4.5575 -62.0625 5.0625 C-62.3925 7.0425 -62.7225 9.0225 -63.0625 11.0625 C-63.3925 11.0625 -63.7225 11.0625 -64.0625 11.0625 C-64.1875 7.6875 -64.1875 7.6875 -64.0625 4.0625 C-59.57477514 -0.42522486 -50.03820023 0.73510216 -44.00390625 0.50390625 C-42.91920547 0.46165421 -41.8345047 0.41940216 -40.7169342 0.37586975 C-27.14660885 -0.10291451 -13.57669038 -0.04594627 0 0 Z " fill="#FFFFFF" transform="translate(497.0625,492.9375)"/>
<path d="M0 0 C-0.31783447 1.26215332 -0.63566895 2.52430664 -0.96313477 3.82470703 C-2.13937401 9.16090527 -2.43257331 14.35424508 -2.58984375 19.8046875 C-2.62665756 20.90118622 -2.66347137 21.99768494 -2.70140076 23.12741089 C-3.24023216 40.8078302 -3.35272123 58.50121053 -3.53222656 76.18804932 C-3.58330753 81.14362418 -3.63853198 86.09915292 -3.69335938 91.0546875 C-3.79952156 100.70308521 -3.90125476 110.35152372 -4 120 C-5.32 120 -6.64 120 -8 120 C-9.24395029 116.26814912 -9.14268482 112.80452145 -9.1328125 108.91796875 C-9.13417709 108.09237961 -9.13554169 107.26679047 -9.13694763 106.41618347 C-9.13899632 103.67325003 -9.13258725 100.93042276 -9.125 98.1875 C-9.12378143 97.24537659 -9.12256287 96.30325317 -9.12130737 95.33258057 C-9.09826887 80.01020638 -8.88890381 64.69374561 -8.5625 49.375 C-8.5429425 48.42329926 -8.52338501 47.47159851 -8.50323486 46.49105835 C-7.86202252 16.0598322 -7.86202252 16.0598322 -6 4 C-12.59864013 5.22284745 -19.19643863 6.45016229 -25.79370117 7.68041992 C-28.03277268 8.09743712 -30.27202701 8.51347405 -32.51147461 8.9284668 C-48.69233018 11.89170996 -48.69233018 11.89170996 -64.7355957 15.50854492 C-67 16 -67 16 -70 16 C-69.99214478 16.93283813 -69.99214478 16.93283813 -69.98413086 17.88452148 C-69.73954496 52.58785504 -70.53152763 87.32799812 -72 122 C-73.32 122 -74.64 122 -76 122 C-77.5814389 118.83712219 -77.03995551 115.46507062 -76.94921875 112 C-76.93103088 111.16055344 -76.91284302 110.32110687 -76.894104 109.45622253 C-76.83093617 106.6373179 -76.75948301 103.81869243 -76.6875 101 C-76.64062712 99.02514836 -76.5938352 97.05029481 -76.54711914 95.07543945 C-75.90982285 69.04421838 -74.94815914 43.02137561 -74 17 C-75.03060547 17.41572266 -75.03060547 17.41572266 -76.08203125 17.83984375 C-76.98308594 18.20207031 -77.88414062 18.56429687 -78.8125 18.9375 C-79.70582031 19.29714844 -80.59914063 19.65679688 -81.51953125 20.02734375 C-83.3270909 20.73613486 -85.15807409 21.3860247 -87 22 C-85.97424768 19.22580621 -85.32502454 18.17788505 -82.6875 16.734375 C-81.3571875 16.24710938 -81.3571875 16.24710938 -80 15.75 C-79.113125 15.41484375 -78.22625 15.0796875 -77.3125 14.734375 C-75 14 -75 14 -73 14 C-73 10.37 -73 6.74 -73 3 C-72.34 3 -71.68 3 -71 3 C-70.67 6.3 -70.34 9.6 -70 13 C-69.14172607 12.78384033 -68.28345215 12.56768066 -67.39916992 12.3449707 C-52.35294919 8.57515497 -37.31074522 4.87044843 -22.0625 2 C-20.45121216 1.68929565 -20.45121216 1.68929565 -18.80737305 1.37231445 C-12.4594035 0.22028484 -6.44332211 -0.20742927 0 0 Z " fill="#FFFFFF" transform="translate(663,586)"/>
<path d="M0 0 C1.875 0.25 1.875 0.25 4 1 C5.25 3.0625 5.25 3.0625 6 5 C5.34 5 4.68 5 4 5 C2.0776724 41.97157453 1.77449311 78.92948183 1.75323486 115.94423294 C1.75006078 119.5558412 1.74298609 123.16742203 1.73486328 126.77902222 C1.68223055 153.26645266 1.97101397 179.7155943 2.921875 206.1875 C2.9628405 207.34085468 3.003806 208.49420937 3.04601288 209.68251419 C3.76584892 229.49625845 5.09475306 249.22951683 6.82427979 268.97839355 C10.50348808 311.3065412 10.50348808 311.3065412 6 319 C5.34 319 4.68 319 4 319 C4.01243744 318.31857437 4.02487488 317.63714874 4.03768921 316.93507385 C4.28835807 300.92825526 3.64029144 285.28224693 1.97665405 269.36621094 C-3.09864149 219.88086817 -3.17085068 170.43885422 -3.1875 120.75 C-3.18815586 119.53394073 -3.18881172 118.31788147 -3.18948746 117.06497192 C-3.22988246 24.06262435 -3.22988246 24.06262435 0 0 Z " fill="#FFFFFF" transform="translate(148,875)"/>
<path d="M0 0 C0.639375 0.53625 1.27875 1.0725 1.9375 1.625 C1.9375 2.285 1.9375 2.945 1.9375 3.625 C2.88625 3.5425 3.835 3.46 4.8125 3.375 C13.72814479 3.42892527 21.73613779 8.58441384 27.9375 14.625 C34.51264261 22.42984485 37.50500642 29.53106865 37.23828125 39.79296875 C36.35249516 48.13316241 32.63702214 53.93145798 26.56640625 59.58203125 C14.14857555 69.23214337 0.12803142 70.9588194 -15.0625 69.625 C-22.9658992 68.00154654 -29.67265865 63.35665354 -34.375 56.79296875 C-35.36486532 55.12257102 -36.22017551 53.37444316 -37.0625 51.625 C-37.41957031 50.89925781 -37.77664062 50.17351563 -38.14453125 49.42578125 C-39.34740169 45.75574675 -39.40453557 42.25855853 -39.375 38.4375 C-39.36936035 37.68082031 -39.3637207 36.92414062 -39.35791016 36.14453125 C-39.09916364 24.17558353 -34.83155412 15.48009649 -26.625 6.8125 C-19.46772474 -0.01224699 -9.58586739 -4.30385883 0 0 Z M-27.1171875 15.078125 C-32.66005078 22.33504641 -35.48887067 30.37460714 -35 39.5625 C-33.82118703 48.18926762 -29.88807492 54.84230569 -23.08984375 60.22265625 C-15.56854007 65.4252536 -6.90000906 66.50479719 2 64.9375 C14.16630042 62.0407618 23.10312134 57.23684674 29.9375 46.625 C32.63265809 41.96972694 32.66778872 36.85873584 31.9375 31.625 C28.43366685 21.11350056 20.56359749 13.74856802 10.9375 8.625 C7.64864369 7.40316232 4.34937681 6.43701244 0.9375 5.625 C0.38320313 6.36234375 -0.17109375 7.0996875 -0.7421875 7.859375 C-3.04381005 10.60272308 -5.37241892 12.6733545 -8.1875 14.875 C-9.49074219 15.90367187 -9.49074219 15.90367187 -10.8203125 16.953125 C-13.0625 18.625 -13.0625 18.625 -15.0625 19.625 C-15.0625 18.965 -15.0625 18.305 -15.0625 17.625 C-14.51078125 17.39039063 -13.9590625 17.15578125 -13.390625 16.9140625 C-10.46924236 15.29651842 -8.26675503 13.26049805 -5.8125 11 C-4.92046875 10.18273437 -4.0284375 9.36546875 -3.109375 8.5234375 C-2.43390625 7.89695312 -1.7584375 7.27046875 -1.0625 6.625 C-1.7225 5.305 -2.3825 3.985 -3.0625 2.625 C-13.96971893 1.63343464 -20.27083325 7.01517121 -27.1171875 15.078125 Z " fill="#FFFFFF" transform="translate(280.0625,932.375)"/>
<path d="M0 0 C0.68033295 0.04347565 1.36066589 0.08695129 2.06161499 0.13174438 C13.30550117 0.86800117 13.30550117 0.86800117 14.5 2.0625 C14.64633469 3.72667997 14.72745681 5.39667121 14.78125 7.06640625 C14.81806885 8.11062744 14.8548877 9.15484863 14.89282227 10.23071289 C14.94587524 11.91088501 14.94587524 11.91088501 15 13.625 C15.34728791 23.45219549 15.8129103 33.25319811 16.5 43.0625 C15.18 42.7325 13.86 42.4025 12.5 42.0625 C10.84055725 29.66112873 10.2503955 17.57045873 10.5 5.0625 C9.654375 5.07410156 8.80875 5.08570313 7.9375 5.09765625 C6.2359375 5.11119141 6.2359375 5.11119141 4.5 5.125 C3.38625 5.13660156 2.2725 5.14820313 1.125 5.16015625 C-2.5 5.0625 -2.5 5.0625 -6.23291016 4.5690918 C-10.28784656 4.0463183 -14.31250943 3.88562235 -18.3984375 3.859375 C-19.50820702 3.84905746 -19.50820702 3.84905746 -20.64039612 3.83853149 C-23.05198105 3.821321 -25.46335664 3.81505795 -27.875 3.8125 C-28.70758331 3.81082825 -29.54016663 3.80915649 -30.39797974 3.80743408 C-45.08538208 3.80568406 -59.54641152 4.72004306 -74.15234375 6.2109375 C-74.79871796 6.27681564 -75.44509216 6.34269379 -76.11105347 6.41056824 C-76.77920074 6.47867203 -77.44734802 6.54677582 -78.13574219 6.61694336 C-78.83203735 6.68767059 -79.52833252 6.75839783 -80.24572754 6.83126831 C-81.82748843 6.99351722 -83.40892613 7.15893332 -84.9901123 7.32669067 C-99.95052196 8.89229489 -114.76157377 9.34777416 -129.79980469 9.26831055 C-133.39264995 9.2499096 -136.98523714 9.24780293 -140.578125 9.24804688 C-152.91891292 9.22864012 -165.19312552 9.00675869 -177.5 8.0625 C-177.40912109 8.92939453 -177.31824219 9.79628906 -177.22460938 10.68945312 C-176.8858865 13.93945566 -176.550867 17.18979757 -176.21826172 20.44042969 C-176.07421156 21.840971 -175.92873339 23.24136627 -175.78173828 24.64160156 C-174.28036149 38.960855 -174.28036149 38.960855 -174.5 46.0625 C-176.81654132 44.41850293 -178.29264479 43.0023811 -178.91796875 40.16796875 C-179.63185006 32.26139648 -179.61247996 24.36828289 -179.5625 16.4375 C-179.55747197 15.03776203 -179.55291138 13.6380223 -179.54882812 12.23828125 C-179.53713167 8.84630831 -179.52074086 5.45442767 -179.5 2.0625 C-179.17 3.0525 -178.84 4.0425 -178.5 5.0625 C-177.47302002 4.90185059 -176.44604004 4.74120117 -175.38793945 4.57568359 C-169.04485728 3.78803443 -162.67561089 3.88645985 -156.29296875 3.8515625 C-154.1765302 3.83337468 -152.06011886 3.81302201 -149.94370079 3.79260063 C-147.71482484 3.7711863 -145.48593866 3.75119389 -143.25704956 3.73120117 C-113.05826826 3.53499465 -113.05826826 3.53499465 -82.9375 1.5625 C-82.24806305 1.49503571 -81.5586261 1.42757141 -80.84829712 1.35806274 C-77.75153097 1.04947875 -74.65690932 0.72404986 -71.56298828 0.38818359 C-47.90251088 -2.12760445 -23.71186265 -1.54282227 0 0 Z " fill="#FFFFFF" transform="translate(201.5,18.9375)"/>
<path d="M0 0 C1.76923828 0.01353516 1.76923828 0.01353516 3.57421875 0.02734375 C6.38306769 0.05017992 9.19139285 0.08250478 12 0.125 C12 1.115 12 2.105 12 3.125 C7.81648053 3.88091054 3.70547223 4.3481092 -0.53515625 4.6328125 C-1.88564204 4.72902419 -3.2360618 4.82616583 -4.58642578 4.92407227 C-5.31057678 4.97636993 -6.03472778 5.0286676 -6.78082275 5.08255005 C-31.86058874 6.92312833 -56.80916757 9.99666241 -81.77783203 12.9367981 C-112.11245529 16.49565077 -141.84587259 17.94614188 -172.39990234 16.4831543 C-185.92473091 15.87829694 -199.46518004 16.03729555 -213 16.125 C-213.33 17.445 -213.66 18.765 -214 20.125 C-214.66 20.125 -215.32 20.125 -216 20.125 C-215.61704951 17.90388714 -215.13079812 16.32119717 -213.875 14.4375 C-208.07523468 10.37766427 -198.16567224 12.03696084 -191.4765625 12.09765625 C-190.13073084 12.1046327 -188.78489498 12.11083591 -187.4390564 12.11631775 C-181.7755331 12.14041549 -176.1121177 12.1748507 -170.44873047 12.22094727 C-138.38901082 12.4716614 -106.95994322 10.30090699 -75.1472168 6.39575195 C-20.38346248 -0.31433572 -20.38346248 -0.31433572 0 0 Z " fill="#FFFFFF" transform="translate(1100,718.875)"/>
<path d="M0 0 C1.19109375 0.00241699 1.19109375 0.00241699 2.40625 0.00488281 C8.41842577 0.13013647 14.23535071 0.74833399 19.25 4.375 C20.5 6.515625 20.5 6.515625 21.25 8.375 C20.64671875 8.17003906 20.0434375 7.96507812 19.421875 7.75390625 C18.62265625 7.48449219 17.8234375 7.21507812 17 6.9375 C16.21109375 6.67066406 15.4221875 6.40382813 14.609375 6.12890625 C5.56168514 3.23783979 -4.6336433 2.83874128 -13.375 6.921875 C-22.36009327 12.41933338 -29.19303481 20.14934564 -33.1875 29.875 C-34.58789537 38.5885712 -32.42118739 43.70016266 -27.5390625 50.9921875 C-25.86220941 53.34956585 -25.86220941 53.34956585 -24.0234375 55.0703125 C-22.75 56.375 -22.75 56.375 -22.75 58.375 C-22.04488281 58.65085938 -21.33976563 58.92671875 -20.61328125 59.2109375 C-18.69842422 59.98941962 -16.79930074 60.80773208 -14.91796875 61.6640625 C-4.79578918 66.20113382 0.81183955 66.40515499 11.234375 62.62109375 C21.34795136 58.44203823 29.82695592 51.78807699 35.50390625 42.2734375 C37.07671142 38.27143063 37.0449662 34.33154303 35.4453125 30.39453125 C32.49219852 25.29277228 28.45364564 21.42338903 24.140625 17.453125 C22.21797217 15.33979586 21.62682685 14.16351867 21.25 11.375 C28.78457367 13.07027908 34.08445706 18.21819951 38.1875 24.5625 C41.38191565 29.87930706 41.95691973 35.26519375 41.25 41.375 C37.94974288 51.9716087 28.62130366 59.87365294 19.21484375 65.04296875 C8.879141 70.33012654 -1.3392628 72.63968148 -12.7890625 69.3515625 C-21.01179483 66.5637288 -26.78830806 62.6153949 -31.75 55.375 C-32.26175781 54.64410156 -32.77351562 53.91320312 -33.30078125 53.16015625 C-38.33957174 45.53809852 -38.43179717 38.43889175 -37.75 29.375 C-35.28028268 18.56164306 -26.05754439 9.71792812 -17.20703125 3.71484375 C-11.49863788 0.60199967 -6.37388776 -0.01336805 0 0 Z " fill="#FFFFFF" transform="translate(734.75,12.625)"/>
<path d="M0 0 C0.03963867 0.8979126 0.07927734 1.7958252 0.12011719 2.72094727 C1.31006011 28.60878005 3.41280189 54.22172866 8.484375 79.6875 C9.02722992 83.17493163 9.08989139 86.47625738 9 90 C7.02 89.505 7.02 89.505 5 89 C2.64996581 81.12625518 1.0913257 73.3179599 -0.0625 65.1875 C-0.23168945 64.00679932 -0.40087891 62.82609863 -0.57519531 61.60961914 C-3.31977707 41.9784561 -4.30880171 22.82506984 -4 3 C-4.55786194 3.1550853 -5.11572388 3.31017059 -5.69049072 3.46995544 C-8.12958926 4.02974142 -10.45788272 4.28142877 -12.95214844 4.48071289 C-13.93286316 4.56072037 -14.91357788 4.64072784 -15.92401123 4.72315979 C-17.5007663 4.84666054 -17.5007663 4.84666054 -19.109375 4.97265625 C-20.73229462 5.1037101 -20.73229462 5.1037101 -22.38800049 5.2374115 C-25.84175656 5.51558277 -29.29586348 5.78909753 -32.75 6.0625 C-35.09247253 6.25034436 -37.43492078 6.43849172 -39.77734375 6.62695312 C-45.51795215 7.08815105 -51.2588555 7.54552697 -57 8 C-57 8.66 -57 9.32 -57 10 C-57.66 10 -58.32 10 -59 10 C-59.11670865 21.94318499 -59.02401668 33.87254082 -58.7421875 45.8125 C-58.71791183 46.85442001 -58.69363617 47.89634003 -58.66862488 48.96983337 C-58.54354371 54.27514996 -58.41037952 59.5801348 -58.26782227 64.88500977 C-58.2187454 66.88297116 -58.16982927 68.8809365 -58.12109375 70.87890625 C-58.09405365 71.79482544 -58.06701355 72.71074463 -58.03915405 73.65441895 C-57.92468062 78.57557147 -58.14152609 83.15017986 -59 88 C-59.99 88 -60.98 88 -62 88 C-63.31061377 85.37877247 -63.12709548 83.44220378 -63.12939453 80.5065918 C-63.13254669 79.35325851 -63.13569885 78.19992523 -63.13894653 77.01164246 C-63.1369223 75.75354263 -63.13489807 74.49544281 -63.1328125 73.19921875 C-63.13376923 71.89789505 -63.13472595 70.59657135 -63.13571167 69.2558136 C-63.13719027 66.4840884 -63.13503545 63.7123953 -63.13037109 60.94067383 C-63.12477854 57.4535195 -63.12797109 53.96644328 -63.13382339 50.47929192 C-63.1557666 34.96063554 -62.9543841 19.49298016 -62 4 C-61.24428711 3.94593994 -60.48857422 3.89187988 -59.70996094 3.83618164 C-53.57373433 3.38242041 -47.45023904 2.86278174 -41.328125 2.24609375 C-39.98958674 2.11259603 -38.65104503 1.97913289 -37.3125 1.84570312 C-35.28794615 1.64349108 -33.26377385 1.43894398 -31.24023438 1.22680664 C-20.79405991 0.13718012 -10.5009598 -0.16860834 0 0 Z " fill="#FFFFFF" transform="translate(232,624)"/>
<path d="M0 0 C1.72089844 -0.00386719 1.72089844 -0.00386719 3.4765625 -0.0078125 C6.375 0.125 6.375 0.125 8.375 1.125 C8.045 2.115 7.715 3.105 7.375 4.125 C8.17164063 4.28355469 8.96828125 4.44210937 9.7890625 4.60546875 C20.99693044 7.07338128 20.99693044 7.07338128 25.375 12.125 C28.35794619 17.55373349 29.31353131 22.93965766 27.94140625 29.05859375 C25.10324944 38.10191328 18.31820994 43.84101679 10.3984375 48.58203125 C1.47097489 53.13803607 -9.01942576 56.40411147 -18.9453125 53.4296875 C-23.69426082 51.34435595 -26.15302475 48.77231347 -28.625 44.125 C-31.39370132 35.81889605 -30.32342212 25.58101638 -26.94921875 17.625 C-22.82565834 9.84010719 -17.3509953 3.4006044 -8.80078125 0.5078125 C-5.84822016 -0.01166863 -2.9962295 -0.0067635 0 0 Z M-16.57421875 11.796875 C-23.08370408 19.18669072 -24.99168173 27.34882766 -24.90625 36.94921875 C-24.44292816 42.18089455 -22.30594618 44.64181219 -18.5 48 C-11.25663188 50.83436144 -4.29482838 49.21081443 2.7109375 46.37890625 C10.99778627 42.47849796 19.17670736 36.52158527 23.375 28.125 C23.75651498 23.54682026 23.84512461 21.0840542 21.8125 16.9375 C16.10054026 10.34677722 9.57969841 7.78077037 1.375 5.125 C2.035 4.465 2.695 3.805 3.375 3.125 C-4.83865324 2.35497001 -10.83635199 6.44549667 -16.57421875 11.796875 Z " fill="#FFFFFF" transform="translate(282.625,1067.875)"/>
<path d="M0 0 C0.99 0.33 1.98 0.66 3 1 C6.88501206 38.91467415 10.16918932 76.92711963 12 115 C12.05784668 116.13953125 12.11569336 117.2790625 12.17529297 118.453125 C13.50540035 145.60783944 13.09696229 172.82197468 13 200 C11.68 200 10.36 200 9 200 C8.99191315 199.44704254 8.98382629 198.89408508 8.97549438 198.32437134 C8.25088058 149.48788868 6.41925977 100.902557 2.9375 52.1875 C2.83539907 50.7549695 2.83539907 50.7549695 2.7312355 49.29349899 C2.33619742 43.75775908 1.93634251 38.22240083 1.52939987 32.68752289 C1.40400711 30.97947513 1.27951404 29.27136105 1.1559639 27.56317902 C0.98471256 25.20357096 0.80928249 22.84431184 0.63256836 20.48510742 C0.58319783 19.79605788 0.5338273 19.10700834 0.4829607 18.39707851 C0.21318272 14.86389013 -0.2166924 11.4569934 -1 8 C-1.99 9.98 -2.98 11.96 -4 14 C-5.06528748 11.26980214 -5.07998186 10.20701188 -4.00390625 7.421875 C-3.52824219 6.54015625 -3.05257813 5.6584375 -2.5625 4.75 C-2.08941406 3.85796875 -1.61632812 2.9659375 -1.12890625 2.046875 C-0.75636719 1.37140625 -0.38382812 0.6959375 0 0 Z " fill="#FFFFFF" transform="translate(428,488)"/>
<path d="M0 0 C0 0.99 0 1.98 0 3 C-1.41702513 2.85769192 -2.8336096 2.71099254 -4.25 2.5625 C-5.43335938 2.44068359 -5.43335938 2.44068359 -6.640625 2.31640625 C-9 2 -9 2 -10.98828125 1.48828125 C-14.98202873 0.51892506 -18.93593442 0.44490812 -23 1 C-29.20442381 5.04636336 -31.39290483 13.04127793 -33 20 C-31.906875 19.34 -30.81375 18.68 -29.6875 18 C-24.499039 15.44709353 -19.68201456 14.92166147 -14 16 C-4.37377082 20.53973631 1.06722125 30.80021698 4.91015625 40.234375 C7.51711894 47.65512462 8.70609786 56.48564798 6.34375 64.12109375 C3.97624194 68.21320898 0.35516319 69.69345104 -4 71 C-9.87396845 71.55942557 -14.84591236 71.02307064 -20 68 C-22.92365095 65.55194295 -25.61858069 62.9831077 -28 60 C-28 59.34 -28 58.68 -28 58 C-24.18908111 59.42822372 -20.74723813 61.22334567 -17.1875 63.1875 C-11.73202183 65.94543546 -8.86433195 66.67552342 -3 65 C-0.31729876 64.08223379 0.63943353 63.61008891 2.078125 61.17578125 C5.33805769 53.48178756 1.85719384 45.29474033 -1 38 C-4.08776523 30.70164582 -8.73386775 23.55892192 -16 20 C-21.05742453 19.04576896 -23.71991322 20.20475672 -27.875 22.9375 C-30.55364385 24.83087953 -30.55364385 24.83087953 -33 27 C-34.66617115 27.04063832 -36.33388095 27.042721 -38 27 C-38.65443704 17.34705361 -36.82701015 7.79016346 -30.4375 0.25 C-22.43460514 -8.23413798 -9.54858556 -3.18286185 0 0 Z " fill="#FFFFFF" transform="translate(975,418)"/>
<path d="M0 0 C1.8871875 0.0309375 1.8871875 0.0309375 3.8125 0.0625 C3.8125 0.7225 3.8125 1.3825 3.8125 2.0625 C2.595625 2.289375 1.37875 2.51625 0.125 2.75 C-5.11443875 4.06448817 -7.65334665 6.91468531 -10.75 11.25 C-17.19149174 23.85291863 -19.51023947 37.00350562 -20.1875 51.0625 C-19.32378784 50.82128418 -19.32378784 50.82128418 -18.44262695 50.57519531 C-14.77268561 49.74084684 -11.12491234 49.83686986 -7.375 49.8125 C-6.59318359 49.791875 -5.81136719 49.77125 -5.00585938 49.75 C0.36036761 49.71413549 4.06210634 50.52159176 8.8125 53.0625 C10.63259817 55.53783351 10.87203221 57.10276865 10.68359375 60.140625 C9.7310274 66.03650934 7.3341465 70.15744166 2.8125 74.0625 C-1.84816258 76.99010108 -6.86620643 76.67263381 -12.1875 76.0625 C-17.35748223 73.71250808 -20.03273124 70.23187314 -22.1875 65.0625 C-23.00736894 62.4025843 -23.61289945 59.79185261 -24.1875 57.0625 C-27.1575 57.5575 -27.1575 57.5575 -30.1875 58.0625 C-30.1875 57.4025 -30.1875 56.7425 -30.1875 56.0625 C-29.37410156 55.69511719 -28.56070313 55.32773437 -27.72265625 54.94921875 C-24.77164755 53.2137201 -24.77164755 53.2137201 -24.62109375 49.39453125 C-24.60441566 47.88811259 -24.60689799 46.38140222 -24.625 44.875 C-24.31044528 31.24612693 -21.8147229 15.51735773 -12.3515625 5.02734375 C-8.43877432 1.53555177 -5.34129373 -0.08756219 0 0 Z M-20.1875 55.0625 C-17.502634 64.58103253 -17.502634 64.58103253 -10.8125 71.4375 C-7.45987617 73.23720096 -7.45987617 73.23720096 -4.625 73.0625 C0.61526514 70.91264764 4.53816036 68.36929249 6.8125 63.0625 C7.06386033 59.85333829 7.06386033 59.85333829 6.8125 57.0625 C2.05933959 54.23589443 -1.82904777 53.65052944 -7.25 53.8125 C-7.94416016 53.81765625 -8.63832031 53.8228125 -9.35351562 53.828125 C-13.07438382 53.88466241 -16.56907435 54.1878708 -20.1875 55.0625 Z " fill="#FFFFFF" transform="translate(1014.1875,416.9375)"/>
<path d="M0 0 C1.03125 -0.00773438 2.0625 -0.01546875 3.125 -0.0234375 C15.25783269 0.00783269 15.25783269 0.00783269 18.5 3.25 C18.97058824 8.66176471 18.97058824 8.66176471 17 11.125 C16.2575 11.681875 16.2575 11.681875 15.5 12.25 C15.5 9.94 15.5 7.63 15.5 5.25 C-9.58903697 2.01270491 -34.16791253 8.98301199 -58.5 14.5 C-75.61796422 18.36471934 -92.48503787 19.43693337 -109.97851562 19.43530273 C-112.65510159 19.43752499 -115.33129714 19.45585331 -118.0078125 19.47460938 C-119.71614444 19.47753778 -121.42447831 19.47952627 -123.1328125 19.48046875 C-124.32803024 19.49124702 -124.32803024 19.49124702 -125.5473938 19.50224304 C-129.39687347 19.48620857 -131.22056901 19.43628733 -134.5 17.25 C-131.37821063 15.68910532 -128.01624738 15.94979661 -124.58203125 15.8203125 C-122.9313717 15.74918954 -121.28073778 15.67746971 -119.63012695 15.60522461 C-118.32913559 15.54986038 -118.32913559 15.54986038 -117.00186157 15.49337769 C-91.42582943 14.36759693 -67.24090938 10.78740312 -42.2043457 5.47436523 C-28.11628428 2.49086127 -14.47098322 -0.11188905 0 0 Z " fill="#FFFFFF" transform="translate(1091.5,596.75)"/>
<path d="M0 0 C3.58237562 0.00256629 7.16474893 0.00017497 10.74712467 -0.00138617 C16.74474907 -0.00319275 22.74236105 -0.00083862 28.73998356 0.00395441 C35.66405462 0.00942404 42.58809635 0.00760885 49.51216674 0.00212801 C55.48706302 -0.00241088 61.46195048 -0.00305076 67.43684793 -0.00043333 C70.99312621 0.00112135 74.54939068 0.00134484 78.10566807 -0.00196981 C82.05670154 -0.00539732 86.00770204 -0.00064623 89.95873356 0.00493097 C91.12964542 0.00290674 92.30055729 0.00088251 93.50695133 -0.00120306 C94.58309696 0.00161676 95.65924259 0.00443659 96.7679987 0.00734186 C97.69997452 0.00771889 98.63195034 0.00809591 99.59216785 0.00848436 C102.21584078 0.1355685 104.63221472 0.5519032 107.19017887 1.1343255 C107.19017887 2.4543255 107.19017887 3.7743255 107.19017887 5.1343255 C88.84834732 5.02690754 70.50655699 4.91411473 52.16479778 4.79498625 C43.64771822 4.73979265 35.13063447 4.68633407 26.61351871 4.63701105 C19.18690219 4.5939987 11.76031478 4.54767892 4.33374345 4.49744695 C0.40427203 4.47098265 -3.52519414 4.44613426 -7.45469952 4.42525148 C-11.15974755 4.40550917 -14.86474088 4.38131594 -18.56973934 4.35383463 C-20.564512 4.34016118 -22.55931461 4.33109421 -24.55411434 4.32220697 C-31.36414115 4.26704851 -38.04986099 3.9807869 -44.80982113 3.1343255 C-44.80982113 2.4743255 -44.80982113 1.8143255 -44.80982113 1.1343255 C-29.8829313 -0.06394575 -14.96545998 -0.01410645 0 0 Z " fill="#FFFFFF" transform="translate(87.80982112884521,62.86567449569702)"/>
<path d="M0 0 C3.4375 0.1875 3.4375 0.1875 4.4375 1.1875 C5.736875 1.290625 7.03625 1.39375 8.375 1.5 C10.58984375 1.7421875 10.58984375 1.7421875 12.4375 2.1875 C13.1212045 3.51217746 13.78714186 4.84613633 14.4375 6.1875 C16.46428267 6.89949477 18.4495783 7.31467587 20.5625 7.6953125 C22.4375 8.1875 22.4375 8.1875 24.4375 10.1875 C24.5625 13.3125 24.5625 13.3125 24.4375 16.1875 C25.035625 16.455625 25.63375 16.72375 26.25 17 C28.5415169 18.24396632 29.9205937 19.06383118 31.4375 21.1875 C31.4375 23.1875 31.4375 25.1875 31.4375 27.1875 C32.41939187 28.86489862 33.41883771 30.53217377 34.4375 32.1875 C34.9375 34.75 34.9375 34.75 34.4375 37.1875 C31.86775001 39.90409284 30.38405411 41.10336186 26.625 41.4375 C25.903125 41.355 25.18125 41.2725 24.4375 41.1875 C24.375625 41.97125 24.31375 42.755 24.25 43.5625 C23.4375 46.1875 23.4375 46.1875 21.375 47.4375 C17.7366176 48.3664487 14.16733596 48.75235247 10.4375 49.1875 C10.1075 49.5175 9.7775 49.8475 9.4375 50.1875 C6.85840934 50.36895851 4.33163347 50.46570018 1.75 50.5 C1.04166016 50.52900391 0.33332031 50.55800781 -0.39648438 50.58789062 C-5.63476277 50.65076931 -8.30516038 49.44238465 -12.5625 46.1875 C-14.54701771 45.47606912 -16.54452112 44.79758664 -18.5625 44.1875 C-19.5625 43.1875 -19.5625 43.1875 -19.75 39.9375 C-19.57588941 36.45528825 -19.06448876 34.28535183 -17.5625 31.1875 C-18.34625 31.06375 -19.13 30.94 -19.9375 30.8125 C-22.5625 30.1875 -22.5625 30.1875 -24.5625 28.1875 C-25.70507096 21.20512191 -23.29999112 17.38596412 -19.484375 11.60546875 C-17.67045903 9.3233265 -15.97645653 7.79502415 -13.5625 6.1875 C-13.81455732 12.1108471 -15.73107312 15.36610392 -19.28515625 20.07421875 C-20.90735642 22.34648815 -20.90735642 22.34648815 -20.5625 26.1875 C-18.2525 27.1775 -15.9425 28.1675 -13.5625 29.1875 C-13.8925 33.1475 -14.2225 37.1075 -14.5625 41.1875 C-12.9125 41.8475 -11.2625 42.5075 -9.5625 43.1875 C-8.86125 43.72375 -8.16 44.26 -7.4375 44.8125 C0.47547014 48.59696398 8.93314493 45.75141708 16.78515625 43.0625 C19.4375 42.1875 19.4375 42.1875 21.4375 42.1875 C21.4375 41.1975 21.4375 40.2075 21.4375 39.1875 C24.0775 38.1975 26.7175 37.2075 29.4375 36.1875 C29.77175735 33.81375139 29.77175735 33.81375139 29.4375 31.1875 C27.5370533 29.34434329 27.5370533 29.34434329 25.4375 28.1875 C25.7675 26.2075 26.0975 24.2275 26.4375 22.1875 C25.633125 21.65125 24.82875 21.115 24 20.5625 C21.4375 18.1875 21.4375 18.1875 21.1875 15.1875 C20.78430825 12.0804073 20.78430825 12.0804073 18.45703125 10.984375 C16.84387643 10.29705307 15.21307371 9.64950771 13.56640625 9.046875 C11.4375 8.1875 11.4375 8.1875 9.4375 6.1875 C7.10788557 5.82909778 4.77384657 5.49901288 2.4375 5.1875 C0.42333438 4.56493972 -1.58265519 3.91183347 -3.5625 3.1875 C-3.8925 4.1775 -4.2225 5.1675 -4.5625 6.1875 C-5.1875 4.3125 -5.1875 4.3125 -5.5625 2.1875 C-3.5625 0.1875 -3.5625 0.1875 0 0 Z " fill="#FFFFFF" transform="translate(838.5625,18.8125)"/>
<path d="M0 0 C3.125 1.5625 3.125 1.5625 4.125 2.5625 C5.54402836 17.81256427 5.54402836 17.81256427 1.125 23.5625 C-0.5625 25.375 -0.5625 25.375 -1.875 26.5625 C-1.1325 27.036875 -0.39 27.51125 0.375 28 C5.08122394 32.38534503 7.30636545 37.75987209 7.625 44.1875 C7.42883826 48.83816801 5.71458742 51.75904347 3.125 55.5625 C2.795 55.5625 2.465 55.5625 2.125 55.5625 C2.21201172 54.11230469 2.21201172 54.11230469 2.30078125 52.6328125 C2.59407513 44.16918913 2.37908388 37.65551323 -2.875 30.5625 C-6.58464 26.95884972 -10.53884493 27.23891223 -15.47265625 27.26171875 C-18.04678402 27.58400792 -19.69412804 28.17024692 -21.875 29.5625 C-22.58210678 31.21241582 -23.24062656 32.8832762 -23.875 34.5625 C-24.65875 35.614375 -25.4425 36.66625 -26.25 37.75 C-30.80198303 43.93153908 -33.2135499 50.95582381 -33.875 58.5625 C-34.535 58.5625 -35.195 58.5625 -35.875 58.5625 C-37.87339415 49.99795366 -35.42098921 44.89851693 -30.875 37.5625 C-27.58213779 32.81399484 -24.0043234 28.6016635 -19.875 24.5625 C-20.37 24.0675 -20.865 23.5725 -21.375 23.0625 C-23.4730166 19.56580566 -23.51552562 16.48394021 -22.875 12.5625 C-21.04233386 7.21229724 -18.21198494 3.23225649 -13.875 -0.4375 C-8.99446735 -2.06434422 -4.73155388 -1.99582005 0 0 Z M-14.875 5.5625 C-17.70886202 8.8323408 -18.76222923 10.84828515 -19.4375 15.125 C-19.09998113 18.67250229 -19.09998113 18.67250229 -16.875 21.5625 C-13.57650124 23.76149917 -11.76648408 24.04429045 -7.875 23.28515625 C-3.96660687 21.87294389 -0.75627543 19.32505085 1.125 15.5625 C1.72621564 10.2718024 0.33773363 7.72015529 -2.875 3.5625 C-3.535 2.9025 -4.195 2.2425 -4.875 1.5625 C-8.9442051 1.5625 -11.67584564 3.21402987 -14.875 5.5625 Z " fill="#FFFFFF" transform="translate(965.875,13.4375)"/>
<path d="M0 0 C5.61387783 1.24871427 10.83152154 0.88216265 16.49609375 0.26171875 C21.27066214 -0.0949101 26.02615785 -0.11882991 30.8125 -0.125 C31.72032227 -0.12943115 32.62814453 -0.1338623 33.56347656 -0.13842773 C34.43584961 -0.13657471 35.30822266 -0.13472168 36.20703125 -0.1328125 C37.37455933 -0.13112061 37.37455933 -0.13112061 38.56567383 -0.12939453 C41 0 41 0 43.92358398 0.51586914 C47.06101706 1.00960216 49.84686026 1.02560832 53.015625 0.87890625 C54.17094727 0.83056641 55.32626953 0.78222656 56.51660156 0.73242188 C57.74862305 0.67634766 58.98064453 0.62027344 60.25 0.5625 C69.92396489 0.16982089 79.56692943 -0.06599734 89.25 0 C101.85354399 0.07885734 114.41295443 -0.38615705 127 -1 C127 -0.34 127 0.32 127 1 C118.55873568 2.62352428 110.3313316 3.3833594 101.74609375 3.6328125 C100.52398697 3.67437469 99.30188019 3.71593689 98.04273987 3.75875854 C94.17452875 3.88826465 90.30606491 4.0065918 86.4375 4.125 C83.8391697 4.21155158 81.24086203 4.29878538 78.64257812 4.38671875 C76.13543661 4.46935735 73.62827565 4.55140841 71.12109375 4.6328125 C69.96870712 4.67028595 68.8163205 4.7077594 67.62901306 4.74636841 C48.55902913 5.32777301 48.55902913 5.32777301 40 4 C33.50650871 3.76362023 26.95223235 3.6413379 20.5 4.5 C3.47325233 6.65650679 3.47325233 6.65650679 -3.875 2.75 C-9.34012438 0.13110512 -13.98529318 1.82489577 -19.51733398 3.36303711 C-26.05163495 5.15569731 -34.67215952 7.16392024 -41 4 C-41 3.01 -41 2.02 -41 1 C-39.96166016 1.06960937 -39.96166016 1.06960937 -38.90234375 1.140625 C-31.26170576 1.42249307 -24.78186912 0.10951587 -17.54296875 -2.125 C-10.56360771 -3.84867902 -6.45096001 -2.78058621 0 0 Z " fill="#FFFFFF" transform="translate(1055,37)"/>
<path d="M0 0 C15.63113567 3.55485022 30.43357037 2.66604326 46.04882812 -0.51000977 C52.1509485 -1.73337383 57.86803044 -2.17593649 64.08984375 -1.93359375 C63.75984375 -1.27359375 63.42984375 -0.61359375 63.08984375 0.06640625 C60.49677625 0.64230845 57.96143167 1.10635176 55.33984375 1.50390625 C50.08333388 2.32493228 44.96049255 3.33461417 39.796875 4.62890625 C33.31852764 6.14234083 27.16829862 6.64090798 20.52734375 6.62890625 C19.37621094 6.63083984 18.22507812 6.63277344 17.0390625 6.63476562 C8.26191447 6.47803084 0.11707077 5.07759953 -8.41015625 3.06640625 C-27.3087143 -1.3606536 -43.19933861 0.05745098 -62.17651367 3.28637695 C-84.68755923 7.07716356 -84.68755923 7.07716356 -93.91015625 3.06640625 C-94.24015625 2.07640625 -94.57015625 1.08640625 -94.91015625 0.06640625 C-93.92015625 0.39640625 -92.93015625 0.72640625 -91.91015625 1.06640625 C-78.72368871 2.25744203 -66.2169718 -0.23934929 -53.31640625 -2.7421875 C-34.57360943 -6.34430377 -18.38180403 -4.40990922 0 0 Z " fill="#FFFFFF" transform="translate(1034.91015625,555.93359375)"/>
<path d="M0 0 C1.35738281 0.14695313 1.35738281 0.14695313 2.7421875 0.296875 C5.86643846 0.8438261 8.22119073 1.45914368 11 3 C14.14995654 7.64561936 14.97317838 12.33705947 15.0625 17.875 C13.67069425 21.96854632 12.64096005 23.59696637 9 26 C3.77017194 26.73401096 -0.53713191 26.97524539 -5 24 C-5 23.34 -5 22.68 -5 22 C-5.74765625 22.05800781 -6.4953125 22.11601563 -7.265625 22.17578125 C-15.25504079 22.54178852 -15.25504079 22.54178852 -18.75 20 C-20.38696904 16.0712743 -20.2383804 12.98224286 -19 9 C-15.04519647 2.03954578 -7.75976939 -0.92065061 0 0 Z M-6 3 C-10.22504978 5.33726158 -13.47216241 7.85434635 -16 12 C-16.09616096 14.68805807 -16.09616096 14.68805807 -15 17 C-12.15173402 19.36692966 -12.15173402 19.36692966 -8.8125 18.625 C-7.884375 18.41875 -6.95625 18.2125 -6 18 C-5.89042969 17.39671875 -5.78085937 16.7934375 -5.66796875 16.171875 C-4.09314587 8.23374341 -4.09314587 8.23374341 -1 5 C-4.54518884 6.39759905 -4.54518884 6.39759905 -8 8 C-8 7.34 -8 6.68 -8 6 C-6.35 5.34 -4.7 4.68 -3 4 C-3.99 3.67 -4.98 3.34 -6 3 Z M5 5 C4.89042969 5.67546875 4.78085938 6.3509375 4.66796875 7.046875 C4.50941406 7.93890625 4.35085937 8.8309375 4.1875 9.75 C4.03667969 10.63171875 3.88585937 11.5134375 3.73046875 12.421875 C3 15 3 15 1.36328125 17.140625 C0.68845703 18.06101562 0.68845703 18.06101562 0 19 C0.33 19.99 0.66 20.98 1 22 C5.72905009 21.61644473 5.72905009 21.61644473 10 19.75 C11.19545159 18.01008111 11.19545159 18.01008111 10.9375 15.75 C9.71636617 12.16800744 7.96595963 9.23432068 6 6 C7.32 6.33 8.64 6.66 10 7 C9.67 6.34 9.34 5.68 9 5 C7.68 5 6.36 5 5 5 Z M0 9 C-0.66 10.98 -1.32 12.96 -2 15 C-1.01 14.01 -0.02 13.02 1 12 C0.67 11.01 0.34 10.02 0 9 Z " fill="#FFFFFF" transform="translate(63,33)"/>
<path d="M0 0 C0 0.99 0 1.98 0 3 C-8.60559103 6.11822023 -17.33955412 7.97313627 -26.3125 9.6875 C-27.43317871 9.90172607 -28.55385742 10.11595215 -29.70849609 10.33666992 C-52.05089786 14.50944691 -77.79979924 16.58034389 -99 7 C-99 6.01 -99 5.02 -99 4 C-93.72753299 4.60139989 -88.63638858 5.47655657 -83.4375 6.5625 C-59.61359263 10.96341578 -34.82291411 7.00181552 -11.5534668 1.21972656 C-7.61167022 0.2531185 -4.05788445 -0.17615622 0 0 Z " fill="#FFFFFF" transform="translate(1056,658)"/>
<path d="M0 0 C4.13908642 4.26843287 5.14667308 10.01534998 5.4375 15.8125 C5.31184815 18.94833312 4.97424136 20.10807298 3.375 22.9375 C-2.550767 28.23950205 -8.03401495 28.58367057 -15.703125 28.421875 C-20.06760116 27.94612641 -21.88237742 27.09352196 -25 24.0625 C-27.84362785 19.79705822 -27.49873344 16.06592258 -27 11.0625 C-25.15112678 6.27718108 -21.10823187 3.01295744 -17 0.0625 C-11.54841703 -1.75469432 -5.47971575 -1.71241117 0 0 Z M-13 3.0625 C-8.38 4.0525 -3.76 5.0425 1 6.0625 C-3.55739798 1.50510202 -7.23556785 -0.78045477 -13 3.0625 Z M-18.8125 5.6875 C-21.75192265 8.87887316 -22.82462135 10.68870059 -23.375 15 C-22.88910884 18.96811116 -21.97035022 20.3891848 -19 23.0625 C-14.84241368 25.08610396 -11.22748619 25.46461282 -6.8125 24.0625 C-2.68187449 22.26197093 -0.58166879 19.69297174 2 16.0625 C0.51107269 11.96794991 -0.91411871 9.77504392 -4.75 7.8125 C-6.15591138 7.20370168 -7.57284968 6.61969313 -9 6.0625 C-10.216875 5.5675 -11.43375 5.0725 -12.6875 4.5625 C-16.05185761 3.70237605 -16.05185761 3.70237605 -18.8125 5.6875 Z " fill="#FFFFFF" transform="translate(507,128.9375)"/>
<path d="M0 0 C2.00720923 0.28674418 4.0085944 0.61866701 6 1 C6 1.66 6 2.32 6 3 C4.68 3 3.36 3 2 3 C-2.73705574 12.22979342 -7.20966222 21.55382129 -11.5 31 C-15.49488338 39.78682611 -19.63025645 48.47060386 -24.01757812 57.06738281 C-25.84386825 60.66005493 -27.63805382 64.26883062 -29.4375 67.875 C-30.10273939 69.20579176 -30.76809353 70.53652616 -31.43359375 71.8671875 C-31.95050781 72.90101563 -32.46742187 73.93484375 -33 75 C-33.495 75.99 -33.495 75.99 -34 77 C-34.66 77 -35.32 77 -36 77 C-34.15259965 68.66457389 -31.63085462 60.9587026 -28.25 53.125 C-27.78118408 52.02945801 -27.31236816 50.93391602 -26.8293457 49.80517578 C-22.86886223 40.70315776 -18.59579981 31.76709361 -14.1875 22.875 C-13.873573 22.23661194 -13.559646 21.59822388 -13.23620605 20.94049072 C-5.72704745 5.72704745 -5.72704745 5.72704745 0 0 Z " fill="#FFFFFF" transform="translate(1099,414)"/>
<path d="M0 0 C2.24413962 0.00502698 4.48828034 0.00958776 6.73242188 0.01367188 C12.17580554 0.02457809 17.61914751 0.04122051 23.0625 0.0625 C23.5575 2.5375 23.5575 2.5375 24.0625 5.0625 C16.60387041 5.0857197 9.14524868 5.10346405 1.68659019 5.11431217 C-1.77714952 5.11951998 -5.24086441 5.12657929 -8.70458984 5.13793945 C-12.69107766 5.15093161 -16.67755559 5.1557456 -20.6640625 5.16015625 C-21.90177399 5.16531754 -23.13948547 5.17047882 -24.41470337 5.17579651 C-26.15582901 5.17590981 -26.15582901 5.17590981 -27.93212891 5.17602539 C-28.94916901 5.178246 -29.96620911 5.18046661 -31.0140686 5.18275452 C-34.05981548 5.05746859 -36.94406992 4.62465785 -39.9375 4.0625 C-39.9375 3.0725 -39.9375 2.0825 -39.9375 1.0625 C-26.62909438 -0.13605374 -13.35155805 -0.05238231 0 0 Z " fill="#FFFFFF" transform="translate(296.9375,36.9375)"/>
<path d="M0 0 C4.47335419 3.76168421 6.73155237 6.58397129 7.375 12.375 C6.92831385 16.69296607 5.7684289 18.69326548 3 22 C-0.03426794 23.90614268 -2.44085649 24.29622343 -6 24.3125 C-6.845625 24.32925781 -7.69125 24.34601562 -8.5625 24.36328125 C-11.51500566 23.92324435 -12.85242709 23.04690543 -15 21 C-16.58060949 16.25817153 -16.8464303 12.2056358 -15.05859375 7.546875 C-13.27049861 4.07158036 -11.84427162 1.56284774 -8.5625 -0.625 C-5.29739977 -1.10281955 -3.1673083 -0.98978384 0 0 Z M-9.0625 3.5 C-11.61751189 6.79678953 -12.72714781 9.83280287 -13 14 C-12.20572041 17.01950153 -12.20572041 17.01950153 -10 19 C-7.19142252 20.26010343 -7.19142252 20.26010343 -4 20 C-0.50858147 18.28722865 1.48850567 17.17342817 3.0625 13.5625 C2.98198604 10.26142767 1.99898336 8.59127473 0 6 C-0.66 6 -1.32 6 -2 6 C-2.66 4.68 -3.32 3.36 -4 2 C-7.02067791 1.70591415 -7.02067791 1.70591415 -9.0625 3.5 Z " fill="#FFFFFF" transform="translate(849,35)"/>
<path d="M0 0 C3.37609331 2.78894665 4.7221823 4.35000446 5.44921875 8.66796875 C5.62478485 13.15398535 5.50197328 16.12154676 3.25 20.0625 C-1.20967798 23.90277826 -4.79821946 24.46774093 -10.58203125 24.296875 C-13 24 -13 24 -16.125 22.625 C-18.60488993 19.1531541 -18.64398525 16.6641659 -18.421875 12.46875 C-17.5895105 7.59787623 -14.99896094 4.90150133 -11.4375 1.6875 C-7.35648232 -1.13781993 -4.71175866 -1.4135276 0 0 Z M-10 5 C-13.26774523 8.26774523 -13.9181274 11.4151345 -14 16 C-12.73061576 18.68620182 -12.73061576 18.68620182 -10 20 C-7.12026293 20.28856261 -4.72780604 19.9594737 -2 19 C0.70732203 16.97071986 0.70732203 16.97071986 2 14 C2 8.8406905 -0.35662272 5.26351175 -3 1 C-5.47402284 1 -8.11862704 3.64541147 -10 5 Z " fill="#FFFFFF" transform="translate(190,33)"/>
<path d="M0 0 C0.89813416 -0.00315216 1.79626831 -0.00630432 2.72161865 -0.009552 C3.69036926 -0.00752777 4.65911987 -0.00550354 5.65722656 -0.00341797 C6.65739807 -0.00437469 7.65756958 -0.00533142 8.68804932 -0.00631714 C10.80635643 -0.006998 12.92466564 -0.00515024 15.04296875 -0.00097656 C18.2712072 0.00435056 21.49930508 -0.00091312 24.72753906 -0.00732422 C26.7874352 -0.00666298 28.84733125 -0.00538088 30.90722656 -0.00341797 C31.86788025 -0.0054422 32.82853394 -0.00746643 33.81829834 -0.009552 C38.83649166 0.0078164 43.60142203 0.27147952 48.54785156 1.12939453 C48.54785156 2.44939453 48.54785156 3.76939453 48.54785156 5.12939453 C44.22860064 5.15449074 39.90939062 5.17243775 35.59008789 5.18432617 C34.12686421 5.18929277 32.66364531 5.19606831 31.20043945 5.20483398 C22.84630913 5.25355447 14.61430103 5.0843882 6.28344727 4.35424805 C3.09362886 4.09205949 -0.06492251 4.02834362 -3.26464844 4.06689453 C-4.75931641 4.08042969 -4.75931641 4.08042969 -6.28417969 4.09423828 C-6.99960937 4.10583984 -7.71503906 4.11744141 -8.45214844 4.12939453 C-8.12214844 3.13939453 -7.79214844 2.14939453 -7.45214844 1.12939453 C-4.63428145 0.19010553 -2.91567926 0.00293852 0 0 Z " fill="#FFFFFF" transform="translate(271.4521484375,52.87060546875)"/>
<path d="M0 0 C2.562892 1.87435385 2.97320958 2.91962873 4 6 C4.42812912 12.52896904 3.6520793 16.54076613 -0.4375 21.875 C-2 23 -2 23 -6 23 C-5.37234043 17.47659574 -5.37234043 17.47659574 -3.4375 15 C-1.45360929 12.23980423 -1.63927462 10.31867345 -2 7 C-3.76707178 4.7642617 -3.76707178 4.7642617 -6.0234375 4.98828125 C-6.79945313 5.09527344 -7.57546875 5.20226563 -8.375 5.3125 C-9.14585937 5.41175781 -9.91671875 5.51101562 -10.7109375 5.61328125 C-12.84533338 5.97387031 -14.90958571 6.44160166 -17 7 C-17 7.66 -17 8.32 -17 9 C-17.66 9 -18.32 9 -19 9 C-19.375 6.75 -19.375 6.75 -19 4 C-13.96798179 -1.31956211 -6.92763989 -1.02665958 0 0 Z " fill="#FFFFFF" transform="translate(743,27)"/>
<path d="M0 0 C0.81903809 -0.00467285 1.63807617 -0.0093457 2.48193359 -0.01416016 C5.80236977 -0.00507073 8.51609975 0.06786658 11.6875 1.125 C11.6875 2.445 11.6875 3.765 11.6875 5.125 C-6.4625 5.125 -24.6125 5.125 -43.3125 5.125 C-43.3125 4.465 -43.3125 3.805 -43.3125 3.125 C-28.87834175 1.2850021 -14.56184533 0.05797133 0 0 Z " fill="#FFFFFF" transform="translate(301.3125,21.875)"/>
<path d="M0 0 C5.16028906 0.38085849 10.31968181 0.77178647 15.47851562 1.171875 C17.23188819 1.3064512 18.98547066 1.4383219 20.73925781 1.56738281 C23.26688339 1.75387051 25.79358257 1.95022516 28.3203125 2.1484375 C29.09867462 2.20373627 29.87703674 2.25903503 30.6789856 2.31600952 C35.06810058 2.67120596 38.85124026 3.40166002 43 5 C43 5.33 43 5.66 43 6 C35.95890123 6.88859906 29.14787263 7.09144134 22.0625 6.75 C21.10263184 6.70625244 20.14276367 6.66250488 19.15380859 6.61743164 C12.492293 6.24596536 6.27580977 5.38720994 0 3 C0 2.01 0 1.02 0 0 Z " fill="#FFFFFF" transform="translate(1208,36)"/>
<path d="M0 0 C0 0.66 0 1.32 0 2 C-1.46875 2.9375 -1.46875 2.9375 -3.5 4 C-8.97826217 7.29273403 -12.2064717 11.95633169 -16 17 C-28.39206345 32.53433668 -28.39206345 32.53433668 -34 38 C-34.66 38 -35.32 38 -36 38 C-32.06873913 29.36743747 -24.97148216 21.82258345 -18.875 14.625 C-18.39691895 14.05475098 -17.91883789 13.48450195 -17.42626953 12.89697266 C-6.35394895 0 -6.35394895 0 0 0 Z " fill="#FFFFFF" transform="translate(480,166)"/>
<path d="M0 0 C0.33 0 0.66 0 1 0 C1.8886833 5.31057459 2.13355881 10.39885945 2.09765625 15.77734375 C2.0962413 16.58869278 2.09482635 17.40004181 2.09336853 18.23597717 C2.08781357 20.80319047 2.07526967 23.37031348 2.0625 25.9375 C2.05747917 27.68814977 2.05291729 29.43880093 2.04882812 31.18945312 C2.03785893 35.4596697 2.02062582 39.72981959 2 44 C-1.10319378 39.34520932 -1.14760084 35.56745934 -1.1328125 30.15625 C-1.13376923 29.39074829 -1.13472595 28.62524658 -1.13571167 27.83654785 C-1.13639166 26.21931882 -1.13454997 24.60208705 -1.13037109 22.98486328 C-1.12502027 20.50937774 -1.13032216 18.03407364 -1.13671875 15.55859375 C-1.13605794 13.98697877 -1.13477671 12.4153639 -1.1328125 10.84375 C-1.13483673 10.10306274 -1.13686096 9.36237549 -1.13894653 8.59924316 C-1.12463282 5.46229851 -0.99964247 2.9989274 0 0 Z " fill="#FFFFFF" transform="translate(539,138)"/>
<path d="M0 0 C0.78375 0.04125 1.5675 0.0825 2.375 0.125 C3.035 1.445 3.695 2.765 4.375 4.125 C5.365 4.125 6.355 4.125 7.375 4.125 C7.0625 6.5 7.0625 6.5 6.375 9.125 C3.375 11.125 3.375 11.125 -0.25 10.8125 C-3.625 10.125 -3.625 10.125 -4.625 9.125 C-4.8125 5.6875 -4.8125 5.6875 -4.625 2.125 C-2.625 0.125 -2.625 0.125 0 0 Z M-0.625 3.125 C-0.955 4.115 -1.285 5.105 -1.625 6.125 C-0.305 6.455 1.015 6.785 2.375 7.125 C2.705 6.135 3.035 5.145 3.375 4.125 C2.055 3.795 0.735 3.465 -0.625 3.125 Z " fill="#FFFFFF" transform="translate(1056.625,414.875)"/>
<path d="M0 0 C0 0.66 0 1.32 0 2 C-0.99 2.33 -1.98 2.66 -3 3 C-3.33 5.64 -3.66 8.28 -4 11 C-3.401875 10.484375 -2.80375 9.96875 -2.1875 9.4375 C-1.465625 8.963125 -0.74375 8.48875 0 8 C0.99 8.33 1.98 8.66 3 9 C1.75023244 12.65316671 1.32901247 13.78065836 -2 16 C-4.625 16.1875 -4.625 16.1875 -7 16 C-8 15 -8 15 -8.25 11.3125 C-8.20608127 7.24269771 -7.20313778 4.47417881 -5 1 C-3 0 -3 0 0 0 Z " fill="#FFFFFF" transform="translate(1105,471)"/>
<path d="M0 0 C3.71599191 -0.20086443 4.77208445 -0.1519437 8 2 C7.34 3.98 6.68 5.96 6 8 C4.02 8 2.04 8 0 8 C0 5.36 0 2.72 0 0 Z " fill="#FFFFFF" transform="translate(732,62)"/>
<path d="M0 0 C2.64 0.66 5.28 1.32 8 2 C8 2.33 8 2.66 8 3 C5.69 3 3.38 3 1 3 C0.67 2.01 0.34 1.02 0 0 Z " fill="#FFFFFF" transform="translate(209,805)"/>
</svg>
