<?xml version="1.0" encoding="UTF-8"?>
<svg version="1.1" xmlns="http://www.w3.org/2000/svg" width="1280" height="1280">
<path d="M0 0 C-0.33 0.66 -0.66 1.32 -1 2 C-7.4198692 2.12587979 -7.4198692 2.12587979 -10.27392578 1.5065918 C-16.66082554 0.31970151 -23.38735625 0.80535388 -29.875 0.8125 C-30.7156601 0.81243958 -31.55632019 0.81237915 -32.42245483 0.81231689 C-47.32406673 0.82738301 -62.14914379 1.4336943 -77.02296448 2.28773499 C-77.8403862 2.33457932 -78.65780792 2.38142365 -79.5 2.4296875 C-80.32745224 2.47721664 -81.15490448 2.52474579 -82.00743103 2.57371521 C-92.02909307 3.13531565 -102.05863205 3.49562594 -112.08843994 3.87701416 C-126.34346841 4.42079021 -140.56152048 4.97944291 -154.77319336 6.25439453 C-165.03532344 7.11782089 -175.31378082 7.40290115 -185.60296631 7.76019287 C-202.88904655 8.36671635 -220.09158863 9.23458984 -237.3125 10.875 C-238.22008057 10.96119598 -239.12766113 11.04739197 -240.06274414 11.13619995 C-247.20228404 11.81909255 -254.33892108 12.53043213 -261.47491455 13.24932861 C-290.27506782 16.14525081 -319.10751702 18.00827307 -348 19.6875 C-348.93379234 19.74209759 -349.86758469 19.79669518 -350.82967377 19.85294724 C-383.93063713 21.78818085 -416.95740138 23.20672631 -450.1220932 23.18847656 C-452.41768108 23.1874815 -454.7132624 23.18849644 -457.0088501 23.18969727 C-483.82883448 23.19488172 -510.61586573 22.62535079 -537.41943359 21.71166992 C-565.96044238 20.74772138 -594.39877909 20.70710112 -622.9375 21.9375 C-625.12692899 22.02598976 -627.31638234 22.11387889 -629.50585938 22.20117188 C-639.10537917 22.58978304 -648.7001676 23.02549119 -658.29296875 23.5546875 C-665.32253743 23.93750861 -672.33319592 24.19259332 -679.375 24.1875 C-680.51090576 24.18741943 -681.64681152 24.18733887 -682.81713867 24.18725586 C-697.26164854 24.09790062 -711.68433955 23.33353536 -726.10987854 22.64222717 C-727.06361862 22.59658127 -728.0173587 22.55093536 -729 22.50390625 C-729.94572372 22.45862289 -730.89144745 22.41333954 -731.86582947 22.36668396 C-740.17939365 21.97613446 -748.49311928 21.7247338 -756.8125 21.5 C-771.5296981 21.07149199 -786.10976736 19.91846098 -800.75253296 18.41104126 C-803.47735124 18.13124523 -806.20269002 17.85665465 -808.92797852 17.58148193 C-810.85445677 17.38353284 -812.77980488 17.1746768 -814.70507812 16.96533203 C-831.7189455 15.21945578 -848.68790314 16.11259628 -865.74243164 16.79956055 C-869.2193773 16.93877636 -872.69656121 17.07025325 -876.17382812 17.20117188 C-878.40105978 17.28860231 -880.62827407 17.37647657 -882.85546875 17.46484375 C-883.88673386 17.50343002 -884.91799896 17.5420163 -885.98051453 17.58177185 C-890.73173405 17.77839642 -895.32495762 18.05309952 -900 19 C-900 17.68 -900 16.36 -900 15 C-887.04596219 13.09675562 -874.13639008 12.33852527 -861.0625 11.8125 C-860.02097778 11.76952789 -858.97945557 11.72655579 -857.90637207 11.68228149 C-835.41919799 10.77449601 -813.75388059 11.54940059 -791.39453125 14.28125 C-780.12110854 15.60832484 -768.81309991 16.15023319 -757.47265625 16.5 C-755.6246769 16.5609082 -755.6246769 16.5609082 -753.73936462 16.62304688 C-749.84715409 16.75123875 -745.9548475 16.87604143 -742.0625 17 C-736.92828512 17.16373205 -731.79415817 17.32971397 -726.66015625 17.5 C-724.82113487 17.56099129 -724.82113487 17.56099129 -722.94496155 17.62321472 C-716.87931329 17.83360009 -710.83393116 18.10298485 -704.78125 18.55078125 C-697.42428598 19.09227423 -690.09418513 19.18608245 -682.72045898 19.18530273 C-680.51849883 19.18742204 -678.31710192 19.20547135 -676.11523438 19.22460938 C-665.5932779 19.2637668 -655.12522702 18.75389029 -644.62475777 18.14433479 C-624.76573518 16.99827201 -604.97408802 16.68038444 -585.08494949 16.74285889 C-582.44455782 16.75015316 -579.80418846 16.75327157 -577.16378784 16.75537109 C-551.05674195 16.78105517 -525.00580277 17.32491254 -498.91748047 18.27929688 C-416.70945101 21.27947176 -333.78370334 16.14808705 -251.98046875 7.89453125 C-251.0766748 7.80348114 -250.17288086 7.71243103 -249.24169922 7.61862183 C-245.00852694 7.19091417 -240.77623326 6.75701679 -236.54541016 6.30664062 C-221.60679814 4.73654753 -206.67939513 3.99928184 -191.66479492 3.70898438 C-175.72733415 3.40046763 -159.88843861 2.51256689 -143.99597168 1.29354858 C-131.28426868 0.32174789 -118.62898406 -0.34217596 -105.8828125 -0.65625 C-97.7884286 -0.86836698 -89.75771028 -1.3542901 -81.6875 -2 C-67.72187481 -3.08207748 -53.75064065 -3.39771315 -39.75 -3.6875 C-38.6411142 -3.71223389 -37.53222839 -3.73696777 -36.38973999 -3.76245117 C-33.19221022 -3.83190407 -29.99464948 -3.89226439 -26.796875 -3.94921875 C-25.36408958 -3.98023933 -25.36408958 -3.98023933 -23.90235901 -4.0118866 C-15.27046436 -4.14235442 -7.83062268 -3.83200685 0 0 Z " fill="#FFFFFF" transform="translate(1121,280)"/>
<path d="M0 0 C5.84737892 0.0075863 11.69469045 0.0047739 17.54206699 -0.00360489 C50.80511086 -0.05014935 84.00515996 -0.00067775 117.24001926 1.5494194 C132.29702147 2.2512598 147.28737734 2.47660783 162.36021274 2.3508873 C169.12287937 2.29544451 175.88565745 2.27848488 182.6485123 2.26104355 C183.31927107 2.25900043 183.99002983 2.25695732 184.68111461 2.25485229 C204.95510003 2.19709368 225.21963509 2.69050011 245.4844498 3.2571373 C245.4844498 4.2471373 245.4844498 5.2371373 245.4844498 6.2571373 C242.10718868 7.01841612 239.00928448 7.37642342 235.55007786 7.3528862 C234.58052158 7.34873703 233.61096531 7.34458786 232.61202854 7.34031296 C231.55841633 7.33050903 230.50480411 7.32070511 229.41926426 7.3106041 C227.73910724 7.30101166 227.73910724 7.30101166 226.02500767 7.29122543 C222.29919025 7.26835986 218.57348621 7.237696 214.84773105 7.20635605 C212.21696992 7.18707758 209.58620714 7.16802344 206.95544285 7.14918137 C201.40444702 7.10848419 195.85350381 7.06299788 190.30256504 7.01519394 C184.71275295 6.96714473 179.12294147 6.92538959 173.53303379 6.89019394 C146.13915735 6.71667574 118.77353305 6.45634727 91.40241855 5.21416855 C68.75801085 4.18814712 46.17835786 4.05042442 23.51428837 4.2341423 C19.37834016 4.26553213 15.24236126 4.28745301 11.10635418 4.30947113 C-0.80472909 4.37311533 -12.71538781 4.46669474 -24.6261459 4.57452011 C-28.98745162 4.61372159 -33.34875558 4.64845072 -37.71013027 4.6790123 C-61.67212472 4.84827236 -85.60259912 5.23640963 -109.54943234 6.12722778 C-132.9802925 6.99742184 -156.37920174 7.47940417 -179.82414395 7.6008873 C-180.96379164 7.60683241 -180.96379164 7.60683241 -182.12646252 7.61289763 C-190.79341203 7.65710503 -199.46038844 7.69117458 -208.12739712 7.72127914 C-224.27979977 7.77739312 -240.43205601 7.86463329 -256.58428699 7.95705724 C-258.32483384 7.96700595 -260.06538118 7.9768687 -261.80592901 7.98664546 C-304.22843747 8.22544099 -346.64307214 8.84602655 -389.05984634 9.56308222 C-435.28093064 10.34406552 -435.28093064 10.34406552 -453.70695645 10.37041855 C-455.01850201 10.37421021 -456.33004757 10.37800186 -457.68133694 10.38190842 C-472.82172761 10.35586922 -487.98900988 9.43266895 -503.03679043 7.76250839 C-518.29226513 6.10831284 -533.49305764 5.82117862 -548.8280502 5.6321373 C-551.43027516 5.59384304 -554.032489 5.55478525 -556.63469082 5.5149498 C-562.92820996 5.42023501 -569.2217993 5.33484928 -575.5155502 5.2571373 C-575.8455502 4.5971373 -576.1755502 3.9371373 -576.5155502 3.2571373 C-570.18940037 2.32840862 -564.01437364 2.08245952 -557.6249252 2.0540123 C-556.05914479 2.04383072 -556.05914479 2.04383072 -554.46173245 2.03344345 C-551.06297452 2.01642022 -547.66434813 2.01022828 -544.2655502 2.0071373 C-542.50336651 2.00363266 -542.50336651 2.00363266 -540.70558316 2.00005722 C-526.81048515 1.98967321 -513.14744589 2.32935764 -499.3280502 3.7571373 C-484.38526859 5.29764886 -469.54543427 5.47431597 -454.53091985 5.41651082 C-452.46541345 5.40933399 -450.39991944 5.40505415 -448.33440357 5.40163612 C-410.19189043 5.33687468 -372.05119824 4.86842383 -333.91161805 4.42492044 C-322.59920544 4.29342579 -311.2867486 4.16589185 -299.97429043 4.0383873 C-295.85388318 3.99192196 -291.73347611 3.9454404 -287.61306912 3.89895248 C-286.60073202 3.88753656 -285.58839493 3.87612064 -284.54538095 3.86435878 C-278.48493689 3.79596745 -272.42449857 3.72709024 -266.36406434 3.65783346 C-245.31025637 3.41733479 -224.25652193 3.18635052 -203.20214421 3.00133705 C-199.93044146 2.97247087 -196.65874791 2.94272999 -193.38705593 2.91267014 C-191.34224094 2.89393953 -189.29742588 2.87521676 -187.25261074 2.85650253 C-186.28592811 2.84764432 -185.31924547 2.83878611 -184.32326943 2.82965946 C-179.91380119 2.78976891 -175.50434581 2.75211827 -171.09480435 2.72127914 C-154.77109199 2.60650646 -138.46325545 2.3461675 -122.14787441 1.78936386 C-81.4207139 0.40524011 -40.75026132 -0.05906176 0 0 Z " fill="#FFFFFF" transform="translate(849.5155501961708,1066.742862701416)"/>
<path d="M0 0 C1.10331665 -0.00200409 2.2066333 -0.00400818 3.34338379 -0.006073 C24.13906052 -0.01527263 44.54599135 1.15111419 65.125 4.25 C65.125 5.24 65.125 6.23 65.125 7.25 C58.83796346 7.41052008 52.83851175 6.92652527 46.59790039 6.18261719 C31.78064658 4.46078797 17.10101802 3.9636485 2.1875 4 C1.26779419 4.00104736 0.34808838 4.00209473 -0.5994873 4.00317383 C-10.65194354 4.0273977 -20.67417379 4.26066616 -30.71484375 4.7421875 C-41.51039857 5.24883423 -52.296406 5.37915517 -63.1015625 5.4609375 C-64.84796712 5.475309 -66.59437113 5.48975459 -68.34077454 5.50427246 C-75.52580641 5.56234779 -82.71080338 5.61767134 -89.89599609 5.65136719 C-109.971703 5.75042493 -129.73010612 6.21317718 -149.68066406 8.59130859 C-160.30786416 9.82837913 -171.04241933 9.78261838 -181.6875 8.75 C-200.16447303 7.03355988 -218.6596877 8.67687188 -237.10253906 10.04418945 C-248.04128607 10.85362672 -258.97303885 11.55655439 -269.9291687 12.07958984 C-284.47802578 12.77477989 -298.99077793 13.74802741 -313.51312256 14.86679077 C-362.78882936 18.65141483 -412.02180608 21.35723321 -461.42969131 22.47544956 C-480.79401623 22.91602663 -500.10048953 23.64403716 -519.4375 24.8125 C-539.12512972 25.99024023 -558.78040712 26.57937633 -578.5 26.8125 C-579.86714687 26.8288829 -581.23429368 26.84527085 -582.60144043 26.86166382 C-584.67202545 26.88636878 -586.74261082 26.91104501 -588.81319618 26.9357214 C-590.92364271 26.96093038 -593.03408723 26.98630133 -595.14453125 27.01171875 C-595.8492947 27.02013479 -596.55405815 27.02855083 -597.28017807 27.03722191 C-615.91883585 27.26282925 -634.55332734 27.66268568 -653.1875 28.125 C-654.02362572 28.14569172 -654.85975143 28.16638344 -655.72121429 28.18770218 C-679.99888991 28.79412866 -704.17775001 29.85586403 -728.3949585 31.72146606 C-738.18962811 32.45631508 -748.00010536 32.83592168 -757.8125 33.25 C-771.15026654 33.81542163 -784.32569385 34.78868602 -797.59399414 36.27856445 C-809.02924662 37.50534404 -820.38805035 37.56664619 -831.875 37.25 C-831.545 36.26 -831.215 35.27 -830.875 34.25 C-829.73289062 34.21261719 -828.59078125 34.17523438 -827.4140625 34.13671875 C-816.28610077 33.70759899 -805.3021407 32.72660354 -794.25048828 31.35424805 C-781.86933659 29.82524456 -769.59351946 29.13961855 -757.125 28.875 C-745.80326301 28.60263198 -734.56709597 27.9608631 -723.28335571 27.01257324 C-703.18853655 25.34320372 -683.08794264 24.65598889 -662.9375 24.125 C-661.76441662 24.09394165 -661.76441662 24.09394165 -660.56763458 24.06225586 C-642.94908424 23.59912307 -625.33039932 23.22706368 -607.70703125 23.01171875 C-607.02022404 23.00327753 -606.33341682 22.99483631 -605.62579727 22.9861393 C-602.19564629 22.9441712 -598.76548716 22.90288611 -595.33532715 22.86166382 C-594.66155533 22.85354549 -593.98778351 22.84542717 -593.29359436 22.83706284 C-591.92810709 22.82065046 -590.56261839 22.80435715 -589.1971283 22.7881813 C-567.54258743 22.52899975 -545.94705171 21.75307585 -524.31933594 20.6076355 C-508.66238693 19.78195309 -493.02302876 19.11934911 -477.34765625 18.78515625 C-476.55413694 18.76818129 -475.76061764 18.75120632 -474.94305229 18.73371696 C-470.86645389 18.64716507 -466.78981471 18.56265522 -462.71316528 18.47854614 C-407.08598083 17.32397365 -351.58240877 13.95535686 -296.12109375 9.56347656 C-281.9563407 8.44533733 -267.79483371 7.58057138 -253.60253906 6.90209961 C-244.61343809 6.46967645 -235.65741042 5.86861612 -226.6875 5.125 C-217.59611014 4.39214587 -208.55881353 4.06877024 -199.4375 4.0625 C-198.35380127 4.06169434 -197.27010254 4.06088867 -196.15356445 4.06005859 C-189.94049261 4.10340225 -183.81553238 4.45758567 -177.62866211 5.01635742 C-167.3885522 5.88520973 -157.26024091 5.50878 -147.07766724 4.19271851 C-127.97688004 1.76897745 -108.91176788 1.72943393 -89.68621826 1.63873291 C-82.57168578 1.60236087 -75.45728395 1.54208423 -68.34291458 1.48240662 C-66.62335294 1.46812576 -64.90378642 1.45442078 -63.18421555 1.44129944 C-52.90549073 1.36116042 -42.65924211 1.15630247 -32.39306641 0.60684204 C-21.60127566 0.0421584 -10.80449567 0.00966249 0 0 Z " fill="#FFFFFF" transform="translate(1014.875,206.75)"/>
<path d="M0 0 C-2.96472883 2.51967716 -5.09940124 3.45894643 -8.9375 4 C-9.99066406 4.15339844 -11.04382812 4.30679688 -12.12890625 4.46484375 C-13.40636719 4.64144531 -14.68382812 4.81804687 -16 5 C-17.65520273 5.24961825 -19.31013309 5.50104666 -20.96484375 5.75390625 C-34.24276978 7.7580986 -47.31132305 9.05905441 -60.75 9.125 C-61.49902588 9.12975342 -62.24805176 9.13450684 -63.01977539 9.1394043 C-67.59734177 9.12650705 -72.13933013 8.93417943 -76.70671654 8.62459564 C-87.52555722 7.91896801 -98.29344725 7.9525152 -109.12971115 8.11003113 C-112.4470713 8.15785203 -115.76444906 8.19735476 -119.0819397 8.23498535 C-128.50496586 8.34345818 -137.92778025 8.46724455 -147.35058594 8.59326172 C-180.02518942 9.02501789 -212.6362574 8.89164665 -245.30391884 8.06736755 C-247.95274087 8.00118087 -250.60161401 7.93786298 -253.25053406 7.87573242 C-254.07499086 7.85636407 -254.89944767 7.83699572 -255.74888802 7.81704044 C-257.26012538 7.78158694 -258.77136457 7.74621094 -260.28260612 7.71093655 C-271.12512886 7.45285966 -281.89091685 7.00046785 -292.6875 5.9375 C-303.14907553 4.92311077 -313.56161895 4.80743671 -324.0625 4.8125 C-324.83363129 4.81168427 -325.60476257 4.81086853 -326.39926147 4.81002808 C-335.55023404 4.81112612 -344.66161549 5.05982821 -353.80078125 5.51953125 C-366.55523845 6.14226657 -379.2874518 6.00493912 -392.052948 5.90350342 C-415.92984536 5.72671931 -439.62884407 6.25211931 -463.46533203 7.796875 C-465.6422352 7.93776909 -467.8191558 8.07839431 -469.99609375 8.21875 C-471.60771393 8.32292236 -471.60771393 8.32292236 -473.25189209 8.42919922 C-484.18053063 9.11355974 -495.11378387 9.44928546 -506.05801392 9.7727356 C-532.23812772 10.55056958 -558.34940401 12.00709179 -584.48981476 13.60497665 C-612.67157903 15.32727455 -640.84867813 16.82106612 -669.06142426 17.93262959 C-682.66166382 18.46875861 -696.23971842 19.10497531 -709.8203125 20.01953125 C-732.9971802 21.56388446 -755.98271854 22.15766972 -779.20930862 21.72471237 C-781.28825901 21.68680234 -783.36724043 21.65193203 -785.44625854 21.61795044 C-809.26919454 21.22686354 -833.07587751 20.50815399 -856.88647461 19.65869141 C-871.59507017 19.14322658 -886.27455582 18.764296 -900.99047852 19.16186523 C-907.7111459 19.28528482 -912.7466839 18.52373031 -919 16 C-919 17.32 -919 18.64 -919 20 C-919.66 20 -920.32 20 -921 20 C-921.125 17.625 -921.125 17.625 -921 15 C-920.34 14.34 -919.68 13.68 -919 13 C-916.22500723 13.27749928 -913.57527443 13.86396956 -910.86387634 14.50511169 C-904.43678545 15.93889008 -898.38501631 16.25084452 -891.81640625 16.16015625 C-890.7722908 16.15454681 -889.72817535 16.14893738 -888.65242004 16.14315796 C-886.43424819 16.13074956 -884.21609655 16.11409574 -881.99798584 16.09347534 C-876.20057427 16.04120419 -870.40307561 16.02456192 -864.60546875 16.0078125 C-863.47908997 16.00408127 -862.35271118 16.00035004 -861.19219971 15.99650574 C-853.57443449 15.97969549 -845.98557774 16.08295203 -838.375 16.4375 C-826.86603936 16.96828338 -815.35911112 17.25683021 -803.84063721 17.49563599 C-801.75365583 17.53903141 -799.66669876 17.58361824 -797.57977295 17.62960815 C-790.38685924 17.78737007 -783.19403834 17.90720819 -776 18 C-774.89732788 18.0156601 -773.79465576 18.03132019 -772.65856934 18.04745483 C-753.16209017 18.29290661 -733.82096599 17.46606595 -714.36943054 16.32526779 C-706.93992496 15.8932878 -699.50889792 15.48759831 -692.078125 15.078125 C-691.24162666 15.03178358 -690.40512833 14.98544216 -689.54328156 14.93769646 C-672.34522684 13.98698173 -655.14121241 13.2354591 -637.93172073 12.52731705 C-617.73530059 11.69587112 -597.56636537 10.72828509 -577.40093994 9.31323242 C-554.51913114 7.72840817 -531.59690488 6.9778842 -508.67690468 6.17525196 C-504.66212763 6.03440221 -500.64745742 5.89065468 -496.6328125 5.74609375 C-495.44447563 5.70374068 -495.44447563 5.70374068 -494.23213196 5.660532 C-483.43030226 5.27093555 -472.66270367 4.67818992 -461.87890625 3.9453125 C-442.49919001 2.64809023 -423.10269496 2.58906902 -403.68652344 2.45739746 C-395.13076853 2.39816419 -386.57513181 2.32424079 -378.01953125 2.24609375 C-376.66478541 2.23413153 -376.66478541 2.23413153 -375.28267097 2.22192764 C-362.83595779 2.1080553 -350.42615779 1.79584324 -337.99649048 1.10403442 C-322.97805071 0.3214438 -308.02737633 0.9062408 -293.04789734 2.00961304 C-291.09444177 2.15238182 -289.14097581 2.29500843 -287.1875 2.4375 C-286.27829866 2.50401197 -285.36909733 2.57052395 -284.43234444 2.63905144 C-269.08808332 3.74440992 -253.78316334 4.35495682 -238.40234375 4.59765625 C-237.25262211 4.61743027 -236.10290047 4.63720428 -234.91833878 4.65757751 C-203.16875585 5.19517029 -171.41618502 5.0774538 -139.66345215 5.00520325 C-128.96722727 4.98088327 -118.27101124 4.95817519 -107.57476389 4.94658184 C-103.32412099 4.94168115 -99.0735282 4.9319615 -94.8229053 4.91815186 C-91.57774359 4.9088618 -88.33257439 4.90616526 -85.08740234 4.90234375 C-83.37957077 4.89459427 -83.37957077 4.89459427 -81.63723755 4.88668823 C-75.01730149 4.88625721 -68.49835985 5.19964787 -61.9054966 5.80757141 C-57.38298563 6.1070935 -52.99669731 5.73251268 -48.5 5.25 C-47.57219727 5.15855713 -46.64439453 5.06711426 -45.68847656 4.97290039 C-37.35684412 4.11680476 -29.07570622 2.94370501 -20.796875 1.68359375 C-13.89562282 0.65842318 -6.98667762 -0.18385994 0 0 Z " fill="#FFFFFF" transform="translate(1106,74)"/>
<path d="M0 0 C0.66 0 1.32 0 2 0 C5.43864723 14.69906613 2.57574632 32.00322513 1.92993164 46.94140625 C1.58623048 54.95981986 1.28206167 62.97918733 1 71 C0.97562489 71.66979889 0.95124977 72.33959778 0.92613602 73.0296936 C0.09798627 95.86499093 -0.04518944 118.67917844 0.09970999 141.52728581 C0.56059969 214.35905647 -0.51635874 286.61518893 -5.60430908 359.31365967 C-5.98410032 364.74761025 -6.35018148 370.18239907 -6.71044922 375.61767578 C-6.76612847 376.45765736 -6.82180773 377.29763893 -6.87917423 378.16307449 C-6.98922178 379.82507577 -7.09919324 381.48708208 -7.20908546 383.14909363 C-7.47421944 387.15627848 -7.74085734 391.16336253 -8.00805664 395.17041016 C-8.05940482 395.94066402 -8.110753 396.71091789 -8.16365719 397.50451279 C-8.46542795 402.02010009 -8.77253069 406.53528815 -9.08416271 411.05020523 C-10.65561048 433.81965978 -11.96394133 456.59741123 -13.1205368 479.39167023 C-13.24653617 481.86938545 -13.37399604 484.34702173 -13.50177002 486.824646 C-14.05231135 497.5476808 -14.55302351 508.2721464 -15 519 C-15.02858471 519.67373405 -15.05716942 520.34746811 -15.08662033 521.04161835 C-16.40276903 552.35757711 -16.1202502 583.7107147 -16.07202828 615.04728657 C-16.06062694 622.58598281 -16.05529634 630.12468022 -16.05032361 637.66338301 C-16.04000698 653.108932 -16.02254042 668.5544637 -16 684 C-17.32 684 -18.64 684 -20 684 C-20.86086468 675.09927411 -21.0716999 666.24631693 -21.04296875 657.30859375 C-21.04060715 656.0828363 -21.03824554 654.85707886 -21.03581238 653.59417725 C-21.0299711 650.72605757 -21.0221063 647.85794988 -21.0133667 644.98983765 C-21.00304148 641.44461002 -20.9966527 637.89939668 -20.99249268 634.35415649 C-20.90961369 564.75251771 -19.43218278 495.46383631 -15 426 C-14.94686897 425.1643325 -14.89373795 424.32866501 -14.83899689 423.46767426 C-14.19359774 413.31925242 -13.53275633 403.1718851 -12.86422729 393.02496338 C-12.5596354 388.39943942 -12.2580216 383.77372465 -11.95727539 379.14794922 C-11.90657992 378.36871849 -11.85588446 377.58948776 -11.80365276 376.78664398 C-11.54118911 372.74966127 -11.27974693 368.71261514 -11.0196991 364.67547607 C-10.4944579 356.53370835 -9.96079647 348.39270585 -9.40364742 340.25305176 C-4.8493574 273.64170851 -3.40577506 207.4123459 -3.85406327 140.67398119 C-3.89543645 134.49541241 -3.93418023 128.31682747 -3.97090435 122.13822937 C-3.97986556 120.63523749 -3.9890181 119.13224674 -3.99836445 117.6292572 C-4.14733093 93.27446749 -3.63661994 69.00893065 -2.36701679 44.68219471 C-1.87917105 35.12654282 -1.64790054 25.56518306 -1.4375 16 C-1.41083425 14.80097455 -1.41083425 14.80097455 -1.3836298 13.57772636 C-1.31051829 10.26541577 -1.24012873 6.95307442 -1.17358398 3.640625 C-1 1 -1 1 0 0 Z " fill="#FFFFFF" transform="translate(1145,329)"/>
<path d="M0 0 C0.99 0 1.98 0 3 0 C2.97381592 0.97976807 2.94763184 1.95953613 2.9206543 2.96899414 C2.28837642 29.51867183 3.4766878 55.77300666 5.32125473 82.2417984 C7.56569618 114.52119376 8.65658687 146.47184621 8.05462646 178.84448242 C7.98477464 182.8794986 7.94007182 186.91458248 7.89625549 190.94995117 C7.65155789 212.77231258 6.99971741 234.58021194 6.265625 256.390625 C6.23227869 257.38273546 6.19893238 258.37484592 6.16457558 259.39702034 C5.82603025 269.44794366 5.48158233 279.49861875 5.12026691 289.54875088 C3.99857006 320.79324376 3.95766943 351.78036278 5.15126419 383.02153778 C5.28635219 386.58353328 5.41729484 390.14567669 5.5482378 393.70782661 C6.28910773 413.854117 7.07490961 433.99848562 7.88953781 454.14192009 C8.23914109 462.79491672 8.58565903 471.44803726 8.9315033 480.10118484 C9.01894874 482.28658505 9.10660595 484.47197679 9.19447327 486.65736008 C10.41179698 516.94393113 11.34779012 547.21980653 11.94722748 577.52470016 C12.77776215 619.43188059 14.7870673 661.18290031 19.13647461 702.89379883 C19.77043727 708.97405682 20.12912893 714.88574526 20 721 C18.68 721.33 17.36 721.66 16 722 C16.02102783 721.44086914 16.04205566 720.88173828 16.0637207 720.30566406 C16.23842216 711.35199932 15.31564747 702.53200512 14.46157837 693.63217163 C11.23212163 659.67163459 8.92975846 625.78318107 8.52355957 591.66693115 C8.1887839 564.74951175 7.18867395 537.8576871 6.19678879 510.95778275 C6.06480949 507.37519126 5.93380232 503.79256538 5.80300903 500.20993042 C4.97182726 477.4913352 4.10158365 454.77575284 3.06308174 432.06560898 C1.62781826 400.64050775 0.81979963 369.29148687 0.87122726 337.83237839 C0.87506482 335.2692027 0.87708514 332.70603078 0.87869263 330.14285278 C0.91746491 277.79135334 0.91746491 277.79135334 2.24072266 252.28320312 C2.97467549 238.06556435 3.28192215 223.85916527 3.5 209.625 C3.71312861 195.75769703 3.94764358 181.90525427 4.6697998 168.05337524 C5.29654298 155.46796311 4.94619889 142.98213683 4.1953125 130.41015625 C4.11010199 128.93503131 4.02522045 127.45988734 3.94064331 125.98472595 C3.76314651 122.90283784 3.58309215 119.82111476 3.40087891 116.73950195 C3.17340758 112.89243081 2.95015312 109.04513207 2.72865391 105.1977129 C2.51069141 101.41427418 2.29077668 97.63094994 2.0703125 93.84765625 C2.02667635 93.09818033 1.9830402 92.34870441 1.93808174 91.57651711 C1.47193447 83.59992493 0.98437046 75.62584201 0.42749023 67.6550293 C-0.57600066 53.22015948 -1.30701681 38.87215446 -1.20581055 24.3996582 C-1.18678847 21.58210778 -1.18530738 18.76487534 -1.18554688 15.94726562 C-1.18065464 14.1354138 -1.17483664 12.32356417 -1.16796875 10.51171875 C-1.16685593 9.6787175 -1.1657431 8.84571625 -1.16459656 7.98747253 C-1.11633092 2.23266184 -1.11633092 2.23266184 0 0 Z " fill="#FFFFFF" transform="translate(171,333)"/>
<path d="M0 0 C2.9375 1.6875 2.9375 1.6875 6 4 C7.53529812 4.8039477 9.07744318 5.59491019 10.625 6.375 C14.73432172 8.66873607 17.07288387 10.55925414 19 15 C19.83758036 19.41026828 19.87781342 23.1885405 17.89453125 27.28125 C14.6371694 31.96207024 11.10325276 34.55043867 6 37 C6.9075 37.53625 7.815 38.0725 8.75 38.625 C12.1999556 40.98764732 14.1787072 43.14726523 16 47 C16.89233813 52.44576445 16.75122018 57.44032294 14.125 62.375 C10.28263234 67.63525545 4.75503947 70.36000081 -1.58984375 71.44140625 C-7.44839849 71.72124477 -12.26916192 70.52900854 -17 67 C-20.56870625 62.88226202 -22 59.45681835 -22 54 C-20.3380103 47.76265041 -17.96239597 43.13532998 -13 39 C-13.49371094 38.60167969 -13.98742187 38.20335937 -14.49609375 37.79296875 C-15.13675781 37.26316406 -15.77742188 36.73335937 -16.4375 36.1875 C-17.07558594 35.66542969 -17.71367187 35.14335938 -18.37109375 34.60546875 C-21.27069127 31.74759205 -21.26732417 28.44560301 -21.4375 24.5625 C-21.35938335 16.50672048 -18.33019888 10.14528252 -13.32421875 3.9140625 C-9.06290189 -0.25908919 -5.84858559 -0.92834692 0 0 Z M-7.78125 4.25 C-13.63844571 10.21369018 -17.84008694 16.36469472 -18 25 C-16.74054011 28.77837966 -15.31973546 30.69586139 -12.4375 33.4375 C-7.62483364 35.62507562 -4.06092985 35.31096376 1 34 C7.09404543 31.57009581 11.26649076 28.36691953 15 23 C16.31189996 20.04594318 16.31189996 20.04594318 15.125 17.25 C12.17402328 12.73674149 8.36321258 10.08562808 4 7 C3.4121875 6.56042969 2.824375 6.12085938 2.21875 5.66796875 C-1.13178779 3.2490856 -3.97960253 1.58217722 -7.78125 4.25 Z M-11.921875 41.7734375 C-14.91097952 45.75397767 -17.62079791 49.86698824 -18.5 54.8125 C-17.78879028 59.34646196 -15.38199548 61.9903343 -12 65 C-7.75662085 67.56139587 -3.83787484 67.87961361 1 67 C5.71321703 64.84750718 9.12428353 62.27376941 12.0625 58 C13.55521327 53.22331755 13.74373006 50.45771092 11.4375 45.9375 C8.54381196 42.45023493 5.83044435 40.41176126 2 38 C-2.98940536 38 -8.13170632 38.27600542 -11.921875 41.7734375 Z " fill="#FFFFFF" transform="translate(339,632)"/>
<path d="M0 0 C2.0625 0.4375 2.0625 0.4375 4 1 C3.89300781 1.61488281 3.78601563 2.22976563 3.67578125 2.86328125 C3.55589844 3.67152344 3.43601562 4.47976563 3.3125 5.3125 C3.12107422 6.51326172 3.12107422 6.51326172 2.92578125 7.73828125 C2.79181435 10.06261561 2.79181435 10.06261561 4.29296875 11.796875 C6.06078667 13.29536014 6.06078667 13.29536014 9 12.9375 C11.99720796 12.22867565 11.99720796 12.22867565 13.8125 10.375 C15.35501495 7.2899701 15.67192103 4.41202126 16 1 C17.32 1.33 18.64 1.66 20 2 C27.12403672 30.82961242 27.12403672 30.82961242 25 41 C22.43549267 44.12682455 20.84474885 45.71841705 17 47 C9.24880686 47.70994412 2.6591933 47.27359218 -4 43 C-7.60088998 39.39911002 -7.97948858 36.23068491 -8.0625 31.25 C-8.041875 30.1775 -8.02125 29.105 -8 28 C-5.43376912 30.4275157 -3.27335241 32.47814539 -1.625 35.625 C0.63077875 38.9219074 3.22623454 40.0968168 7 41 C13.15133039 41.82703305 13.15133039 41.82703305 18.734375 39.7890625 C20.77270897 36.90771387 21.11345292 34.0750183 20.74633789 30.59643555 C20.57352295 29.784729 20.40070801 28.97302246 20.22265625 28.13671875 C19.94711914 26.80737305 19.94711914 26.80737305 19.66601562 25.45117188 C19.46685547 24.53916016 19.26769531 23.62714844 19.0625 22.6875 C18.86720703 21.75615234 18.67191406 20.82480469 18.47070312 19.86523438 C17.98913215 17.57483581 17.49866228 15.28672729 17 13 C16.08089844 13.81210938 15.16179688 14.62421875 14.21484375 15.4609375 C11.75467254 17.63472132 10.98456998 18.00280546 7.5625 18.625 C2.87176901 17.80206474 0.66694896 15.99342772 -3 13 C-3 13.66 -3 14.32 -3 15 C-7.75345592 19.23653163 -12.65723034 21.84456628 -19.046875 22.1796875 C-21.79438027 21.92691701 -23.22090824 21.08849903 -25 19 C-25 18.34 -25 17.68 -25 17 C-25.99 17 -26.98 17 -28 17 C-28 16.01 -28 15.02 -28 14 C-27.34 14 -26.68 14 -26 14 C-26.12375 12.14375 -26.12375 12.14375 -26.25 10.25 C-26.2286346 7.23747924 -26.0939071 6.15651183 -24.5 3.5 C-20.82446159 1.29467695 -18.24887214 1.65173179 -14 2 C-13 3 -13 3 -12.625 5.6875 C-13.14341466 10.26682948 -14.77016288 11.77016288 -18 15 C-18.66 15 -19.32 15 -20 15 C-20 15.66 -20 16.32 -20 17 C-14.23673414 17.46106127 -11.54225544 16.53286534 -7 13 C-6.2575 12.608125 -5.515 12.21625 -4.75 11.8125 C-2.23691598 9.20966298 -2.0004835 6.46073649 -1.39453125 2.9609375 C-1 1 -1 1 0 0 Z M-20.6875 6.25 C-21.120625 6.8275 -21.55375 7.405 -22 8 C-21.77242269 10.16299211 -21.77242269 10.16299211 -21 12 C-19.35 10.68 -17.7 9.36 -16 8 C-16.33 7.01 -16.66 6.02 -17 5 C-19.0821538 4.80159082 -19.0821538 4.80159082 -20.6875 6.25 Z " fill="#FFFFFF" transform="translate(750,1182)"/>
<path d="M0 0 C8.00065484 4.56771594 8.00065484 4.56771594 9.46484375 7.49609375 C6.98984375 7.00109375 6.98984375 7.00109375 4.46484375 6.49609375 C5.39296875 7.60984375 5.39296875 7.60984375 6.33984375 8.74609375 C10.99173303 14.76618576 11.38274372 19.98863822 10.46484375 27.49609375 C7.6294231 35.31657953 0.38564178 41.24577633 -6.84765625 44.93359375 C-13.27684942 47.50527102 -20.1723587 47.45307252 -26.78515625 45.49609375 C-31.47914865 43.47332177 -34.75139041 39.69998362 -37.53515625 35.49609375 C-39.91772552 28.71064792 -39.4927495 20.66449439 -36.53515625 14.18359375 C-33.70626035 9.21908066 -30.17520998 5.77808297 -25.53515625 2.49609375 C-24.94089844 2.06167969 -24.34664062 1.62726562 -23.734375 1.1796875 C-16.62878597 -3.1871306 -7.53338659 -3.20481087 0 0 Z M-29.53515625 10.49609375 C-33.38907962 15.4538107 -35.31042818 20.11803916 -34.8828125 26.43359375 C-33.91658016 32.16584854 -30.90416925 35.71906775 -26.48046875 39.2265625 C-22.42712572 41.87181649 -18.90676157 42.8327331 -14.0859375 42.1484375 C-5.37923079 39.92176059 1.37356956 34.83351832 6.46484375 27.49609375 C8.30374939 23.35855605 8.60501438 21.19694691 7.71484375 16.74609375 C4.91402069 10.41000959 -0.40195088 3.57032227 -6.65234375 0.43359375 C-14.81879082 -1.14066111 -23.95805794 5.04023671 -29.53515625 10.49609375 Z " fill="#FFFFFF" transform="translate(606.53515625,565.50390625)"/>
<path d="M0 0 C3.125 1.5625 3.125 1.5625 5 4 C5.8125 7.75 5.8125 7.75 6 11 C5.34 11 4.68 11 4 11 C3.67 8.69 3.34 6.38 3 4 C-2.41800322 3.06586151 -5.82683326 2.76613254 -11 5 C-11.65097656 5.25265625 -12.30195313 5.5053125 -12.97265625 5.765625 C-15.65078606 7.39623968 -16.64022681 9.22877753 -18.1875 11.9375 C-18.69667969 12.81277344 -19.20585937 13.68804688 -19.73046875 14.58984375 C-22.68009745 20.18960039 -22.59115639 25.80106844 -22 32 C-19.87867959 36.39977566 -17.19178357 39.46543319 -13 42 C-7.4254126 42.96483244 -3.75746995 41.32484496 0.91015625 38.484375 C5.18276398 35.44962558 7.66753914 32.8617808 8.625 27.5 C7.85104403 23.16584655 6.51177114 20.581747 3 18 C-0.58643719 16.37300673 -4.22797243 15.12302047 -8 14 C-8 13.34 -8 12.68 -8 12 C-5.93571843 12.25690181 -3.87358906 12.53113046 -1.8125 12.8125 C-0.66394531 12.96332031 0.48460937 13.11414063 1.66796875 13.26953125 C6.28335152 14.28134435 9.0738301 15.69058738 11.8125 19.5625 C13.3995368 24.15655389 13.70632455 28.189145 13 33 C11.3125 36.3125 11.3125 36.3125 9 39 C8.278125 39.86625 7.55625 40.7325 6.8125 41.625 C1.25819358 46.3153032 -4.61833423 48.71912032 -11.9375 48.3125 C-17.90150145 47.40886342 -21.1039989 44.14324541 -24.80078125 39.71875 C-28.73769027 34.07627453 -27.73877111 24.62707365 -27 18 C-24.82078321 10.66661902 -20.64093554 5.5139793 -14.375 1.1875 C-9.53311562 -0.51612599 -5.07689295 -0.68001002 0 0 Z " fill="#FFFFFF" transform="translate(340,709)"/>
<path d="M0 0 C1.20308991 0.63810294 2.39836854 1.29331857 3.5625 2 C3.5625 2.66 3.5625 3.32 3.5625 4 C4.325625 4.226875 5.08875 4.45375 5.875 4.6875 C9.37067551 6.39469036 10.14946657 7.35586114 11.5625 11 C12.92207651 20.26304876 10.27292696 26.75200157 4.98828125 34.2265625 C0.28786049 40.0774359 -5.34244208 43.63498069 -12.4375 46 C-19.8542001 46.66143086 -25.48553266 46.71197415 -31.4375 42 C-37.25554708 34.4977814 -37.52923661 26.15518546 -36.4375 17 C-35.26095773 13.26330175 -33.63907527 10.2260077 -31.4375 7 C-30.81875 6.05125 -30.2 5.1025 -29.5625 4.125 C-21.63513479 -3.80236521 -10.18961306 -4.52153987 0 0 Z M-23.4375 4 C-23.94667969 4.48726562 -24.45585938 4.97453125 -24.98046875 5.4765625 C-29.7134454 10.40820731 -33.13498827 16.47708073 -33.59765625 23.39453125 C-33.14061822 29.93797814 -30.69435074 34.54970492 -26.25 39.375 C-22.29840298 41.65814494 -18.99801883 42.43227667 -14.4375 42 C-3.89572313 38.30332936 2.40506206 31.72190841 7.5625 22 C8.55559945 19.3065939 8.68037755 17.94693865 8.5625 15 C5.51472181 9.07805123 1.14172497 4.59926255 -4.4375 1 C-11.49744637 -0.99232679 -17.93483557 -1.3684531 -23.4375 4 Z " fill="#FFFFFF" transform="translate(548.4375,569)"/>
<path d="M0 0 C8.89582092 0.75709114 17.02876006 4.1912355 23 11 C27.84427539 18.75967517 28.74291016 25.93030513 28 35 C26.44761288 41.2686067 24.02751301 45.83084287 19 50 C17.700625 51.11375 17.700625 51.11375 16.375 52.25 C11.45079682 55.87836023 5.88506632 55.60705555 0 55 C-6.12734433 51.99203097 -10.23139859 47.17995329 -12.45703125 40.6875 C-14.90225313 28.58453125 -13.34664868 16.07087754 -7.0625 5.375 C-4.83412896 2.80899698 -3.24680893 1.90189137 0 1 C0 0.67 0 0.34 0 0 Z M-2.5 5.875 C-8.44204655 12.29387745 -10.34212168 22.04605488 -10.21484375 30.53125 C-9.57025814 37.93812459 -7.32395264 43.80589986 -2 49 C1.47955699 51.55167513 4.7830749 51.42883984 9 51 C15.46095382 48.16624833 20.04297895 44.10009692 23.109375 37.67578125 C25.63603998 30.61663393 24.93021227 24.96054551 22.24609375 18.0625 C19.50214611 12.54999532 14.68401441 7.68199446 9.06640625 5.1171875 C4.7465911 3.79801814 1.24481244 3.06639067 -2.5 5.875 Z " fill="#FFFFFF" transform="translate(332,575)"/>
<path d="M0 0 C0 0.66 0 1.32 0 2 C-1.32 2 -2.64 2 -4 2 C-3.45730469 2.6290625 -2.91460937 3.258125 -2.35546875 3.90625 C3.74135277 11.20046529 7.65677673 17.05853273 7.2890625 26.76953125 C6.32190849 34.2323007 2.61346907 40.89520006 -3.0625 45.8125 C-8.10710334 49.56911951 -12.90893909 49.63970046 -19 49 C-24.5072411 47.34042831 -27.21097528 43.821128 -30.0546875 39 C-34.72543731 29.11808304 -31.39572039 17.77656751 -28 8 C-26.05430378 3.86036357 -23.81243422 1.50370921 -19.875 -0.9375 C-13.35773274 -3.25284495 -6.22572524 -2.82068057 0 0 Z M-23.1875 6.5 C-27.68626139 15.18726337 -29.80294671 25.30648406 -26.8125 34.75 C-24.31414026 39.22981746 -21.08089494 43.46033487 -16 45 C-9.62895292 44.72299795 -5.75940442 41.71848804 -1.3125 37.375 C2.21797657 32.79803037 4.29283682 27.40906265 3.79296875 21.58984375 C1.96842368 14.35051977 -2.67335398 5.32664602 -8 0 C-15.00898587 -0.68715548 -18.61168189 1.27049359 -23.1875 6.5 Z " fill="#FFFFFF" transform="translate(345,775)"/>
<path d="M0 0 C0.99 0.33 1.98 0.66 3 1 C2.89076636 12.39087556 2.77784788 23.78170872 2.66066074 35.17250538 C2.6063086 40.46598145 2.55306528 45.75946303 2.50268555 51.05297852 C2.25758627 76.71222001 1.86811984 102.35362045 1 128 C-0.65 128 -2.3 128 -4 128 C-3.75931355 115.93213546 -3.51599087 103.86432701 -3.26950932 91.79657936 C-3.15507632 86.19009394 -3.04147533 80.58359449 -2.92993164 74.97705078 C-2.07363276 31.99663658 -2.07363276 31.99663658 -1.49609375 16.2734375 C-1.44329002 14.77413193 -1.44329002 14.77413193 -1.38941956 13.24453735 C-1.20674831 8.74965799 -0.88023979 4.42548459 0 0 Z " fill="#FFFFFF" transform="translate(1134,87)"/>
<path d="M0 0 C1.01586182 -0.01546875 1.01586182 -0.01546875 2.05224609 -0.03125 C6.6716902 0.05032959 9.84753651 1.11278579 13.8125 3.4375 C13.8125 4.0975 13.8125 4.7575 13.8125 5.4375 C14.8025 5.7675 15.7925 6.0975 16.8125 6.4375 C19.61063934 9.53543999 20.07582046 12.1447701 19.9375 16.1875 C18.93696266 23.55409357 14.41233414 28.32513476 8.8125 32.875 C1.66818187 36.59599903 -5.25091764 37.14395518 -13.1875 36.4375 C-17.99650103 34.80587465 -20.4210932 32.66172284 -23.1875 28.4375 C-23.63937731 25.65287944 -23.85690029 23.39791182 -23.8125 20.625 C-23.803396 19.91375977 -23.79429199 19.20251953 -23.78491211 18.46972656 C-23.55514667 13.23611383 -22.6933757 9.71615084 -19.05859375 5.921875 C-13.04249148 1.14918426 -7.64528417 0.09777025 0 0 Z M-16.6875 9.9375 C-17.43 11.175 -17.43 11.175 -18.1875 12.4375 C-18.868125 13.55125 -18.868125 13.55125 -19.5625 14.6875 C-20.51575793 18.8818349 -19.64910911 22.43493966 -18.1875 26.4375 C-15.70974448 29.76965397 -13.21439092 31.43077727 -9.1875 32.4375 C-1.70535444 32.31068397 5.32837619 29.85827611 10.74609375 24.5390625 C13.72980312 20.8040594 16.03190885 17.37419921 15.8125 12.4375 C13.04658528 7.28284075 8.06602042 4.63393772 2.8125 2.4375 C-4.54221812 1.10027852 -11.54516612 4.79516612 -16.6875 9.9375 Z " fill="#FFFFFF" transform="translate(435.1875,574.5625)"/>
<path d="M0 0 C3.67135521 2.94493733 6.44514804 5.76618041 7.6015625 10.421875 C7.98116841 16.85519626 6.02790571 22.01915075 2 27 C-2.67710253 31.43372389 -7.83066202 32.89512848 -14.1875 33.1953125 C-20.33056789 32.76871056 -25.90081795 30.71046359 -30 26 C-33.89090988 20.16363518 -34.84349643 16.01156409 -34 9 C-32.19653039 3.08748884 -29.05198042 -0.56465331 -24 -4 C-15.49610348 -8.06708095 -7.42560513 -4.8380766 0 0 Z M-27.3125 4.1875 C-29.63554362 8.05923936 -30.32682516 11.49618989 -30 16 C-27.65360935 20.88049255 -24.26750185 23.82207309 -20 27 C-15.20434592 28.59855136 -11.21402375 29.04893912 -6.6171875 26.87109375 C-1.97392198 23.93648864 1.57849843 21.0535685 4 16 C4.74192794 12.043051 4.28195898 10.48335825 2.25 7 C-2.30203895 2.06971139 -9.52617499 -1.70589702 -16.18359375 -2.26953125 C-21.02099453 -1.80658998 -23.88302217 0.94339935 -27.3125 4.1875 Z " fill="#FFFFFF" transform="translate(493,577)"/>
<path d="M0 0 C0.61875 0.495 1.2375 0.99 1.875 1.5 C0.885 1.995 0.885 1.995 -0.125 2.5 C-1.115 2.17 -2.105 1.84 -3.125 1.5 C-7.7291409 0.96504268 -11.20567654 1.06635686 -15.4375 3.0625 C-19.36691928 6.62639191 -21.74284801 9.75194072 -22.47265625 15 C-22.64540388 20.0472352 -22.2560794 23.36697519 -19.125 27.5 C-18.795 28.49 -18.465 29.48 -18.125 30.5 C-13.7680754 33.03829759 -9.31090828 33.88161668 -4.375 32.9375 C0.85252114 31.43481535 3.80675272 29.1735874 6.75 24.5625 C8.02103826 21.10245141 8.23375208 19.8968802 6.875 16.5 C3.06126979 10.59486935 -1.78515348 8.28214624 -8.125 5.5 C-8.125 4.84 -8.125 4.18 -8.125 3.5 C-0.79385775 4.38822157 4.30163735 5.51954827 9.875 10.5 C12.98606633 15.37224625 12.6724998 20.94598352 11.875 26.5 C9.50444952 31.90346065 5.46987787 35.560999 0.08203125 37.87890625 C-6.82954385 39.82393358 -12.92297635 38.90503259 -19.125 35.5 C-23.36225934 32.89986359 -25.12181822 30.32479987 -26.62109375 25.70703125 C-28.12471454 19.12140529 -27.72427278 12.33697855 -24.125 6.5 C-17.52892183 -0.60452586 -9.40768443 -4.51568853 0 0 Z " fill="#FFFFFF" transform="translate(391.125,572.5)"/>
<path d="M0 0 C4.2157302 1.80674151 5.00677248 4.11099532 6.828125 8.203125 C13.0625 23.90743671 13.0625 23.90743671 13.0625 28.3125 C12.4025 28.3125 11.7425 28.3125 11.0625 28.3125 C5.20910427 21.80872696 2.9004177 13.43616131 0.0625 5.3125 C-3.48513592 6.76812793 -3.86207178 7.15326265 -5.625 10.875 C-7.1134321 15.28367115 -7.62698685 19.68692475 -7.9375 24.3125 C-8.9275 24.3125 -9.9175 24.3125 -10.9375 24.3125 C-11.26363281 23.43207031 -11.58976563 22.55164062 -11.92578125 21.64453125 C-12.36277344 20.48308594 -12.79976562 19.32164063 -13.25 18.125 C-13.67925781 16.97644531 -14.10851562 15.82789063 -14.55078125 14.64453125 C-15.79540418 11.65393023 -17.19080854 9.03242131 -18.9375 6.3125 C-20.86859581 6.26960245 -20.86859581 6.26960245 -22.9375 7.3125 C-26.11838834 12.94022553 -26.96418378 18.9802192 -27.9375 25.3125 C-29.2575 25.3125 -30.5775 25.3125 -31.9375 25.3125 C-32.7772028 22.39753169 -33.60946003 19.4807814 -34.4375 16.5625 C-34.67597656 15.7375 -34.91445313 14.9125 -35.16015625 14.0625 C-35.38574219 13.26328125 -35.61132812 12.4640625 -35.84375 11.640625 C-36.05322266 10.9074707 -36.26269531 10.17431641 -36.47851562 9.41894531 C-36.9375 7.3125 -36.9375 7.3125 -36.9375 3.3125 C-35.6175 3.3125 -34.2975 3.3125 -32.9375 3.3125 C-31.62123308 6.93223402 -30.9375 9.40817131 -30.9375 13.3125 C-30.2775 13.3125 -29.6175 13.3125 -28.9375 13.3125 C-28.855 12.425625 -28.7725 11.53875 -28.6875 10.625 C-27.8092488 6.74605719 -26.90274689 4.96561564 -23.9375 2.3125 C-20.5 1.6875 -20.5 1.6875 -16.9375 2.3125 C-14.125 4.6875 -14.125 4.6875 -11.9375 7.3125 C-11.2775 7.9725 -10.6175 8.6325 -9.9375 9.3125 C-9.525 8.384375 -9.1125 7.45625 -8.6875 6.5 C-6.33198391 2.20959569 -4.93178872 0.52465837 0 0 Z " fill="#FFFFFF" transform="translate(619.9375,1183.6875)"/>
<path d="M0 0 C0.99 0.495 0.99 0.495 2 1 C2.38685216 3.38778439 2.64007769 5.68253863 2.82202148 8.08886719 C2.88576965 8.83246994 2.94951782 9.57607269 3.01519775 10.34220886 C3.22600606 12.82644257 3.4234028 15.31156581 3.62109375 17.796875 C3.76708311 19.54208864 3.91399483 21.28722535 4.06178284 23.0322876 C4.45183187 27.66314725 4.83097212 32.29483424 5.20739746 36.92681885 C5.801869 44.22052729 6.41210386 51.51294143 7.02235794 58.80534363 C7.1716024 60.59240928 7.32019938 62.37952913 7.46815109 64.16670227 C8.20113319 73.01575009 8.95305928 81.85946519 9.89111328 90.68945312 C9.9619579 91.35660969 10.03280252 92.02376625 10.10579395 92.71113968 C10.43008781 95.73710523 10.76547528 98.76140214 11.11460876 101.78460693 C11.90482466 108.88685304 12.14706092 115.85532761 12 123 C11.01 123 10.02 123 9 123 C6.46599615 105.21151234 4.8123458 87.40711736 3.375 69.5 C3.15744336 66.84104666 2.93798001 64.18225379 2.71875 61.5234375 C2.13002026 54.35017073 1.55871165 47.17566384 1 40 C0.93463043 39.16878632 0.86926086 38.33757263 0.8019104 37.48117065 C0.13029854 28.82673077 -0.13067622 20.24185769 -0.0625 11.5625 C-0.05798828 10.43779297 -0.05347656 9.31308594 -0.04882812 8.15429688 C-0.03726149 5.43613681 -0.02097051 2.71810088 0 0 Z " fill="#FFFFFF" transform="translate(161,76)"/>
<path d="M0 0 C0.66 0 1.32 0 2 0 C2.20681396 1.07483643 2.41362793 2.14967285 2.62670898 3.25708008 C3.39436483 7.2438031 4.16467576 11.23000924 4.93579102 15.21606445 C5.26919876 16.94151037 5.60188576 18.66709572 5.93383789 20.39282227 C6.41102837 22.87292882 6.89080632 25.35252283 7.37109375 27.83203125 C7.51904892 28.60400345 7.66700409 29.37597565 7.81944275 30.17134094 C8.40619111 33.18958195 9.02642666 36.07927998 10 39 C10.66 38.030625 11.32 37.06125 12 36.0625 C14.15075915 33.48403307 15.67416299 32.4792083 19 31.9375 C22.82240538 31.7431404 25.03676151 32.46008129 28 35 C31.21307701 38.7670558 31.32545885 42.07008034 31.30078125 46.81640625 C30.9643749 49.25862894 30.26907352 50.89552916 29 53 C25.55636005 55.5508444 22.15712039 55.43004694 18 55 C15.95708818 53.73339467 13.95309888 52.40113616 12 51 C10.34528778 50.61164917 8.67834398 50.26842202 7 50 C-0.50009898 13.61380553 -0.50009898 13.61380553 0 0 Z M14.00390625 39.33203125 C12.69834085 41.50120022 12.22146328 43.49008278 12 46 C15.32824888 48.75712925 17.9250684 50.81395415 22.25 51.5625 C25.03017826 51.20455075 25.03017826 51.20455075 26.9375 49.5 C28.50182034 45.81924627 28.14215042 42.79162859 27 39 C25.0175968 36.16799543 23.8974256 35.23010913 20.5625 34.375 C17.35926584 35.15627663 15.96756919 36.74048863 14.00390625 39.33203125 Z " fill="#FFFFFF" transform="translate(318,393)"/>
<path d="M0 0 C0.66 1.98 1.32 3.96 2 6 C1.4225 5.649375 0.845 5.29875 0.25 4.9375 C-1.90179073 3.85904317 -1.90179073 3.85904317 -4 4.0625 C-7.94612519 5.91224618 -10.4974566 9.99321761 -12 14 C-12.34165718 16.80158891 -12.45656651 18.31515023 -10.875 20.6875 C-5.03420862 24.77605397 2.12706141 24.57739213 9 25 C9 25.66 9 26.32 9 27 C0.96972528 29.37650135 -6.59053097 28.55037058 -14 25 C-17.16046246 25.26337187 -18.26797194 26.17864796 -21 28 C-23.48046875 28.1953125 -23.48046875 28.1953125 -26.1875 28.125 C-27.08855469 28.10695313 -27.98960937 28.08890625 -28.91796875 28.0703125 C-29.60503906 28.04710937 -30.29210937 28.02390625 -31 28 C-31.33 27.01 -31.66 26.02 -32 25 C-30.1746875 24.6596875 -30.1746875 24.6596875 -28.3125 24.3125 C-24.04439716 23.27390304 -21.84971116 21.384032 -19 18 C-19.9032013 14.6581552 -20.66352626 13.24394346 -23.5 11.1875 C-28.08799735 9.63085804 -32.2033529 9.74405243 -37 10 C-37 10.66 -37 11.32 -37 12 C-38.32 11.67 -39.64 11.34 -41 11 C-40.67 10.01 -40.34 9.02 -40 8 C-33.57981397 5.45867636 -27.01048051 4.74107179 -20.5625 7.4375 C-19.716875 7.953125 -18.87125 8.46875 -18 9 C-17.34 9.33 -16.68 9.66 -16 10 C-15.60167969 9.44570313 -15.20335937 8.89140625 -14.79296875 8.3203125 C-13.99826172 7.23363281 -13.99826172 7.23363281 -13.1875 6.125 C-12.66542969 5.40570312 -12.14335937 4.68640625 -11.60546875 3.9453125 C-8.08722834 -0.31766493 -5.24463938 -0.19791092 0 0 Z " fill="#FFFFFF" transform="translate(487,968)"/>
<path d="M0 0 C2.875 2.5 2.875 2.5 5 5 C6.32 5 7.64 5 9 5 C9.21914063 5.76183594 9.43828125 6.52367187 9.6640625 7.30859375 C11.62345344 13.68856182 13.85128766 18.8831759 17.828125 24.2578125 C19 26 19 26 19 28 C14.8994827 27.14175219 12.68222272 26.02726851 10.25 22.6875 C8.44408303 19.91184627 7.05122377 17.15367132 6 14 C5.0409375 15.5778125 5.0409375 15.5778125 4.0625 17.1875 C0.1012039 22.70862657 -5.10747755 25.51791293 -11.75 26.625 C-15 26 -15 26 -17.9375 24.1875 C-20.95961556 19.51695778 -20.85189407 15.41390625 -20 10 C-16.02231474 1.58566579 -9.03088254 -1.83037988 0 0 Z M-15 9 C-16.80331401 12.95341917 -17.45254916 14.77545522 -15.9375 18.875 C-14.1497368 21.11332981 -14.1497368 21.11332981 -11.6875 22.0625 C-7.89969445 21.9744115 -5.72913426 20.44703625 -3 18 C-0.56016725 15.41751574 1.74697127 12.74629537 4 10 C3.34 9.67 2.68 9.34 2 9 C1.5 6.5 1.5 6.5 1 4 C-5.66019582 0.66990209 -10.75604792 3.81168325 -15 9 Z " fill="#FFFFFF" transform="translate(874,793)"/>
<path d="M0 0 C1.4375 1.5625 1.4375 1.5625 1.4375 3.5625 C0.55707031 3.45550781 -0.32335937 3.34851563 -1.23046875 3.23828125 C-2.39191406 3.11839844 -3.55335938 2.99851562 -4.75 2.875 C-5.89855469 2.74738281 -7.04710937 2.61976563 -8.23046875 2.48828125 C-11.99987535 2.57224224 -13.60440971 3.28704593 -16.5625 5.5625 C-20.62410401 11.50984872 -21.49571452 16.39371572 -20.5625 23.5625 C-18.16856189 26.51971767 -16.38455023 27.25662085 -12.875 28.5625 C-7.25671726 28.5625 -2.33785427 26.0315062 2.5703125 23.43359375 C4.9448978 22.32578512 6.84984768 22.41874154 9.4375 22.5625 C9.06492043 25.10036081 8.77371434 26.27202365 6.80078125 27.9765625 C-0.87278654 32.50762158 -7.53139148 34.81433682 -16.5625 33.5625 C-20.67313211 31.95543543 -23.65059445 29.96835439 -26.0625 26.25 C-27.6345794 17.80007321 -26.1527313 10.07142115 -21.875 2.625 C-15.65596311 -2.92170857 -7.37088784 -4.1348883 0 0 Z " fill="#FFFFFF" transform="translate(861.5625,575.4375)"/>
<path d="M0 0 C3.45616172 0.58360625 5.03684732 1.74055227 7.5 4.1875 C14.1841252 10.27192799 22.71279816 13.60978107 31 17 C31.77181261 25.84923077 25.05302253 33.64972811 19.75 40.3125 C17 43 17 43 13 43 C13.44113464 37.82807663 14.95698975 35.3494096 18.375 31.5 C21.60893805 27.83416794 23.96805742 24.45716436 26 20 C24.1128125 19.690625 24.1128125 19.690625 22.1875 19.375 C13.90348488 17.5065234 6.20530016 13.45686984 0.94921875 6.6796875 C-0.35452398 4.37265304 -0.46998816 2.58493488 0 0 Z " fill="#FFFFFF" transform="translate(157,1174)"/>
<path d="M0 0 C5.15965071 4.87300344 7.7768444 11.99355267 8.08984375 19.015625 C8.18085801 24.63828397 8.18085801 24.63828397 7 27 C6.34 27 5.68 27 5 27 C4.82984375 26.39414063 4.6596875 25.78828125 4.484375 25.1640625 C1.30824329 14.11439085 1.30824329 14.11439085 -4 4 C-5.91466367 4.12177688 -5.91466367 4.12177688 -8 5 C-10.84473246 8.88973622 -11.76725755 12.62364562 -12.6875 17.3125 C-12.93886719 18.56675781 -13.19023437 19.82101562 -13.44921875 21.11328125 C-13.63097656 22.06589844 -13.81273437 23.01851562 -14 24 C-15.32 24.33 -16.64 24.66 -18 25 C-18.82134989 22.50261142 -19.63215748 20.00255195 -20.4375 17.5 C-20.66759766 16.80390625 -20.89769531 16.1078125 -21.13476562 15.390625 C-22.67049584 10.58312172 -23.5077359 6.02448869 -24 1 C-22.140625 1.18359375 -22.140625 1.18359375 -20 2 C-18.734375 4.28515625 -18.734375 4.28515625 -17.75 7.0625 C-17.24726563 8.44115234 -17.24726563 8.44115234 -16.734375 9.84765625 C-16.49203125 10.55792969 -16.2496875 11.26820312 -16 12 C-15.74605469 11.38511719 -15.49210937 10.77023437 -15.23046875 10.13671875 C-14.88628906 9.32847656 -14.54210937 8.52023437 -14.1875 7.6875 C-13.85105469 6.88699219 -13.51460938 6.08648438 -13.16796875 5.26171875 C-10.01965427 -0.8348501 -6.52723887 -1.57554042 0 0 Z " fill="#FFFFFF" transform="translate(507,1181)"/>
<path d="M0 0 C1.3125 2.0625 1.3125 2.0625 2 4 C0.02 3.34 -1.96 2.68 -4 2 C-5.58538318 4.51796153 -6.0373656 5.67865586 -5.6875 8.6875 C-5.21715153 10.94160952 -5.21715153 10.94160952 -4 12 C-2.31391034 12.07205511 -0.62499341 12.08386068 1.0625 12.0625 C1.98160156 12.05347656 2.90070313 12.04445312 3.84765625 12.03515625 C4.55792969 12.02355469 5.26820313 12.01195312 6 12 C5.87625 10.6696875 5.87625 10.6696875 5.75 9.3125 C6 6 6 6 7.5 3.125 C10.55452407 0.52865454 12.19341459 0.36518019 16.09375 0.65625 C18.95643684 1.17247222 20.22970104 1.63960139 22 4 C22.42529538 8.46560145 22.72337779 12.21753084 20 16 C15.26679763 18.36660119 8.98584354 17.05760317 4 16 C3.34 16.33 2.68 16.66 2 17 C-6.64147775 17.41813602 -6.64147775 17.41813602 -10 15 C-11.60086627 11.79826746 -11.49917089 8.47422941 -11 5 C-7.86545848 0.08921829 -5.73560878 -1.86407286 0 0 Z M13 3 C11.33378575 4.1645201 11.33378575 4.1645201 10 6 C9.91975342 8.59889783 9.91975342 8.59889783 11 11 C12.96758273 12.36020151 12.96758273 12.36020151 15 13 C16.32 11.68 17.64 10.36 19 9 C17.95125002 6.37812506 17.35068687 5.20628639 14.875 3.75 C14.25625 3.5025 13.6375 3.255 13 3 Z " fill="#FFFFFF" transform="translate(225,164)"/>
<path d="M0 0 C4.33026815 1.77652027 6.04356753 3.13411908 8.03515625 7.51171875 C8.53638863 8.89903475 9.02431529 10.29121792 9.5 11.6875 C9.86448242 12.71133789 9.86448242 12.71133789 10.23632812 13.75585938 C10.72769513 15.13611841 11.2134505 16.51838789 11.69360352 17.90258789 C12.45452104 20.04799072 13.27058737 22.16686547 14.09375 24.2890625 C15.52559894 28.2432965 15.98734197 30.83691078 15.4375 35 C13.9375 37.9375 13.9375 37.9375 11.4375 40 C6.64895081 40.69511198 4.5072266 40.5348633 0.1875 38.375 C-2.76623959 35.82404308 -4.64596713 33.39078893 -6.5625 30 C-6.5625 29.34 -6.5625 28.68 -6.5625 28 C-3.5306446 29.38117857 -1.22483024 31.04248789 1.3125 33.1875 C4.64997967 35.7728516 4.64997967 35.7728516 8.9375 35.875 C9.7625 35.58625 10.5875 35.2975 11.4375 35 C11.86923825 29.07130874 10.60646812 25.31284463 7.9375 20.0625 C7.60363281 19.37865234 7.26976562 18.69480469 6.92578125 17.99023438 C6.10856961 16.32078773 5.2747253 14.65950015 4.4375 13 C3.4475 13.495 3.4475 13.495 2.4375 14 C0.5625 14.16796875 0.5625 14.16796875 -1.5625 14.1875 C-2.614375 14.20876953 -2.614375 14.20876953 -3.6875 14.23046875 C-5.5625 14 -5.5625 14 -7.5625 12 C-8.14905721 7.55892397 -8.04692666 5.66435656 -5.375 2 C-2.5625 0 -2.5625 0 0 0 Z M-1.5625 3 C-3.83052406 5.69990757 -3.83052406 5.69990757 -3.3125 8.125 C-2.72513073 10.1955029 -2.72513073 10.1955029 -0.5625 11 C0.7575 10.01 2.0775 9.02 3.4375 8 C3.1075 6.68 2.7775 5.36 2.4375 4 C1.1175 3.67 -0.2025 3.34 -1.5625 3 Z " fill="#FFFFFF" transform="translate(505.5625,154)"/>
<path d="M0 0 C2.4375 1.3125 2.4375 1.3125 4 3 C4 3.99 4 4.98 4 6 C3.01 5.67 2.02 5.34 1 5 C-2.37248616 4.33241215 -2.37248616 4.33241215 -6 5 C-10.34312239 8.41527352 -12.69647045 12.65552884 -14 18 C-8.45091256 14.72099379 -5.10161337 11.30484011 -3 5 C-1.15625 5.20703125 -1.15625 5.20703125 1 6 C2.34375 8.07421875 2.34375 8.07421875 3.5 10.6875 C4.93609199 13.79532756 6.34375821 16.69645604 8.3125 19.5 C10 22 10 22 10 24 C5.94596818 23.07862913 4.30346868 22.38548724 1.6875 19.0625 C0 16 0 16 -1 13 C-1.763125 13.94875 -2.52625 14.8975 -3.3125 15.875 C-5.15534046 18.16609895 -6.46837417 19.31224944 -9 21 C-11.04296875 21.1953125 -11.04296875 21.1953125 -13.1875 21.125 C-14.445625 21.08375 -15.70375 21.0425 -17 21 C-18.77922164 17.44155671 -17.9790072 13.7548508 -17 10 C-12.90388107 2.55366033 -8.72400761 -0.77892925 0 0 Z " fill="#FFFFFF" transform="translate(234,1185)"/>
<path d="M0 0 C3.22153655 2.14110303 6.25264061 4.50528122 8 8 C8.42074378 11.05940837 8.47999423 13.9459708 8 17 C5.47031526 20.28175318 3.92268669 21.69243777 0 23 C-5.35966151 23.34578461 -8.61908568 23.45162946 -13 20 C-15.09678541 15.80642919 -14.55270329 10.55524691 -14 6 C-10.27501479 0.86556092 -6.28310715 -0.84580289 0 0 Z M-5 4 C-7.60314669 6.18328432 -8.89677366 7.71460954 -10.0625 10.9375 C-10.2868984 14.19049251 -10.2868984 14.19049251 -7.875 16.9375 C-5.24999952 19.21373269 -5.24999952 19.21373269 -2.5 19.125 C0.83335421 17.6249906 2.73854086 15.86008067 5 13 C5.0415542 10.93956959 5.0415542 10.93956959 4 9 C1.93297415 7.43526659 1.93297415 7.43526659 -0.5625 6.25 C-1.38878906 5.82203125 -2.21507812 5.3940625 -3.06640625 4.953125 C-3.70449219 4.63859375 -4.34257812 4.3240625 -5 4 Z " fill="#FFFFFF" transform="translate(470,1180)"/>
<path d="M0 0 C8.36097149 5.24609976 11.23893439 14.90904462 14 24 C14 24.99 14 25.98 14 27 C11.32632915 26.40585092 9.51497866 25.76862486 7.953125 23.4375 C6.90897515 21.31496589 5.9507481 19.16599003 5 17 C4.13563889 15.2031766 3.26048626 13.41150736 2.375 11.625 C1.97023438 10.79226563 1.56546875 9.95953125 1.1484375 9.1015625 C0.05618367 6.86857238 0.05618367 6.86857238 -2 5 C-4.53084814 4.68758887 -4.53084814 4.68758887 -7 6 C-10.36440446 12.368337 -10.6565558 18.89425793 -11 26 C-11.99 26 -12.98 26 -14 26 C-14.33965474 23.81347261 -14.67142477 21.62571975 -15 19.4375 C-15.2784375 17.61025391 -15.2784375 17.61025391 -15.5625 15.74609375 C-15.98555077 12.12372152 -16.07501425 8.64287954 -16 5 C-14.68 5.33 -13.36 5.66 -12 6 C-11.319375 4.7934375 -11.319375 4.7934375 -10.625 3.5625 C-7.84289088 -0.82467207 -4.9722532 -0.49722532 0 0 Z " fill="#FFFFFF" transform="translate(673,1185)"/>
<path d="M0 0 C0.99 0 1.98 0 3 0 C3.66 6.6 4.32 13.2 5 20 C6.65 17.36 8.3 14.72 10 12 C10.99 11.01 11.98 10.02 13 9 C14.32 9 15.64 9 17 9 C17 9.99 17 10.98 17 12 C16.2575 12.721875 15.515 13.44375 14.75 14.1875 C10.94880587 18.07508491 8 22.44287219 8 28 C11.52155964 30.34770643 13.50771843 30.37669614 17.6875 30.625 C18.86699219 30.69976563 20.04648437 30.77453125 21.26171875 30.8515625 C22.61716797 30.92503906 22.61716797 30.92503906 24 31 C24 31.66 24 32.32 24 33 C20.49288381 34.16903873 17.63217614 34.16839619 13.9375 34.1875 C12.68839844 34.20167969 11.43929687 34.21585938 10.15234375 34.23046875 C7 34 7 34 5 32 C4.67 32.99 4.34 33.98 4 35 C3.01 35 2.02 35 1 35 C0.03046618 27.27214866 -0.12131488 19.65666099 -0.0625 11.875 C-0.05798828 10.72773437 -0.05347656 9.58046875 -0.04882812 8.3984375 C-0.03716339 5.59890187 -0.02079614 2.79948014 0 0 Z " fill="#FFFFFF" transform="translate(696,1174)"/>
<path d="M0 0 C2 2 2 2 2.0625 5.3125 C0.66021133 10.17926657 -1.73499118 11.58353286 -6 14 C-3.03051422 15.71948485 -1.08547775 16.22039127 2.328125 15.9765625 C3.52695312 15.89921875 3.52695312 15.89921875 4.75 15.8203125 C5.575 15.75585938 6.4 15.69140625 7.25 15.625 C8.09046875 15.56828125 8.9309375 15.5115625 9.796875 15.453125 C11.86529042 15.31209668 13.9327646 15.15738212 16 15 C11.50902738 19.69380614 5.73121185 21.14692394 -0.6875 21.375 C-5.85288942 21.1770234 -9.19990813 19.20006125 -13.4375 16.375 C-15.56492143 13.14131943 -15.35574127 10.94694764 -14.73046875 7.1953125 C-12.33198561 -0.01296304 -6.53998405 -0.76299814 0 0 Z M-8.3125 4.8125 C-10.30540173 6.93543204 -10.30540173 6.93543204 -10 10 C-5.16743695 9.58578031 -3.17320782 7.53586014 0 4 C-1.04142874 2.75655686 -1.04142874 2.75655686 -3.3125 2.6875 C-6.13150606 2.77838681 -6.13150606 2.77838681 -8.3125 4.8125 Z " fill="#FFFFFF" transform="translate(338,1181)"/>
<path d="M0 0 C3.03878278 0.07066937 5.21984465 0.2528671 7.4765625 2.4140625 C10.28458594 6.14167257 11.65307744 9.25872497 12 14 C8.30712847 13.09729807 6.44631711 12.59508949 4.125 9.5 C3 7 3 7 3 5 C2.34 5 1.68 5 1 5 C0.34 8.63 -0.32 12.26 -1 16 C-2.32 16 -3.64 16 -5 16 C-5.99 12.7 -6.98 9.4 -8 6 C-10.03977277 9.24509304 -11.66511872 12.40608886 -13 16 C-14.32 16 -15.64 16 -17 16 C-17.33 12.04 -17.66 8.08 -18 4 C-17.34 4 -16.68 4 -16 4 C-15.01 5.485 -15.01 5.485 -14 7 C-13.608125 6.195625 -13.21625 5.39125 -12.8125 4.5625 C-11 2 -11 2 -8.5 1 C-6 1 -6 1 -4.1875 2.4375 C-3.795625 2.953125 -3.40375 3.46875 -3 4 C-2.01 2.68 -1.02 1.36 0 0 Z " fill="#FFFFFF" transform="translate(915,138)"/>
<path d="M0 0 C3.03978021 0.68164768 4.80055419 2.23591662 6.93359375 4.43359375 C8.4752255 7.51685725 8.2310691 10.04237474 7.93359375 13.43359375 C6.49609375 15.37109375 6.49609375 15.37109375 3.93359375 16.43359375 C-3.64039728 17.14659823 -3.64039728 17.14659823 -7.06640625 15.43359375 C-6.63328125 16.97080078 -6.63328125 16.97080078 -6.19140625 18.5390625 C-5.81607244 19.89964754 -5.44109101 21.26032983 -5.06640625 22.62109375 C-4.875625 23.29462891 -4.68484375 23.96816406 -4.48828125 24.66210938 C-3.48382265 28.33914531 -2.82935884 31.61861195 -3.06640625 35.43359375 C-4.38640625 35.10359375 -5.70640625 34.77359375 -7.06640625 34.43359375 C-9.00404183 27.31674355 -10.41398496 20.2760978 -11.06640625 12.93359375 C-11.19015625 11.62390625 -11.31390625 10.31421875 -11.44140625 8.96484375 C-11.06640625 5.43359375 -11.06640625 5.43359375 -8.81640625 2.5 C-5.462595 -0.02012237 -4.01945604 -0.25074111 0 0 Z M-4.69140625 4.55859375 C-6.5402356 7.07972468 -6.72568422 9.3670955 -7.06640625 12.43359375 C-3.8961586 14.01871758 -0.51973597 13.85731519 2.93359375 13.43359375 C4.94283875 12.10000381 4.94283875 12.10000381 5.93359375 10.43359375 C4.12946732 7.16898402 3.09964682 5.5442958 -0.06640625 3.43359375 C-2.98471408 3.14898876 -2.98471408 3.14898876 -4.69140625 4.55859375 Z " fill="#FFFFFF" transform="translate(262.06640625,1184.56640625)"/>
<path d="M0 0 C0.66 0 1.32 0 2 0 C3.32 7.59 4.64 15.18 6 23 C10.80080602 23.1701891 10.80080602 23.1701891 15.6027832 23.29785156 C18.76515818 23.45878668 20.56551775 23.57728498 22.875 25.82421875 C27 33.80208333 27 33.80208333 27 38 C25.35 37.67 23.7 37.34 22 37 C21.34 33.37 20.68 29.74 20 26 C15.71 26.66 11.42 27.32 7 28 C7.33 29.32 7.66 30.64 8 32 C8.12205329 34.67540816 8.04467313 37.31961238 8 40 C5.69857565 38.21825212 4.19965609 36.83695835 3.51171875 33.953125 C3.27676898 31.9753389 3.13248542 29.98728128 3 28 C0.03 28.33 -2.94 28.66 -6 29 C-6.33 28.34 -6.66 27.68 -7 27 C-4.03 26.34 -1.06 25.68 2 25 C1.5359375 22.958125 1.5359375 22.958125 1.0625 20.875 C-0.25296821 14.32584757 -0.87925078 7.67836048 -1 1 C-0.67 0.67 -0.34 0.34 0 0 Z " fill="#FFFFFF" transform="translate(863,119)"/>
<path d="M0 0 C0.66 0 1.32 0 2 0 C4.00616752 8.2921591 5.70834692 16.56626517 7 25 C7.515625 24.01 8.03125 23.02 8.5625 22 C11 19 11 19 14.5 18.25 C18 19 18 19 20.375 21.4375 C22.31123244 25.68231728 22.79471028 29.3809814 23 34 C21.140625 33.77734375 21.140625 33.77734375 19 33 C17.734375 31.00390625 17.734375 31.00390625 16.75 28.5625 C16.41484375 27.75941406 16.0796875 26.95632812 15.734375 26.12890625 C15 24 15 24 15 22 C14.34 22 13.68 22 13 22 C12.731875 22.70125 12.46375 23.4025 12.1875 24.125 C10.9318551 27.1649824 9.49764877 30.0727774 8 33 C6.68 33 5.36 33 4 33 C2.33859167 26.03514412 1.22577999 19.09928976 0.3125 12 C0.17005859 10.95199219 0.02761719 9.90398437 -0.11914062 8.82421875 C-0.24869141 7.83035156 -0.37824219 6.83648437 -0.51171875 5.8125 C-0.68900513 4.46091797 -0.68900513 4.46091797 -0.86987305 3.08203125 C-0.91281494 2.39496094 -0.95575684 1.70789063 -1 1 C-0.67 0.67 -0.34 0.34 0 0 Z " fill="#FFFFFF" transform="translate(465,138)"/>
<path d="M0 0 C1.24652344 -0.01417969 2.49304688 -0.02835938 3.77734375 -0.04296875 C7.0625 0.1875 7.0625 0.1875 10.0625 2.1875 C6.1025 2.8475 2.1425 3.5075 -1.9375 4.1875 C-0.80570312 4.81398438 0.32609375 5.44046875 1.4921875 6.0859375 C2.97405643 6.91128222 4.45582191 7.73681272 5.9375 8.5625 C6.68386719 8.975 7.43023437 9.3875 8.19921875 9.8125 C8.91464844 10.21210937 9.63007813 10.61171875 10.3671875 11.0234375 C11.3569458 11.57330322 11.3569458 11.57330322 12.36669922 12.13427734 C14.0625 13.1875 14.0625 13.1875 16.0625 15.1875 C16.1875 17.8125 16.1875 17.8125 16.0625 20.1875 C8.71831853 22.96368908 0.94737593 23.46013177 -6.5625 21 C-9.22350626 18.96923206 -10.53901319 17.21755475 -11.9375 14.1875 C-11.9375 13.5275 -11.9375 12.8675 -11.9375 12.1875 C-9.72095373 13.21661077 -7.82880823 14.26984225 -5.875 15.75 C-2.62951176 18.15794288 0.14934047 18.32414631 4.0625 18.3125 C5.361875 18.31636719 5.361875 18.31636719 6.6875 18.3203125 C9.21261695 18.28344205 9.21261695 18.28344205 12.0625 17.1875 C5.39609321 12.44021032 -1.55737122 8.70898277 -8.9375 5.1875 C-8.9375 3.8675 -8.9375 2.5475 -8.9375 1.1875 C-5.98162889 -0.29043555 -3.28752355 0.01696349 0 0 Z " fill="#FFFFFF" transform="translate(372.9375,1179.8125)"/>
<path d="M0 0 C3.11138783 0.61646189 4.90332371 1.54973323 7.0625 3.875 C9.22901087 7.46328363 9.79104645 9.08942624 9.0625 13.1875 C8 15 8 15 6.0625 16.1875 C1.53668706 17.2572376 -0.91938193 17.47473644 -4.9375 15.1875 C-4.3993629 20.87801363 -3.7974867 26.53615884 -2.9375 32.1875 C-4.2575 31.8575 -5.5775 31.5275 -6.9375 31.1875 C-7.61446772 28.18950008 -8.27925788 25.18961777 -8.9375 22.1875 C-9.12828125 21.34832031 -9.3190625 20.50914063 -9.515625 19.64453125 C-10.66118346 14.36677979 -11.1374931 9.5873138 -10.9375 4.1875 C-9.9475 4.5175 -8.9575 4.8475 -7.9375 5.1875 C-7.4425 4.341875 -6.9475 3.49625 -6.4375 2.625 C-3.9375 0.1875 -3.9375 0.1875 0 0 Z M-2.9375 3.1875 C-5.03499995 5.54718744 -5.90655704 6.73366994 -6.125 9.9375 C-6.063125 10.68 -6.00125 11.4225 -5.9375 12.1875 C-3.16046649 14.07588279 -1.75020766 14.18104164 1.6875 14.0625 C5.13582749 13.55907672 5.13582749 13.55907672 6.5 11.125 C6.685625 10.485625 6.87125 9.84625 7.0625 9.1875 C4.82842111 5.83638166 3.80034176 4.37196044 -0.1875 3.375 C-1.095 3.313125 -2.0025 3.25125 -2.9375 3.1875 Z " fill="#FFFFFF" transform="translate(289.9375,1183.8125)"/>
<path d="M0 0 C0.66 0 1.32 0 2 0 C3.00868917 3.41416247 4.00542321 6.83170229 5 10.25 C5.28617188 11.21808594 5.57234375 12.18617188 5.8671875 13.18359375 C6.13789062 14.11816406 6.40859375 15.05273438 6.6875 16.015625 C6.93886719 16.87446289 7.19023438 17.73330078 7.44921875 18.61816406 C8 21 8 21 8 25 C8.66 25 9.32 25 10 25 C10.144375 24.360625 10.28875 23.72125 10.4375 23.0625 C11 21 11 21 12 20 C14.1875 19.5 14.1875 19.5 17 20 C21.09892315 23.55445466 23.91498373 28.0191278 26 33 C26 33.66 26 34.32 26 35 C22.9777185 34.68046363 22.11860783 34.14413103 20.1484375 31.75 C19.27058594 30.38875 19.27058594 30.38875 18.375 29 C16.23535997 25.39688097 16.23535997 25.39688097 13 23 C12.34 25.97 11.68 28.94 11 32 C9.02 32.495 9.02 32.495 7 33 C4.7879432 26.48113565 3.24018368 19.85030959 1.8125 13.125 C1.63364258 12.29250732 1.45478516 11.46001465 1.27050781 10.60229492 C1.10518555 9.80799072 0.93986328 9.01368652 0.76953125 8.1953125 C0.62104736 7.48391113 0.47256348 6.77250977 0.31958008 6.03955078 C0 4 0 4 0 0 Z " fill="#FFFFFF" transform="translate(518,133)"/>
<path d="M0 0 C2 2 2 2 2.25 5.5 C2 9 2 9 0 11 C-6.23284388 12.94177059 -13.52463273 14.12316105 -20 13 C-23.32863173 10.66995779 -24.73655718 9.38307483 -25.5 5.375 C-25 3 -25 3 -23.9375 1.125 C-20.88430685 -0.64782183 -18.33588292 0.30764694 -15 1 C-15 1.66 -15 2.32 -15 3 C-17.97 2.505 -17.97 2.505 -21 2 C-20.81171228 4.44480079 -20.81171228 4.44480079 -20 7 C-17.0093375 9.21530556 -13.62706314 9.50540048 -10 10 C-10.061875 8.741875 -10.12375 7.48375 -10.1875 6.1875 C-10.16918653 3.60530019 -10.13161109 2.25548035 -8.9375 -0.0625 C-5.79513385 -1.58299975 -3.30307292 -0.78072633 0 0 Z M-6 3 C-6 4.32 -6 5.64 -6 7 C-5.01 7.33 -4.02 7.66 -3 8 C-2.34 6.68 -1.68 5.36 -1 4 C-2.65 3.67 -4.3 3.34 -6 3 Z " fill="#FFFFFF" transform="translate(605,149)"/>
<path d="M0 0 C0 1.65 0 3.3 0 5 C-3.96 6.98 -3.96 6.98 -8 9 C-2.60748173 10.90812185 2.31524634 12.39523897 8 13 C7.67 13.99 7.34 14.98 7 16 C1.51212461 17.8292918 -4.72494768 17.97502242 -10.0625 15.6875 C-13.01330183 13.11744679 -13.94855944 11.47153843 -14.375 7.5625 C-14 4 -14 4 -12.625 1.5625 C-8.58260252 -0.84368898 -4.59120485 -0.31542629 0 0 Z M-7 3 C-7.99 4.485 -7.99 4.485 -9 6 C-7.35 5.34 -5.7 4.68 -4 4 C-4.99 3.67 -5.98 3.34 -7 3 Z " fill="#FFFFFF" transform="translate(285,163)"/>
<path d="M0 0 C0.99 0.66 1.98 1.32 3 2 C2.67 2.99 2.34 3.98 2 5 C2.15994315 6.42294252 2.37362599 7.84033397 2.625 9.25 C3.251559 14.11178058 2.35127312 16.73287471 0 21 C-0.66 21.66 -1.32 22.32 -2 23 C-6.11406503 22.92237613 -8.48951235 22.33670462 -11.9375 20.0625 C-14.85900316 15.72451046 -14.90209322 12.08748066 -14 7 C-11.13297004 0.35915852 -6.92798485 -0.80940813 0 0 Z M-8.125 4.0625 C-10.38337317 7.60061796 -11.07504931 9.79723877 -11 14 C-8.97791641 17.10614087 -8.97791641 17.10614087 -6 19 C-3.77713532 19.25695267 -3.77713532 19.25695267 -2 18 C0.35669561 14.81846093 0.38575449 11.85754492 0 8 C-1.39924945 4.69898869 -1.39924945 4.69898869 -3 2 C-6.13476623 1.65176231 -6.13476623 1.65176231 -8.125 4.0625 Z " fill="#FFFFFF" transform="translate(647,1189)"/>
<path d="M0 0 C1.13976288 -0.00143509 1.13976288 -0.00143509 2.30255127 -0.00289917 C3.89587487 -0.0035753 5.48920132 -0.00176089 7.08251953 0.00244141 C9.52252327 0.00782773 11.96234544 0.00246194 14.40234375 -0.00390625 C15.95572957 -0.00324595 17.50911528 -0.00196579 19.0625 0 C20.15470856 -0.00303635 20.15470856 -0.00303635 21.26898193 -0.00613403 C24.37489911 0.00830802 26.79564287 0.14281846 29.765625 1.1328125 C29.765625 2.1228125 29.765625 3.1128125 29.765625 4.1328125 C28.86432861 4.12757568 27.96303223 4.12233887 27.03442383 4.11694336 C23.62556289 4.09969491 20.21674968 4.08726347 16.80786133 4.07788086 C15.34463764 4.07291426 13.88141875 4.06613872 12.41821289 4.05737305 C1.11514631 3.99145465 -10.06726179 4.1625105 -21.234375 6.1328125 C-20.234375 3.1328125 -20.234375 3.1328125 -18.109375 2.0078125 C-12.15740865 0.19634448 -6.1800001 -0.01737363 0 0 Z " fill="#FFFFFF" transform="translate(837.234375,1193.8671875)"/>
<path d="M0 0 C0.66 0.66 1.32 1.32 2 2 C1.625 4.625 1.625 4.625 1 7 C0.01 7.33 -0.98 7.66 -2 8 C0.76355745 10.99022147 3.85657583 12.79272224 7.35546875 14.81640625 C7.89816406 15.20699219 8.44085937 15.59757813 9 16 C9 16.66 9 17.32 9 18 C0.73370621 17.70582584 -4.05126258 16.94873742 -10 11 C-10.1953125 8.8359375 -10.1953125 8.8359375 -10.125 6.375 C-10.10695313 5.55773437 -10.08890625 4.74046875 -10.0703125 3.8984375 C-10.04710937 3.27195313 -10.02390625 2.64546875 -10 2 C-6.47337274 0.07638513 -4.05009412 -0.3521821 0 0 Z " fill="#FFFFFF" transform="translate(941,138)"/>
<path d="M0 0 C0.99 0.66 1.98 1.32 3 2 C3 2.66 3 3.32 3 4 C0.36 4 -2.28 4 -5 4 C-5.33 4.66 -5.66 5.32 -6 6 C-5.21753906 6.42152344 -4.43507813 6.84304687 -3.62890625 7.27734375 C-2.11103516 8.09912109 -2.11103516 8.09912109 -0.5625 8.9375 C0.44683594 9.48277344 1.45617187 10.02804688 2.49609375 10.58984375 C5 12 5 12 6 13 C6.04063832 14.66617115 6.042721 16.33388095 6 18 C1.96961634 19.34346122 -1.79838392 19.26676927 -6 19 C-8 17.75 -8 17.75 -9 16 C-9 14.68 -9 13.36 -9 12 C-8.236875 12.309375 -7.47375 12.61875 -6.6875 12.9375 C-4.81210323 13.67893593 -2.91315348 14.36228217 -1 15 C-0.67 14.67 -0.34 14.34 0 14 C-0.721875 13.63648438 -1.44375 13.27296875 -2.1875 12.8984375 C-4.94918412 11.40252527 -7.50675542 9.91221019 -10 8 C-10.9375 4.8125 -10.9375 4.8125 -10 2 C-6.57844382 -1.03052118 -4.28677561 -1.4665285 0 0 Z " fill="#FFFFFF" transform="translate(573,147)"/>
<path d="M0 0 C0.80824219 0.11085937 1.61648437 0.22171875 2.44921875 0.3359375 C3.37154297 0.47902344 3.37154297 0.47902344 4.3125 0.625 C4.3125 1.285 4.3125 1.945 4.3125 2.625 C2.6625 2.955 1.0125 3.285 -0.6875 3.625 C-0.14480469 3.87894531 0.39789063 4.13289062 0.95703125 4.39453125 C1.67246094 4.73871094 2.38789063 5.08289063 3.125 5.4375 C3.83269531 5.77394531 4.54039062 6.11039063 5.26953125 6.45703125 C7.35967419 7.65196956 8.79043095 8.76309793 10.3125 10.625 C10.375 13.125 10.375 13.125 9.3125 15.625 C4.99247291 18.60787585 1.48527289 19.02290561 -3.6875 18.625 C-4.3475 18.295 -5.0075 17.965 -5.6875 17.625 C-6.3125 14.5625 -6.3125 14.5625 -6.6875 11.625 C-6.006875 11.955 -5.32625 12.285 -4.625 12.625 C-1.17909762 13.79807315 1.69647422 13.76680493 5.3125 13.625 C5.3125 12.635 5.3125 11.645 5.3125 10.625 C1.0225 9.305 -3.2675 7.985 -7.6875 6.625 C-7.6875 4.975 -7.6875 3.325 -7.6875 1.625 C-4.33422361 -0.61051759 -3.78006343 -0.54783528 0 0 Z " fill="#FFFFFF" transform="translate(200.6875,164.375)"/>
<path d="M0 0 C0.33 1.65 0.66 3.3 1 5 C0.01 5.66 -0.98 6.32 -2 7 C-0.9275 7.45375 0.145 7.9075 1.25 8.375 C3.88062317 9.50088537 6.46000396 10.67920206 9 12 C8.67 12.66 8.34 13.32 8 14 C-4.32992799 14.59236309 -4.32992799 14.59236309 -9 11 C-10.7648937 7.61728708 -11.22134172 5.90548884 -10.3125 2.1875 C-7.73472762 -2.1087873 -4.3176153 -0.86352306 0 0 Z M-5 3 C-5.33 3.66 -5.66 4.32 -6 5 C-5.01 4.67 -4.02 4.34 -3 4 C-3.66 3.67 -4.32 3.34 -5 3 Z " fill="#FFFFFF" transform="translate(641,145)"/>
<path d="M0 0 C0.33 0 0.66 0 1 0 C1.0501123 0.68513672 1.10022461 1.37027344 1.15185547 2.07617188 C1.38574446 5.21802764 1.63029178 8.35896913 1.875 11.5 C1.95363281 12.57765625 2.03226562 13.6553125 2.11328125 14.765625 C2.78965497 23.29833958 3.9855986 30.33614278 8 38 C8 38.66 8 39.32 8 40 C4.18688695 38.5019913 2.27516449 36.37351976 0 33 C-0.98670191 29.27099943 -1.12868228 25.74064807 -1.1328125 21.89453125 C-1.13410156 20.74662109 -1.13539063 19.59871094 -1.13671875 18.41601562 C-1.13285156 17.22685547 -1.12898438 16.03769531 -1.125 14.8125 C-1.12886719 13.61173828 -1.13273437 12.41097656 -1.13671875 11.17382812 C-1.13542969 10.02978516 -1.13414062 8.88574219 -1.1328125 7.70703125 C-1.13168457 6.6600708 -1.13055664 5.61311035 -1.12939453 4.53442383 C-1 2 -1 2 0 0 Z " fill="#FFFFFF" transform="translate(309,1170)"/>
<path d="M0 0 C0.66 0.66 1.32 1.32 2 2 C1.43410156 2.23074219 0.86820313 2.46148437 0.28515625 2.69921875 C-4.32196801 4.5705256 -4.32196801 4.5705256 -7.0625 8.4375 C-6.99803482 11.08057227 -6.65803281 13.44098351 -6 16 C-7.32 16 -8.64 16 -10 16 C-11.921875 13.69921875 -11.921875 13.69921875 -13.75 10.6875 C-14.36359375 9.70136719 -14.9771875 8.71523437 -15.609375 7.69921875 C-17 5 -17 5 -17 2 C-16.38125 2.33 -15.7625 2.66 -15.125 3 C-13.08981656 4.14193235 -13.08981656 4.14193235 -11 4 C-9.97895449 3.02149805 -8.9793879 2.02019573 -8 1 C-5.23749964 -0.38125018 -3.05268901 -0.19079306 0 0 Z " fill="#FFFFFF" transform="translate(626,145)"/>
<path d="M0 0 C3.3125 0.4375 3.3125 0.4375 5.3125 2.4375 C4.75820313 2.66824219 4.20390625 2.89898437 3.6328125 3.13671875 C-1.01503782 5.15239447 -1.01503782 5.15239447 -4.1875 8.9375 C-4.81824409 11.66630216 -4.81824409 11.66630216 -4.6875 15.4375 C-6.0075 15.4375 -7.3275 15.4375 -8.6875 15.4375 C-9.52569158 13.81500059 -10.3579116 12.18941503 -11.1875 10.5625 C-11.6515625 9.65757812 -12.115625 8.75265625 -12.59375 7.8203125 C-13.6875 5.4375 -13.6875 5.4375 -13.6875 3.4375 C-9.8125 4.3125 -9.8125 4.3125 -8.6875 5.4375 C-8.006875 4.6125 -7.32625 3.7875 -6.625 2.9375 C-3.6875 0.4375 -3.6875 0.4375 0 0 Z " fill="#FFFFFF" transform="translate(263.6875,163.5625)"/>
<path d="M0 0 C1.010625 -0.01224609 2.02125 -0.02449219 3.0625 -0.03710938 C4.031875 -0.03904297 5.00125 -0.04097656 6 -0.04296875 C6.886875 -0.04707764 7.77375 -0.05118652 8.6875 -0.05541992 C11 0.1875 11 0.1875 14 2.1875 C7.05352247 4.05414319 1.08773272 4.31008057 -6.0625 3.8125 C-7.50399414 3.72742188 -7.50399414 3.72742188 -8.97460938 3.640625 C-11.31733744 3.50076064 -13.65871949 3.34954185 -16 3.1875 C-11.69614391 -1.11635609 -5.69079414 0.00362933 0 0 Z " fill="#FFFFFF" transform="translate(753,139.8125)"/>
<path d="M0 0 C1.28003906 -0.00257813 2.56007813 -0.00515625 3.87890625 -0.0078125 C6.88057844 0.10421478 9.52836189 0.42144645 12.4375 1.125 C12.4375 1.785 12.4375 2.445 12.4375 3.125 C4.09412197 5.10852006 -5.16283833 4.72493556 -13.5625 3.125 C-13.5625 2.465 -13.5625 1.805 -13.5625 1.125 C-8.99150043 0.23482079 -4.65403562 -0.0093926 0 0 Z " fill="#FFFFFF" transform="translate(335.5625,164.875)"/>
<path d="M0 0 C-5.55651968 3.70434645 -11.35193739 3.12513036 -17.8125 3.0625 C-18.69615234 3.05798828 -19.57980469 3.05347656 -20.49023438 3.04882812 C-22.66018559 3.03709866 -24.83010172 3.01916495 -27 3 C-27.33 2.34 -27.66 1.68 -28 1 C-18.67465558 -1.05598145 -9.40881868 -2.13836788 0 0 Z " fill="#FFFFFF" transform="translate(717,142)"/>
<path d="M0 0 C4.24994263 -0.05805933 8.49978324 -0.09361654 12.75 -0.125 C13.9565625 -0.14175781 15.163125 -0.15851563 16.40625 -0.17578125 C17.56640625 -0.18222656 18.7265625 -0.18867188 19.921875 -0.1953125 C20.99018555 -0.20578613 22.05849609 -0.21625977 23.15917969 -0.22705078 C25.97979105 -0.00161519 27.60787463 0.54151006 30 2 C24.42813859 3.25736974 19.00165477 3.22195734 13.3125 3.25 C12.25482422 3.270625 11.19714844 3.29125 10.10742188 3.3125 C9.09873047 3.31765625 8.09003906 3.3228125 7.05078125 3.328125 C5.66886597 3.34214355 5.66886597 3.34214355 4.2590332 3.35644531 C3.14081177 3.18000488 3.14081177 3.18000488 2 3 C1.34 2.01 0.68 1.02 0 0 Z " fill="#FFFFFF" transform="translate(961,140)"/>
<path d="M0 0 C-1.87381601 2.53516284 -2.99453537 2.9988061 -6.12890625 3.68359375 C-10.41823492 4.03418469 -14.63720537 4.11040388 -18.9375 4.0625 C-19.71673828 4.05798828 -20.49597656 4.05347656 -21.29882812 4.04882812 C-23.19925268 4.03716908 -25.09963706 4.01923877 -27 4 C-27 3.34 -27 2.68 -27 2 C-17.95960217 0.72958023 -9.15564771 -0.34915606 0 0 Z " fill="#FFFFFF" transform="translate(395,161)"/>
<path d="M0 0 C-0.33 1.32 -0.66 2.64 -1 4 C-7.27 4 -13.54 4 -20 4 C-20 3.34 -20 2.68 -20 2 C-13.1834265 0.2120463 -7.03482474 -0.23668569 0 0 Z " fill="#FFFFFF" transform="translate(1060,137)"/>
<path d="M0 0 C4.95 0 9.9 0 15 0 C15 0.99 15 1.98 15 3 C10.38 3 5.76 3 1 3 C0.67 2.01 0.34 1.02 0 0 Z " fill="#FFFFFF" transform="translate(1071,137)"/>
<path d="M0 0 C0 0.66 0 1.32 0 2 C-3.86723631 3.26582219 -7.73151262 3.1118765 -11.75 3.0625 C-12.44738281 3.05798828 -13.14476562 3.05347656 -13.86328125 3.04882812 C-15.57555803 3.0371002 -17.28779033 3.01916653 -19 3 C-19 2.34 -19 1.68 -19 1 C-12.61773055 0.17648136 -6.43255401 -0.12086218 0 0 Z " fill="#FFFFFF" transform="translate(1016,137)"/>
<path d="M0 0 C1.2065625 0.0309375 1.2065625 0.0309375 2.4375 0.0625 C2.81968767 1.71864657 3.15145102 3.38707024 3.4375 5.0625 C2.4375 6.0625 2.4375 6.0625 -0.625 6.125 C-2.0790625 6.0940625 -2.0790625 6.0940625 -3.5625 6.0625 C-3.605221 4.39638095 -3.60313832 2.72867115 -3.5625 1.0625 C-2.5625 0.0625 -2.5625 0.0625 0 0 Z " fill="#FFFFFF" transform="translate(1027.5625,129.9375)"/>
<path d="M0 0 C2.20029834 2.20029834 2.68582609 3.5781256 3.625 6.5 C3.88539063 7.2940625 4.14578125 8.088125 4.4140625 8.90625 C5 11 5 11 5 13 C2.21882328 11.9802352 1.18166898 11.33608762 -0.25 8.6875 C-1.01090581 5.96092085 -1.23450952 3.81411424 -1 1 C-0.67 0.67 -0.34 0.34 0 0 Z " fill="#FFFFFF" transform="translate(490,158)"/>
<path d="M0 0 C1.32 0 2.64 0 4 0 C4 1.65 4 3.3 4 5 C2.35 5.33 0.7 5.66 -1 6 C-1.042721 4.33388095 -1.04063832 2.66617115 -1 1 C-0.67 0.67 -0.34 0.34 0 0 Z " fill="#FFFFFF" transform="translate(588,579)"/>
<path d="M0 0 C-0.33 1.65 -0.66 3.3 -1 5 C-2.65 5 -4.3 5 -6 5 C-6 3.68 -6 2.36 -6 1 C-3.92446352 0.4465236 -2.15634036 0 0 0 Z " fill="#FFFFFF" transform="translate(1034,142)"/>
<path d="M0 0 C0.99 0 1.98 0 3 0 C2.67 1.65 2.34 3.3 2 5 C1.01 4.67 0.02 4.34 -1 4 C-0.67 2.68 -0.34 1.36 0 0 Z " fill="#FFFFFF" transform="translate(599,581)"/>
<path d="M0 0 C1.32 0 2.64 0 4 0 C3.67 1.32 3.34 2.64 3 4 C2.01 3.67 1.02 3.34 0 3 C0 2.01 0 1.02 0 0 Z " fill="#FFFFFF" transform="translate(489,150)"/>
<path d="M0 0 C2 1 2 1 2 1 Z " fill="#FFFFFF" transform="translate(319,796)"/>
<path d="" fill="#FFFFFF" transform="translate(0,0)"/>
</svg>
